<svg width="50" height="50" viewBox="0 0 50 50" fill="none" xmlns="http://www.w3.org/2000/svg">
<circle cx="25" cy="25" r="20.8333" fill="#D9D9D9"/>
<path d="M50 25C50 31.6304 47.3661 37.9893 42.6777 42.6777C37.9893 47.3661 31.6304 50 25 50C18.3696 50 12.0107 47.3661 7.32233 42.6777C2.63392 37.9893 0 31.6304 0 25C0 18.3696 2.63392 12.0107 7.32233 7.32233C12.0107 2.63392 18.3696 0 25 0C31.6304 0 37.9893 2.63392 42.6777 7.32233C47.3661 12.0107 50 18.3696 50 25V25ZM25 12.5C24.605 12.5002 24.2145 12.5832 23.8535 12.7435C23.4925 12.9039 23.1692 13.138 22.9042 13.431C22.6392 13.7239 22.4386 14.0691 22.3151 14.4443C22.1917 14.8195 22.1482 15.2164 22.1875 15.6094L23.2812 26.5687C23.318 26.9993 23.515 27.4004 23.8333 27.6926C24.1515 27.9849 24.5679 28.147 25 28.147C25.4321 28.147 25.8485 27.9849 26.1667 27.6926C26.485 27.4004 26.682 26.9993 26.7188 26.5687L27.8125 15.6094C27.8518 15.2164 27.8083 14.8195 27.6849 14.4443C27.5614 14.0691 27.3608 13.7239 27.0958 13.431C26.8308 13.138 26.5075 12.9039 26.1465 12.7435C25.7855 12.5832 25.395 12.5002 25 12.5V12.5ZM25.0062 31.25C24.1774 31.25 23.3826 31.5792 22.7965 32.1653C22.2105 32.7513 21.8812 33.5462 21.8812 34.375C21.8812 35.2038 22.2105 35.9987 22.7965 36.5847C23.3826 37.1708 24.1774 37.5 25.0062 37.5C25.8351 37.5 26.6299 37.1708 27.216 36.5847C27.802 35.9987 28.1312 35.2038 28.1312 34.375C28.1312 33.5462 27.802 32.7513 27.216 32.1653C26.6299 31.5792 25.8351 31.25 25.0062 31.25Z" fill="#FF2323"/>
</svg>
