<svg width="50" height="50" viewBox="0 0 50 50" fill="none" xmlns="http://www.w3.org/2000/svg">
<path d="M33.3333 22.2222C31.8056 22.2222 30.4981 21.6778 29.4111 20.5889C28.3222 19.5019 27.7778 18.1944 27.7778 16.6667V5.55556C27.7778 4.02778 28.3222 2.71944 29.4111 1.63056C30.4981 0.543518 31.8056 0 33.3333 0H44.4444C45.9722 0 47.2806 0.543518 48.3694 1.63056C49.4565 2.71944 50 4.02778 50 5.55556V16.6667C50 18.1944 49.4565 19.5019 48.3694 20.5889C47.2806 21.6778 45.9722 22.2222 44.4444 22.2222H33.3333ZM22.2222 16.6667C22.2222 18.1944 21.6787 19.5019 20.5917 20.5889C19.5028 21.6778 18.1944 22.2222 16.6667 22.2222H5.55556C4.02778 22.2222 2.71944 21.6778 1.63056 20.5889C0.543518 19.5019 0 18.1944 0 16.6667V5.55556C0 4.02778 0.543518 2.71944 1.63056 1.63056C2.71944 0.543518 4.02778 0 5.55556 0H16.6667C18.1944 0 19.5028 0.543518 20.5917 1.63056C21.6787 2.71944 22.2222 4.02778 22.2222 5.55556V16.6667ZM27.7778 33.3333C27.7778 31.8056 28.3222 30.4972 29.4111 29.4083C30.4981 28.3213 31.8056 27.7778 33.3333 27.7778H44.4444C45.9722 27.7778 47.2806 28.3213 48.3694 29.4083C49.4565 30.4972 50 31.8056 50 33.3333V44.4444C50 45.9722 49.4565 47.2806 48.3694 48.3694C47.2806 49.4565 45.9722 50 44.4444 50H33.3333C31.8056 50 30.4981 49.4565 29.4111 48.3694C28.3222 47.2806 27.7778 45.9722 27.7778 44.4444V33.3333ZM16.6667 27.7778C18.1944 27.7778 19.5028 28.3213 20.5917 29.4083C21.6787 30.4972 22.2222 31.8056 22.2222 33.3333V44.4444C22.2222 45.9722 21.6787 47.2806 20.5917 48.3694C19.5028 49.4565 18.1944 50 16.6667 50H5.55556C4.02778 50 2.71944 49.4565 1.63056 48.3694C0.543518 47.2806 0 45.9722 0 44.4444V33.3333C0 31.8056 0.543518 30.4972 1.63056 29.4083C2.71944 28.3213 4.02778 27.7778 5.55556 27.7778H16.6667Z" fill="#5F6368"/>
</svg>
