<svg width="50" height="50" viewBox="0 0 50 50" fill="none" xmlns="http://www.w3.org/2000/svg">
<path d="M5.55556 50C4.02778 50 2.71944 49.4565 1.63056 48.3694C0.543518 47.2806 0 45.9722 0 44.4444V9.72222C0 9.02778 0.115741 8.40278 0.347222 7.84722C0.578704 7.29167 0.87963 6.75926 1.25 6.25L5.13889 1.52778C5.50926 1.01852 5.97222 0.636111 6.52778 0.380556C7.08333 0.126852 7.68518 0 8.33333 0H41.6667C42.3148 0 42.9167 0.126852 43.4722 0.380556C44.0278 0.636111 44.4907 1.01852 44.8611 1.52778L48.75 6.25C49.1204 6.75926 49.4213 7.29167 49.6528 7.84722C49.8843 8.40278 50 9.02778 50 9.72222V44.4444C50 45.9722 49.4565 47.2806 48.3694 48.3694C47.2806 49.4565 45.9722 50 44.4444 50H5.55556ZM6.66667 8.33333H43.3333L40.9722 5.55556H9.02778L6.66667 8.33333ZM25 40.4861C25.3704 40.4861 25.7176 40.4278 26.0417 40.3111C26.3657 40.1963 26.6667 40 26.9444 39.7222L34.1667 32.5C34.6759 31.9907 34.9306 31.3426 34.9306 30.5556C34.9306 29.7685 34.6759 29.1204 34.1667 28.6111C33.6574 28.1019 33.0093 27.8472 32.2222 27.8472C31.4352 27.8472 30.787 28.1019 30.2778 28.6111L27.7778 31.1111V22.2222C27.7778 21.4352 27.512 20.775 26.9806 20.2417C26.4472 19.7102 25.787 19.4444 25 19.4444C24.213 19.4444 23.5537 19.7102 23.0222 20.2417C22.4889 20.775 22.2222 21.4352 22.2222 22.2222V31.1111L19.7222 28.6111C19.213 28.1019 18.5648 27.8472 17.7778 27.8472C16.9907 27.8472 16.3426 28.1019 15.8333 28.6111C15.3241 29.1204 15.0694 29.7685 15.0694 30.5556C15.0694 31.3426 15.3241 31.9907 15.8333 32.5L23.0556 39.7222C23.3333 40 23.6343 40.1963 23.9583 40.3111C24.2824 40.4278 24.6296 40.4861 25 40.4861V40.4861Z" fill="#5F6368"/>
</svg>
