<svg width="50" height="50" viewBox="0 0 50 50" fill="none" xmlns="http://www.w3.org/2000/svg">
<path fill-rule="evenodd" clip-rule="evenodd" d="M3.12504 0C2.29623 0 1.50136 0.376274 0.915303 1.04605C0.329244 1.71582 0 2.62423 0 3.57143V46.4286C0 47.3758 0.329244 48.2842 0.915303 48.954C1.50136 49.6237 2.29623 50 3.12504 50C3.95385 50 4.74872 49.6237 5.33478 48.954C5.92084 48.2842 6.25008 47.3758 6.25008 46.4286V3.57143C6.25008 2.62423 5.92084 1.71582 5.33478 1.04605C4.74872 0.376274 3.95385 0 3.12504 0V0ZM35.2911 33.1893C34.7218 33.8629 34.4069 34.765 34.414 35.7014C34.4211 36.6378 34.7498 37.5336 35.3292 38.1958C35.9086 38.858 36.6924 39.2336 37.5117 39.2417C38.3311 39.2498 39.1205 38.8898 39.7099 38.2393L49.085 27.525C49.6709 26.8553 50 25.947 50 25C50 24.053 49.6709 23.1447 49.085 22.475L39.7099 11.7607C39.4216 11.4196 39.0768 11.1475 38.6955 10.9604C38.3143 10.7732 37.9042 10.6747 37.4893 10.6705C37.0743 10.6664 36.6628 10.7568 36.2788 10.9364C35.8947 11.1159 35.5458 11.3811 35.2524 11.7164C34.9589 12.0518 34.7269 12.4505 34.5698 12.8894C34.4126 13.3284 34.3336 13.7986 34.3372 14.2729C34.3408 14.7471 34.427 15.2157 34.5908 15.6514C34.7545 16.0872 34.9926 16.4813 35.2911 16.8107L39.3318 21.4286H15.6252C14.7964 21.4286 14.0015 21.8048 13.4155 22.4746C12.8294 23.1444 12.5002 24.0528 12.5002 25C12.5002 25.9472 12.8294 26.8556 13.4155 27.5254C14.0015 28.1952 14.7964 28.5714 15.6252 28.5714H39.3318L35.2911 33.1893V33.1893Z" fill="#5F6368"/>
</svg>
