<svg width="50" height="50" viewBox="0 0 50 50" fill="none" xmlns="http://www.w3.org/2000/svg">
<rect width="50" height="50" rx="5" fill="#20DF7F"/>
<path d="M25 6C22.3478 6 19.8043 7.07715 17.9289 8.99449C16.0536 10.9118 15 13.5123 15 16.2238C15 21.8615 20.6357 23.4345 21.0329 30.099H28.9657C29.3629 23.4345 35 21.8615 35 16.2238C35 13.5123 33.9464 10.9118 32.0711 8.99449C30.1957 7.07715 27.6522 6 25 6ZM25 43C27.7057 43 28.5471 41.5 28.81 40.5667H21.19C21.4529 41.5015 22.2943 43 25 43ZM21.0714 39.1033H28.9286V31.561H21.0714V39.1033Z" fill="white"/>
</svg>
