<svg width="50" height="50" viewBox="0 0 50 50" fill="none" xmlns="http://www.w3.org/2000/svg">
<path d="M50 17.8732C49.9975 16.9848 49.6452 16.1333 49.0196 15.5032L34.5055 0.971962C33.8747 0.349157 33.0243 0 32.1383 0C31.2523 0 30.402 0.349157 29.7711 0.971962L15.52 15.2399C13.2485 14.4499 7.41413 13.229 1.24503 18.2084C0.879492 18.5038 0.58014 18.8729 0.36644 19.2917C0.152741 19.7105 0.02948 20.1697 0.00467166 20.6394C-0.0201366 21.109 0.0540633 21.5787 0.222447 22.0177C0.390831 22.4568 0.649628 22.8554 0.982012 23.1878L12.8898 35.1096L4.35349 43.68C4.22161 43.812 4.11699 43.9688 4.04562 44.1413C3.97425 44.3138 3.93751 44.4987 3.93751 44.6854C3.93751 44.8722 3.97425 45.0571 4.04562 45.2296C4.11699 45.4021 4.22161 45.5589 4.35349 45.6909C4.48538 45.8229 4.64194 45.9277 4.81426 45.9991C4.98657 46.0706 5.17125 46.1074 5.35776 46.1074C5.54427 46.1074 5.72896 46.0706 5.90127 45.9991C6.07358 45.9277 6.23015 45.8229 6.36203 45.6909L14.9222 37.1445L26.7822 49.0185C27.4115 49.6448 28.2621 49.9975 29.1494 50H29.3885C29.8677 49.9663 30.3338 49.8289 30.7549 49.5975C31.1759 49.3661 31.5418 49.046 31.8275 48.6594C36.538 42.3873 35.9163 37.36 34.7925 34.4633L49.0196 20.2432C49.6452 19.6132 49.9975 18.7616 50 17.8732V17.8732ZM46.9872 18.2084L32.0905 33.1466C31.8727 33.3552 31.7274 33.628 31.6757 33.9253C31.6241 34.2225 31.6689 34.5285 31.8036 34.7984C34.1947 39.5624 31.3971 44.446 29.532 46.9357C29.4925 46.9892 29.4424 47.0338 29.3848 47.0668C29.3271 47.0998 29.2633 47.1203 29.1972 47.1273C29.1268 47.1331 29.056 47.1232 28.9899 47.0984C28.9237 47.0736 28.8639 47.0344 28.8147 46.9836L3.01447 21.1529C2.96426 21.1084 2.92514 21.0528 2.90023 20.9904C2.87532 20.9281 2.86531 20.8608 2.871 20.7938C2.8775 20.7243 2.89776 20.6567 2.9306 20.5951C2.96344 20.5334 3.00821 20.4789 3.06229 20.4348C6.05119 18.0169 8.92053 17.3944 11.1204 17.3944C13.3202 17.3944 15.1135 18.1366 15.2331 18.2084C15.5027 18.3432 15.8083 18.388 16.1052 18.3363C16.4021 18.2847 16.6747 18.1391 16.883 17.9211L31.8036 3.00682C31.8461 2.96038 31.8979 2.9233 31.9555 2.89794C32.0131 2.87257 32.0754 2.85947 32.1383 2.85947C32.2013 2.85947 32.2635 2.87257 32.3212 2.89794C32.3788 2.9233 32.4305 2.96038 32.4731 3.00682L46.9872 17.5381C47.0336 17.5807 47.0706 17.6325 47.0959 17.6902C47.1213 17.7479 47.1344 17.8102 47.1344 17.8732C47.1344 17.9363 47.1213 17.9986 47.0959 18.0563C47.0706 18.114 47.0336 18.1658 46.9872 18.2084V18.2084Z" fill="#5F6368"/>
</svg>
