<svg width="50" height="50" viewBox="0 0 50 50" fill="none" xmlns="http://www.w3.org/2000/svg">
<path d="M48.8942 20.6576L35.1717 34.4008C36.2273 37.3844 36.673 42.3649 32.0754 48.4965C31.7496 48.9267 31.3367 49.2831 30.8637 49.5422C30.3907 49.8013 29.8684 49.9573 29.3309 50H29.0729C28.0787 49.9957 27.1262 49.599 26.4222 48.8958L15.1159 37.5723L7.07011 45.6538C6.71142 46.0012 6.232 46.1954 5.73306 46.1954C5.23411 46.1954 4.75469 46.0012 4.396 45.6538C4.04361 45.2975 3.84593 44.8163 3.84593 44.3148C3.84593 43.8132 4.04361 43.332 4.396 42.9757L12.4652 34.9177L1.112 23.5472C0.735385 23.1755 0.441967 22.7279 0.25121 22.2341C0.0604523 21.7402 -0.0232848 21.2114 0.00555173 20.6827C0.0343882 20.1539 0.175139 19.6374 0.418471 19.1673C0.661802 18.6972 1.00215 18.2843 1.41695 17.9559C7.37505 13.1399 13.0751 14.1031 15.585 14.8784L29.3544 1.08813C30.061 0.390862 31.0131 0 32.005 0C32.997 0 33.9491 0.390862 34.6557 1.08813L48.8942 15.3482C49.2445 15.6956 49.5226 16.109 49.7125 16.5647C49.9023 17.0203 50 17.5092 50 18.0029C50 18.4966 49.9023 18.9855 49.7125 19.4411C49.5226 19.8968 49.2445 20.3102 48.8942 20.6576V20.6576Z" fill="#5F6368"/>
</svg>
