<svg width="50" height="50" viewBox="0 0 50 50" fill="none" xmlns="http://www.w3.org/2000/svg">
<path d="M25 30.3232L6.36882 48.9544C5.67173 49.6515 4.78454 50 3.70722 50C2.62991 50 1.74271 49.6515 1.04563 48.9544C0.348541 48.2573 0 47.3701 0 46.2928C0 45.2155 0.348541 44.3283 1.04563 43.6312L19.6768 25L1.04563 6.36882C0.348541 5.67173 0 4.78454 0 3.70722C0 2.62991 0.348541 1.74271 1.04563 1.04563C1.74271 0.348541 2.62991 0 3.70722 0C4.78454 0 5.67173 0.348541 6.36882 1.04563L25 19.6768L43.6312 1.04563C44.3283 0.348541 45.2155 0 46.2928 0C47.3701 0 48.2573 0.348541 48.9544 1.04563C49.6515 1.74271 50 2.62991 50 3.70722C50 4.78454 49.6515 5.67173 48.9544 6.36882L30.3232 25L48.9544 43.6312C49.6515 44.3283 50 45.2155 50 46.2928C50 47.3701 49.6515 48.2573 48.9544 48.9544C48.2573 49.6515 47.3701 50 46.2928 50C45.2155 50 44.3283 49.6515 43.6312 48.9544L25 30.3232Z" fill="#5F6368"/>
</svg>
