<svg width="50" height="50" viewBox="0 0 50 50" fill="none" xmlns="http://www.w3.org/2000/svg">
<path d="M35.7347 31.4465H33.4763L32.6758 30.6747C35.5742 27.3128 37.1672 23.0209 37.1641 18.5821C37.1641 14.9069 36.0743 11.3142 34.0325 8.25842C31.9906 5.20262 29.0885 2.82091 25.6931 1.41448C22.2977 0.00805131 18.5614 -0.359935 14.9569 0.357057C11.3523 1.07405 8.04131 2.84382 5.44256 5.44256C2.84382 8.04131 1.07405 11.3523 0.357057 14.9569C-0.359935 18.5614 0.00805131 22.2977 1.41448 25.6931C2.82091 29.0885 5.20262 31.9906 8.25842 34.0325C11.3142 36.0743 14.9069 37.1641 18.5821 37.1641C23.1847 37.1641 27.4157 35.4774 30.6747 32.6758L31.4465 33.4763V35.7347L45.7404 50L50 45.7404L35.7347 31.4465V31.4465ZM18.5821 31.4465C11.4637 31.4465 5.71756 25.7004 5.71756 18.5821C5.71756 11.4637 11.4637 5.71756 18.5821 5.71756C25.7004 5.71756 31.4465 11.4637 31.4465 18.5821C31.4465 25.7004 25.7004 31.4465 18.5821 31.4465Z" fill="#5F6368"/>
</svg>
