<?xml version="1.0" encoding="UTF-8" standalone="no"?>
<!DOCTYPE svg PUBLIC "-//W3C//DTD SVG 1.1//EN"
 "http://www.w3.org/Graphics/SVG/1.1/DTD/svg11.dtd">
<!-- Generated by graphviz version 7.0.2 (20221119.0110)
 -->
<!-- Title: G Pages: 1 -->
<svg width="1413pt" height="230pt"
 viewBox="0.00 0.00 1413.20 230.20" xmlns="http://www.w3.org/2000/svg" xmlns:xlink="http://www.w3.org/1999/xlink">
<g id="graph0" class="graph" transform="scale(1 1) rotate(0) translate(21.6 208.6)">
<title>G</title>
<polygon fill="#111111" stroke="none" points="-21.6,21.6 -21.6,-208.6 1391.6,-208.6 1391.6,21.6 -21.6,21.6"/>
<!-- App.tsx -->
<g id="node1" class="node">
<title>App.tsx</title>
<path fill="none" stroke="#c6c5fe" d="M226.33,-166C226.33,-166 176.67,-166 176.67,-166 172.83,-166 169,-162.17 169,-158.33 169,-158.33 169,-150.67 169,-150.67 169,-146.83 172.83,-143 176.67,-143 176.67,-143 226.33,-143 226.33,-143 230.17,-143 234,-146.83 234,-150.67 234,-150.67 234,-158.33 234,-158.33 234,-162.17 230.17,-166 226.33,-166"/>
<text text-anchor="middle" x="201.5" y="-150.8" font-family="Arial" font-size="14.00" fill="#c6c5fe">App.tsx</text>
</g>
<!-- components/Todo/Todo.tsx -->
<g id="node2" class="node">
<title>components/Todo/Todo.tsx</title>
<path fill="none" stroke="#cfffac" d="M556.33,-187C556.33,-187 379.67,-187 379.67,-187 375.83,-187 372,-183.17 372,-179.33 372,-179.33 372,-171.67 372,-171.67 372,-167.83 375.83,-164 379.67,-164 379.67,-164 556.33,-164 556.33,-164 560.17,-164 564,-167.83 564,-171.67 564,-171.67 564,-179.33 564,-179.33 564,-183.17 560.17,-187 556.33,-187"/>
<text text-anchor="middle" x="468" y="-171.8" font-family="Arial" font-size="14.00" fill="#cfffac">components/Todo/Todo.tsx</text>
</g>
<!-- App.tsx&#45;&gt;components/Todo/Todo.tsx -->
<g id="edge1" class="edge">
<title>App.tsx&#45;&gt;components/Todo/Todo.tsx</title>
<path fill="none" stroke="#757575" d="M234.4,-157.03C265.63,-159.51 314.95,-163.43 360.16,-167.02"/>
<polygon fill="#757575" stroke="#757575" points="359.8,-170.5 370.05,-167.8 360.35,-163.52 359.8,-170.5"/>
</g>
<!-- components/AuthPopup/AuthPopup.tsx -->
<g id="node3" class="node">
<title>components/AuthPopup/AuthPopup.tsx</title>
<path fill="none" stroke="#cfffac" d="M593.33,-146C593.33,-146 342.67,-146 342.67,-146 338.83,-146 335,-142.17 335,-138.33 335,-138.33 335,-130.67 335,-130.67 335,-126.83 338.83,-123 342.67,-123 342.67,-123 593.33,-123 593.33,-123 597.17,-123 601,-126.83 601,-130.67 601,-130.67 601,-138.33 601,-138.33 601,-142.17 597.17,-146 593.33,-146"/>
<text text-anchor="middle" x="468" y="-130.8" font-family="Arial" font-size="14.00" fill="#cfffac">components/AuthPopup/AuthPopup.tsx</text>
</g>
<!-- components/Logo/Logo.tsx -->
<g id="node4" class="node">
<title>components/Logo/Logo.tsx</title>
<path fill="none" stroke="#c6c5fe" d="M892.83,-166C892.83,-166 717.17,-166 717.17,-166 713.33,-166 709.5,-162.17 709.5,-158.33 709.5,-158.33 709.5,-150.67 709.5,-150.67 709.5,-146.83 713.33,-143 717.17,-143 717.17,-143 892.83,-143 892.83,-143 896.67,-143 900.5,-146.83 900.5,-150.67 900.5,-150.67 900.5,-158.33 900.5,-158.33 900.5,-162.17 896.67,-166 892.83,-166"/>
<text text-anchor="middle" x="805" y="-150.8" font-family="Arial" font-size="14.00" fill="#c6c5fe">components/Logo/Logo.tsx</text>
</g>
<!-- components/shared/UI/SvgContainer/SvgContainer.tsx -->
<g id="node5" class="node">
<title>components/shared/UI/SvgContainer/SvgContainer.tsx</title>
<path fill="none" stroke="#cfffac" d="M1362.33,-135C1362.33,-135 1016.67,-135 1016.67,-135 1012.83,-135 1009,-131.17 1009,-127.33 1009,-127.33 1009,-119.67 1009,-119.67 1009,-115.83 1012.83,-112 1016.67,-112 1016.67,-112 1362.33,-112 1362.33,-112 1366.17,-112 1370,-115.83 1370,-119.67 1370,-119.67 1370,-127.33 1370,-127.33 1370,-131.17 1366.17,-135 1362.33,-135"/>
<text text-anchor="middle" x="1189.5" y="-119.8" font-family="Arial" font-size="14.00" fill="#cfffac">components/shared/UI/SvgContainer/SvgContainer.tsx</text>
</g>
<!-- components/Logo/Logo.tsx&#45;&gt;components/shared/UI/SvgContainer/SvgContainer.tsx -->
<g id="edge2" class="edge">
<title>components/Logo/Logo.tsx&#45;&gt;components/shared/UI/SvgContainer/SvgContainer.tsx</title>
<path fill="none" stroke="#757575" d="M900.55,-146.84C939.42,-143.69 985.52,-139.95 1029.32,-136.4"/>
<polygon fill="#757575" stroke="#757575" points="1029.5,-139.9 1039.19,-135.6 1028.94,-132.92 1029.5,-139.9"/>
</g>
<!-- components/ToolBar/ToolBar.tsx -->
<g id="node6" class="node">
<title>components/ToolBar/ToolBar.tsx</title>
<path fill="none" stroke="#c6c5fe" d="M572.83,-105C572.83,-105 363.17,-105 363.17,-105 359.33,-105 355.5,-101.17 355.5,-97.33 355.5,-97.33 355.5,-89.67 355.5,-89.67 355.5,-85.83 359.33,-82 363.17,-82 363.17,-82 572.83,-82 572.83,-82 576.67,-82 580.5,-85.83 580.5,-89.67 580.5,-89.67 580.5,-97.33 580.5,-97.33 580.5,-101.17 576.67,-105 572.83,-105"/>
<text text-anchor="middle" x="468" y="-89.8" font-family="Arial" font-size="14.00" fill="#c6c5fe">components/ToolBar/ToolBar.tsx</text>
</g>
<!-- components/ToolBar/ToolBar.tsx&#45;&gt;components/Logo/Logo.tsx -->
<g id="edge3" class="edge">
<title>components/ToolBar/ToolBar.tsx&#45;&gt;components/Logo/Logo.tsx</title>
<path fill="none" stroke="#757575" d="M568.32,-105.44C579.48,-107.92 590.58,-110.9 601,-114.5 618.3,-120.47 619.59,-128.86 637,-134.5 656.34,-140.76 677.51,-145.1 698.08,-148.09"/>
<polygon fill="#757575" stroke="#757575" points="697.56,-151.55 707.93,-149.42 698.49,-144.61 697.56,-151.55"/>
</g>
<!-- components/shared/Menu/Menu.tsx -->
<g id="node7" class="node">
<title>components/shared/Menu/Menu.tsx</title>
<path fill="none" stroke="#c6c5fe" d="M917.83,-84C917.83,-84 692.17,-84 692.17,-84 688.33,-84 684.5,-80.17 684.5,-76.33 684.5,-76.33 684.5,-68.67 684.5,-68.67 684.5,-64.83 688.33,-61 692.17,-61 692.17,-61 917.83,-61 917.83,-61 921.67,-61 925.5,-64.83 925.5,-68.67 925.5,-68.67 925.5,-76.33 925.5,-76.33 925.5,-80.17 921.67,-84 917.83,-84"/>
<text text-anchor="middle" x="805" y="-68.8" font-family="Arial" font-size="14.00" fill="#c6c5fe">components/shared/Menu/Menu.tsx</text>
</g>
<!-- components/ToolBar/ToolBar.tsx&#45;&gt;components/shared/Menu/Menu.tsx -->
<g id="edge4" class="edge">
<title>components/ToolBar/ToolBar.tsx&#45;&gt;components/shared/Menu/Menu.tsx</title>
<path fill="none" stroke="#757575" d="M580.55,-86.51C610.13,-84.65 642.34,-82.63 672.86,-80.72"/>
<polygon fill="#757575" stroke="#757575" points="672.75,-84.23 682.51,-80.12 672.31,-77.25 672.75,-84.23"/>
</g>
<!-- components/shared/Menu/MenuItem/MenuItem.tsx -->
<g id="node8" class="node">
<title>components/shared/Menu/MenuItem/MenuItem.tsx</title>
<path fill="none" stroke="#c6c5fe" d="M965.33,-125C965.33,-125 644.67,-125 644.67,-125 640.83,-125 637,-121.17 637,-117.33 637,-117.33 637,-109.67 637,-109.67 637,-105.83 640.83,-102 644.67,-102 644.67,-102 965.33,-102 965.33,-102 969.17,-102 973,-105.83 973,-109.67 973,-109.67 973,-117.33 973,-117.33 973,-121.17 969.17,-125 965.33,-125"/>
<text text-anchor="middle" x="805" y="-109.8" font-family="Arial" font-size="14.00" fill="#c6c5fe">components/shared/Menu/MenuItem/MenuItem.tsx</text>
</g>
<!-- components/ToolBar/ToolBar.tsx&#45;&gt;components/shared/Menu/MenuItem/MenuItem.tsx -->
<g id="edge5" class="edge">
<title>components/ToolBar/ToolBar.tsx&#45;&gt;components/shared/Menu/MenuItem/MenuItem.tsx</title>
<path fill="none" stroke="#757575" d="M580.55,-100.16C595.1,-101.03 610.29,-101.94 625.6,-102.85"/>
<polygon fill="#757575" stroke="#757575" points="625.06,-106.32 635.25,-103.43 625.47,-99.34 625.06,-106.32"/>
</g>
<!-- components/shared/UI/Search/Search.tsx -->
<g id="node9" class="node">
<title>components/shared/UI/Search/Search.tsx</title>
<path fill="none" stroke="#c6c5fe" d="M937.33,-43C937.33,-43 672.67,-43 672.67,-43 668.83,-43 665,-39.17 665,-35.33 665,-35.33 665,-27.67 665,-27.67 665,-23.83 668.83,-20 672.67,-20 672.67,-20 937.33,-20 937.33,-20 941.17,-20 945,-23.83 945,-27.67 945,-27.67 945,-35.33 945,-35.33 945,-39.17 941.17,-43 937.33,-43"/>
<text text-anchor="middle" x="805" y="-27.8" font-family="Arial" font-size="14.00" fill="#c6c5fe">components/shared/UI/Search/Search.tsx</text>
</g>
<!-- components/ToolBar/ToolBar.tsx&#45;&gt;components/shared/UI/Search/Search.tsx -->
<g id="edge6" class="edge">
<title>components/ToolBar/ToolBar.tsx&#45;&gt;components/shared/UI/Search/Search.tsx</title>
<path fill="none" stroke="#757575" d="M572.96,-81.57C582.56,-79.32 592.04,-76.66 601,-73.5 618.47,-67.34 619.46,-58.44 637,-52.5 644.07,-50.11 651.38,-47.98 658.83,-46.1"/>
<polygon fill="#757575" stroke="#757575" points="659.43,-49.55 668.35,-43.85 657.82,-42.74 659.43,-49.55"/>
</g>
<!-- components/shared/UI/IconButton/IconButton.tsx -->
<g id="node10" class="node">
<title>components/shared/UI/IconButton/IconButton.tsx</title>
<path fill="none" stroke="#cfffac" d="M1344.83,-74C1344.83,-74 1034.17,-74 1034.17,-74 1030.33,-74 1026.5,-70.17 1026.5,-66.33 1026.5,-66.33 1026.5,-58.67 1026.5,-58.67 1026.5,-54.83 1030.33,-51 1034.17,-51 1034.17,-51 1344.83,-51 1344.83,-51 1348.67,-51 1352.5,-54.83 1352.5,-58.67 1352.5,-58.67 1352.5,-66.33 1352.5,-66.33 1352.5,-70.17 1348.67,-74 1344.83,-74"/>
<text text-anchor="middle" x="1189.5" y="-58.8" font-family="Arial" font-size="14.00" fill="#cfffac">components/shared/UI/IconButton/IconButton.tsx</text>
</g>
<!-- components/shared/Menu/Menu.tsx&#45;&gt;components/shared/UI/IconButton/IconButton.tsx -->
<g id="edge7" class="edge">
<title>components/shared/Menu/Menu.tsx&#45;&gt;components/shared/UI/IconButton/IconButton.tsx</title>
<path fill="none" stroke="#757575" d="M925.98,-69.36C954.15,-68.63 984.72,-67.83 1014.72,-67.04"/>
<polygon fill="#757575" stroke="#757575" points="1014.77,-70.54 1024.67,-66.78 1014.58,-63.55 1014.77,-70.54"/>
</g>
<!-- components/shared/Menu/MenuItem/MenuItem.tsx&#45;&gt;components/shared/UI/SvgContainer/SvgContainer.tsx -->
<g id="edge8" class="edge">
<title>components/shared/Menu/MenuItem/MenuItem.tsx&#45;&gt;components/shared/UI/SvgContainer/SvgContainer.tsx</title>
<path fill="none" stroke="#757575" d="M973.49,-117.88C981.41,-118.09 989.38,-118.29 997.36,-118.5"/>
<polygon fill="#757575" stroke="#757575" points="997.03,-122 1007.11,-118.76 997.21,-115 997.03,-122"/>
</g>
<!-- components/shared/UI/Search/Search.tsx&#45;&gt;components/shared/UI/IconButton/IconButton.tsx -->
<g id="edge9" class="edge">
<title>components/shared/UI/Search/Search.tsx&#45;&gt;components/shared/UI/IconButton/IconButton.tsx</title>
<path fill="none" stroke="#757575" d="M945.44,-42.8C972.65,-45.01 1001.38,-47.33 1029.17,-49.59"/>
<polygon fill="#757575" stroke="#757575" points="1028.85,-53.07 1039.1,-50.39 1029.41,-46.09 1028.85,-53.07"/>
</g>
<!-- components/shared/Plug/Plug.tsx -->
<g id="node11" class="node">
<title>components/shared/Plug/Plug.tsx</title>
<path fill="none" stroke="#cfffac" d="M574.83,-64C574.83,-64 361.17,-64 361.17,-64 357.33,-64 353.5,-60.17 353.5,-56.33 353.5,-56.33 353.5,-48.67 353.5,-48.67 353.5,-44.83 357.33,-41 361.17,-41 361.17,-41 574.83,-41 574.83,-41 578.67,-41 582.5,-44.83 582.5,-48.67 582.5,-48.67 582.5,-56.33 582.5,-56.33 582.5,-60.17 578.67,-64 574.83,-64"/>
<text text-anchor="middle" x="468" y="-48.8" font-family="Arial" font-size="14.00" fill="#cfffac">components/shared/Plug/Plug.tsx</text>
</g>
<!-- containers/Container/Container.tsx -->
<g id="node12" class="node">
<title>containers/Container/Container.tsx</title>
<path fill="none" stroke="#cfffac" d="M576.83,-23C576.83,-23 359.17,-23 359.17,-23 355.33,-23 351.5,-19.17 351.5,-15.33 351.5,-15.33 351.5,-7.67 351.5,-7.67 351.5,-3.83 355.33,0 359.17,0 359.17,0 576.83,0 576.83,0 580.67,0 584.5,-3.83 584.5,-7.67 584.5,-7.67 584.5,-15.33 584.5,-15.33 584.5,-19.17 580.67,-23 576.83,-23"/>
<text text-anchor="middle" x="468" y="-7.8" font-family="Arial" font-size="14.00" fill="#cfffac">containers/Container/Container.tsx</text>
</g>
<!-- containers/Layout/Layout.tsx -->
<g id="node13" class="node">
<title>containers/Layout/Layout.tsx</title>
<path fill="none" stroke="#c6c5fe" d="M291.33,-105C291.33,-105 111.67,-105 111.67,-105 107.83,-105 104,-101.17 104,-97.33 104,-97.33 104,-89.67 104,-89.67 104,-85.83 107.83,-82 111.67,-82 111.67,-82 291.33,-82 291.33,-82 295.17,-82 299,-85.83 299,-89.67 299,-89.67 299,-97.33 299,-97.33 299,-101.17 295.17,-105 291.33,-105"/>
<text text-anchor="middle" x="201.5" y="-89.8" font-family="Arial" font-size="14.00" fill="#c6c5fe">containers/Layout/Layout.tsx</text>
</g>
<!-- containers/Layout/Layout.tsx&#45;&gt;components/AuthPopup/AuthPopup.tsx -->
<g id="edge10" class="edge">
<title>containers/Layout/Layout.tsx&#45;&gt;components/AuthPopup/AuthPopup.tsx</title>
<path fill="none" stroke="#757575" d="M277.46,-105.47C296.25,-108.45 316.36,-111.61 335,-114.5 348.37,-116.57 362.51,-118.74 376.38,-120.85"/>
<polygon fill="#757575" stroke="#757575" points="375.5,-124.26 385.92,-122.3 376.56,-117.34 375.5,-124.26"/>
</g>
<!-- containers/Layout/Layout.tsx&#45;&gt;components/ToolBar/ToolBar.tsx -->
<g id="edge11" class="edge">
<title>containers/Layout/Layout.tsx&#45;&gt;components/ToolBar/ToolBar.tsx</title>
<path fill="none" stroke="#757575" d="M299.49,-93.5C313.94,-93.5 329,-93.5 343.9,-93.5"/>
<polygon fill="#757575" stroke="#757575" points="343.74,-97 353.74,-93.5 343.74,-90 343.74,-97"/>
</g>
<!-- containers/Layout/Layout.tsx&#45;&gt;components/shared/Plug/Plug.tsx -->
<g id="edge12" class="edge">
<title>containers/Layout/Layout.tsx&#45;&gt;components/shared/Plug/Plug.tsx</title>
<path fill="none" stroke="#757575" d="M279.72,-81.53C310.68,-76.73 346.54,-71.17 378.54,-66.21"/>
<polygon fill="#757575" stroke="#757575" points="378.85,-69.71 388.19,-64.72 377.77,-62.79 378.85,-69.71"/>
</g>
<!-- containers/Layout/Layout.tsx&#45;&gt;containers/Container/Container.tsx -->
<g id="edge13" class="edge">
<title>containers/Layout/Layout.tsx&#45;&gt;containers/Container/Container.tsx</title>
<path fill="none" stroke="#757575" d="M223.37,-81.71C248.89,-67.8 293.8,-45 335,-32.5 343.27,-29.99 351.94,-27.76 360.7,-25.8"/>
<polygon fill="#757575" stroke="#757575" points="361.29,-29.25 370.35,-23.75 359.84,-22.4 361.29,-29.25"/>
</g>
<!-- main.tsx -->
<g id="node14" class="node">
<title>main.tsx</title>
<path fill="none" stroke="#c6c5fe" d="M60.33,-125C60.33,-125 7.67,-125 7.67,-125 3.83,-125 0,-121.17 0,-117.33 0,-117.33 0,-109.67 0,-109.67 0,-105.83 3.83,-102 7.67,-102 7.67,-102 60.33,-102 60.33,-102 64.17,-102 68,-105.83 68,-109.67 68,-109.67 68,-117.33 68,-117.33 68,-121.17 64.17,-125 60.33,-125"/>
<text text-anchor="middle" x="34" y="-109.8" font-family="Arial" font-size="14.00" fill="#c6c5fe">main.tsx</text>
</g>
<!-- main.tsx&#45;&gt;App.tsx -->
<g id="edge14" class="edge">
<title>main.tsx&#45;&gt;App.tsx</title>
<path fill="none" stroke="#757575" d="M68.49,-121.8C94.23,-128.17 129.95,-137.02 157.75,-143.91"/>
<polygon fill="#757575" stroke="#757575" points="156.73,-147.26 167.27,-146.27 158.41,-140.47 156.73,-147.26"/>
</g>
<!-- main.tsx&#45;&gt;containers/Layout/Layout.tsx -->
<g id="edge15" class="edge">
<title>main.tsx&#45;&gt;containers/Layout/Layout.tsx</title>
<path fill="none" stroke="#757575" d="M68.49,-109.45C75.78,-108.57 83.87,-107.59 92.36,-106.57"/>
<polygon fill="#757575" stroke="#757575" points="92.7,-110.05 102.21,-105.38 91.86,-103.1 92.7,-110.05"/>
</g>
</g>
</svg>
