<?xml version="1.0" encoding="UTF-8" standalone="no"?>
<!DOCTYPE svg PUBLIC "-//W3C//DTD SVG 1.1//EN"
 "http://www.w3.org/Graphics/SVG/1.1/DTD/svg11.dtd">
<!-- Generated by graphviz version 7.0.2 (20221119.0110)
 -->
<!-- Title: G Pages: 1 -->
<svg width="1435pt" height="230pt"
 viewBox="0.00 0.00 1435.20 230.20" xmlns="http://www.w3.org/2000/svg" xmlns:xlink="http://www.w3.org/1999/xlink">
<g id="graph0" class="graph" transform="scale(1 1) rotate(0) translate(21.6 208.6)">
<title>G</title>
<polygon fill="#111111" stroke="none" points="-21.6,21.6 -21.6,-208.6 1413.6,-208.6 1413.6,21.6 -21.6,21.6"/>
<!-- App.tsx -->
<g id="node1" class="node">
<title>App.tsx</title>
<path fill="none" stroke="#c6c5fe" d="M226.33,-166C226.33,-166 176.67,-166 176.67,-166 172.83,-166 169,-162.17 169,-158.33 169,-158.33 169,-150.67 169,-150.67 169,-146.83 172.83,-143 176.67,-143 176.67,-143 226.33,-143 226.33,-143 230.17,-143 234,-146.83 234,-150.67 234,-150.67 234,-158.33 234,-158.33 234,-162.17 230.17,-166 226.33,-166"/>
<text text-anchor="middle" x="201.5" y="-150.8" font-family="Arial" font-size="14.00" fill="#c6c5fe">App.tsx</text>
</g>
<!-- components/Todo/Todo.tsx -->
<g id="node2" class="node">
<title>components/Todo/Todo.tsx</title>
<path fill="none" stroke="#cfffac" d="M556.33,-187C556.33,-187 379.67,-187 379.67,-187 375.83,-187 372,-183.17 372,-179.33 372,-179.33 372,-171.67 372,-171.67 372,-167.83 375.83,-164 379.67,-164 379.67,-164 556.33,-164 556.33,-164 560.17,-164 564,-167.83 564,-171.67 564,-171.67 564,-179.33 564,-179.33 564,-183.17 560.17,-187 556.33,-187"/>
<text text-anchor="middle" x="468" y="-171.8" font-family="Arial" font-size="14.00" fill="#cfffac">components/Todo/Todo.tsx</text>
</g>
<!-- App.tsx&#45;&gt;components/Todo/Todo.tsx -->
<g id="edge1" class="edge">
<title>App.tsx&#45;&gt;components/Todo/Todo.tsx</title>
<path fill="none" stroke="#757575" d="M234.4,-157.03C265.63,-159.51 314.95,-163.43 360.16,-167.02"/>
<polygon fill="#757575" stroke="#757575" points="359.8,-170.5 370.05,-167.8 360.35,-163.52 359.8,-170.5"/>
</g>
<!-- components/AuthPopup/AuthPopup.tsx -->
<g id="node3" class="node">
<title>components/AuthPopup/AuthPopup.tsx</title>
<path fill="none" stroke="#c6c5fe" d="M593.33,-146C593.33,-146 342.67,-146 342.67,-146 338.83,-146 335,-142.17 335,-138.33 335,-138.33 335,-130.67 335,-130.67 335,-126.83 338.83,-123 342.67,-123 342.67,-123 593.33,-123 593.33,-123 597.17,-123 601,-126.83 601,-130.67 601,-130.67 601,-138.33 601,-138.33 601,-142.17 597.17,-146 593.33,-146"/>
<text text-anchor="middle" x="468" y="-130.8" font-family="Arial" font-size="14.00" fill="#c6c5fe">components/AuthPopup/AuthPopup.tsx</text>
</g>
<!-- components/shared/UI/TooltipButton/TooltipButton.tsx -->
<g id="node4" class="node">
<title>components/shared/UI/TooltipButton/TooltipButton.tsx</title>
<path fill="none" stroke="#cfffac" d="M987.33,-187C987.33,-187 644.67,-187 644.67,-187 640.83,-187 637,-183.17 637,-179.33 637,-179.33 637,-171.67 637,-171.67 637,-167.83 640.83,-164 644.67,-164 644.67,-164 987.33,-164 987.33,-164 991.17,-164 995,-167.83 995,-171.67 995,-171.67 995,-179.33 995,-179.33 995,-183.17 991.17,-187 987.33,-187"/>
<text text-anchor="middle" x="816" y="-171.8" font-family="Arial" font-size="14.00" fill="#cfffac">components/shared/UI/TooltipButton/TooltipButton.tsx</text>
</g>
<!-- components/AuthPopup/AuthPopup.tsx&#45;&gt;components/shared/UI/TooltipButton/TooltipButton.tsx -->
<g id="edge2" class="edge">
<title>components/AuthPopup/AuthPopup.tsx&#45;&gt;components/shared/UI/TooltipButton/TooltipButton.tsx</title>
<path fill="none" stroke="#757575" d="M563.16,-146.48C587.23,-149.48 613.07,-152.66 637,-155.5 655.84,-157.74 675.82,-160.04 695.31,-162.26"/>
<polygon fill="#757575" stroke="#757575" points="694.89,-165.73 705.22,-163.38 695.68,-158.78 694.89,-165.73"/>
</g>
<!-- components/Logo/Logo.tsx -->
<g id="node5" class="node">
<title>components/Logo/Logo.tsx</title>
<path fill="none" stroke="#c6c5fe" d="M903.83,-146C903.83,-146 728.17,-146 728.17,-146 724.33,-146 720.5,-142.17 720.5,-138.33 720.5,-138.33 720.5,-130.67 720.5,-130.67 720.5,-126.83 724.33,-123 728.17,-123 728.17,-123 903.83,-123 903.83,-123 907.67,-123 911.5,-126.83 911.5,-130.67 911.5,-130.67 911.5,-138.33 911.5,-138.33 911.5,-142.17 907.67,-146 903.83,-146"/>
<text text-anchor="middle" x="816" y="-130.8" font-family="Arial" font-size="14.00" fill="#c6c5fe">components/Logo/Logo.tsx</text>
</g>
<!-- components/shared/UI/SvgContainer/SvgContainer.tsx -->
<g id="node6" class="node">
<title>components/shared/UI/SvgContainer/SvgContainer.tsx</title>
<path fill="none" stroke="#cfffac" d="M1384.33,-115C1384.33,-115 1038.67,-115 1038.67,-115 1034.83,-115 1031,-111.17 1031,-107.33 1031,-107.33 1031,-99.67 1031,-99.67 1031,-95.83 1034.83,-92 1038.67,-92 1038.67,-92 1384.33,-92 1384.33,-92 1388.17,-92 1392,-95.83 1392,-99.67 1392,-99.67 1392,-107.33 1392,-107.33 1392,-111.17 1388.17,-115 1384.33,-115"/>
<text text-anchor="middle" x="1211.5" y="-99.8" font-family="Arial" font-size="14.00" fill="#cfffac">components/shared/UI/SvgContainer/SvgContainer.tsx</text>
</g>
<!-- components/Logo/Logo.tsx&#45;&gt;components/shared/UI/SvgContainer/SvgContainer.tsx -->
<g id="edge3" class="edge">
<title>components/Logo/Logo.tsx&#45;&gt;components/shared/UI/SvgContainer/SvgContainer.tsx</title>
<path fill="none" stroke="#757575" d="M911.75,-127.04C952.3,-123.84 1000.84,-120.02 1046.88,-116.39"/>
<polygon fill="#757575" stroke="#757575" points="1047.01,-119.89 1056.71,-115.62 1046.46,-112.91 1047.01,-119.89"/>
</g>
<!-- components/ToolBar/ToolBar.tsx -->
<g id="node7" class="node">
<title>components/ToolBar/ToolBar.tsx</title>
<path fill="none" stroke="#c6c5fe" d="M572.83,-105C572.83,-105 363.17,-105 363.17,-105 359.33,-105 355.5,-101.17 355.5,-97.33 355.5,-97.33 355.5,-89.67 355.5,-89.67 355.5,-85.83 359.33,-82 363.17,-82 363.17,-82 572.83,-82 572.83,-82 576.67,-82 580.5,-85.83 580.5,-89.67 580.5,-89.67 580.5,-97.33 580.5,-97.33 580.5,-101.17 576.67,-105 572.83,-105"/>
<text text-anchor="middle" x="468" y="-89.8" font-family="Arial" font-size="14.00" fill="#c6c5fe">components/ToolBar/ToolBar.tsx</text>
</g>
<!-- components/ToolBar/ToolBar.tsx&#45;&gt;components/Logo/Logo.tsx -->
<g id="edge4" class="edge">
<title>components/ToolBar/ToolBar.tsx&#45;&gt;components/Logo/Logo.tsx</title>
<path fill="none" stroke="#757575" d="M563.16,-105.48C587.23,-108.48 613.07,-111.66 637,-114.5 660.33,-117.27 685.38,-120.14 709.12,-122.82"/>
<polygon fill="#757575" stroke="#757575" points="708.45,-126.27 718.78,-123.91 709.24,-119.31 708.45,-126.27"/>
</g>
<!-- components/shared/Menu/Menu.tsx -->
<g id="node8" class="node">
<title>components/shared/Menu/Menu.tsx</title>
<path fill="none" stroke="#c6c5fe" d="M928.83,-64C928.83,-64 703.17,-64 703.17,-64 699.33,-64 695.5,-60.17 695.5,-56.33 695.5,-56.33 695.5,-48.67 695.5,-48.67 695.5,-44.83 699.33,-41 703.17,-41 703.17,-41 928.83,-41 928.83,-41 932.67,-41 936.5,-44.83 936.5,-48.67 936.5,-48.67 936.5,-56.33 936.5,-56.33 936.5,-60.17 932.67,-64 928.83,-64"/>
<text text-anchor="middle" x="816" y="-48.8" font-family="Arial" font-size="14.00" fill="#c6c5fe">components/shared/Menu/Menu.tsx</text>
</g>
<!-- components/ToolBar/ToolBar.tsx&#45;&gt;components/shared/Menu/Menu.tsx -->
<g id="edge5" class="edge">
<title>components/ToolBar/ToolBar.tsx&#45;&gt;components/shared/Menu/Menu.tsx</title>
<path fill="none" stroke="#757575" d="M569.38,-81.53C591.65,-78.88 615.12,-76.09 637,-73.5 658.05,-71.01 680.5,-68.35 702.12,-65.8"/>
<polygon fill="#757575" stroke="#757575" points="702.31,-69.3 711.83,-64.65 701.49,-62.35 702.31,-69.3"/>
</g>
<!-- components/shared/Menu/MenuItem/MenuItem.tsx -->
<g id="node9" class="node">
<title>components/shared/Menu/MenuItem/MenuItem.tsx</title>
<path fill="none" stroke="#c6c5fe" d="M976.33,-105C976.33,-105 655.67,-105 655.67,-105 651.83,-105 648,-101.17 648,-97.33 648,-97.33 648,-89.67 648,-89.67 648,-85.83 651.83,-82 655.67,-82 655.67,-82 976.33,-82 976.33,-82 980.17,-82 984,-85.83 984,-89.67 984,-89.67 984,-97.33 984,-97.33 984,-101.17 980.17,-105 976.33,-105"/>
<text text-anchor="middle" x="816" y="-89.8" font-family="Arial" font-size="14.00" fill="#c6c5fe">components/shared/Menu/MenuItem/MenuItem.tsx</text>
</g>
<!-- components/ToolBar/ToolBar.tsx&#45;&gt;components/shared/Menu/MenuItem/MenuItem.tsx -->
<g id="edge6" class="edge">
<title>components/ToolBar/ToolBar.tsx&#45;&gt;components/shared/Menu/MenuItem/MenuItem.tsx</title>
<path fill="none" stroke="#757575" d="M580.86,-93.5C598.6,-93.5 617.33,-93.5 636.15,-93.5"/>
<polygon fill="#757575" stroke="#757575" points="636.03,-97 646.03,-93.5 636.03,-90 636.03,-97"/>
</g>
<!-- components/shared/UI/Search/Search.tsx -->
<g id="node10" class="node">
<title>components/shared/UI/Search/Search.tsx</title>
<path fill="none" stroke="#c6c5fe" d="M948.33,-23C948.33,-23 683.67,-23 683.67,-23 679.83,-23 676,-19.17 676,-15.33 676,-15.33 676,-7.67 676,-7.67 676,-3.83 679.83,0 683.67,0 683.67,0 948.33,0 948.33,0 952.17,0 956,-3.83 956,-7.67 956,-7.67 956,-15.33 956,-15.33 956,-19.17 952.17,-23 948.33,-23"/>
<text text-anchor="middle" x="816" y="-7.8" font-family="Arial" font-size="14.00" fill="#c6c5fe">components/shared/UI/Search/Search.tsx</text>
</g>
<!-- components/ToolBar/ToolBar.tsx&#45;&gt;components/shared/UI/Search/Search.tsx -->
<g id="edge7" class="edge">
<title>components/ToolBar/ToolBar.tsx&#45;&gt;components/shared/UI/Search/Search.tsx</title>
<path fill="none" stroke="#757575" d="M580.72,-82.41C587.77,-79.95 594.59,-77 601,-73.5 622.28,-61.87 615.53,-43.78 637,-32.5 645.81,-27.87 655.19,-24.07 664.87,-20.97"/>
<polygon fill="#757575" stroke="#757575" points="665.83,-24.33 674.45,-18.17 663.87,-17.61 665.83,-24.33"/>
</g>
<!-- components/shared/UI/IconButton/IconButton.tsx -->
<g id="node11" class="node">
<title>components/shared/UI/IconButton/IconButton.tsx</title>
<path fill="none" stroke="#cfffac" d="M1366.83,-54C1366.83,-54 1056.17,-54 1056.17,-54 1052.33,-54 1048.5,-50.17 1048.5,-46.33 1048.5,-46.33 1048.5,-38.67 1048.5,-38.67 1048.5,-34.83 1052.33,-31 1056.17,-31 1056.17,-31 1366.83,-31 1366.83,-31 1370.67,-31 1374.5,-34.83 1374.5,-38.67 1374.5,-38.67 1374.5,-46.33 1374.5,-46.33 1374.5,-50.17 1370.67,-54 1366.83,-54"/>
<text text-anchor="middle" x="1211.5" y="-38.8" font-family="Arial" font-size="14.00" fill="#cfffac">components/shared/UI/IconButton/IconButton.tsx</text>
</g>
<!-- components/shared/Menu/Menu.tsx&#45;&gt;components/shared/UI/IconButton/IconButton.tsx -->
<g id="edge8" class="edge">
<title>components/shared/Menu/Menu.tsx&#45;&gt;components/shared/UI/IconButton/IconButton.tsx</title>
<path fill="none" stroke="#757575" d="M936.93,-49.45C968.41,-48.65 1003.01,-47.77 1036.69,-46.92"/>
<polygon fill="#757575" stroke="#757575" points="1036.66,-50.42 1046.56,-46.67 1036.48,-43.42 1036.66,-50.42"/>
</g>
<!-- components/shared/Menu/MenuItem/MenuItem.tsx&#45;&gt;components/shared/UI/SvgContainer/SvgContainer.tsx -->
<g id="edge9" class="edge">
<title>components/shared/Menu/MenuItem/MenuItem.tsx&#45;&gt;components/shared/UI/SvgContainer/SvgContainer.tsx</title>
<path fill="none" stroke="#757575" d="M984.45,-97.76C996.02,-98.05 1007.73,-98.35 1019.42,-98.64"/>
<polygon fill="#757575" stroke="#757575" points="1019.01,-102.13 1029.09,-98.89 1019.18,-95.14 1019.01,-102.13"/>
</g>
<!-- components/shared/UI/Search/Search.tsx&#45;&gt;components/shared/UI/IconButton/IconButton.tsx -->
<g id="edge10" class="edge">
<title>components/shared/UI/Search/Search.tsx&#45;&gt;components/shared/UI/IconButton/IconButton.tsx</title>
<path fill="none" stroke="#757575" d="M956.29,-22.47C985.72,-24.79 1017.04,-27.26 1047.27,-29.64"/>
<polygon fill="#757575" stroke="#757575" points="1046.6,-33.1 1056.85,-30.4 1047.15,-26.12 1046.6,-33.1"/>
</g>
<!-- components/shared/Plug/Plug.tsx -->
<g id="node12" class="node">
<title>components/shared/Plug/Plug.tsx</title>
<path fill="none" stroke="#cfffac" d="M574.83,-64C574.83,-64 361.17,-64 361.17,-64 357.33,-64 353.5,-60.17 353.5,-56.33 353.5,-56.33 353.5,-48.67 353.5,-48.67 353.5,-44.83 357.33,-41 361.17,-41 361.17,-41 574.83,-41 574.83,-41 578.67,-41 582.5,-44.83 582.5,-48.67 582.5,-48.67 582.5,-56.33 582.5,-56.33 582.5,-60.17 578.67,-64 574.83,-64"/>
<text text-anchor="middle" x="468" y="-48.8" font-family="Arial" font-size="14.00" fill="#cfffac">components/shared/Plug/Plug.tsx</text>
</g>
<!-- containers/Container/Container.tsx -->
<g id="node13" class="node">
<title>containers/Container/Container.tsx</title>
<path fill="none" stroke="#cfffac" d="M576.83,-23C576.83,-23 359.17,-23 359.17,-23 355.33,-23 351.5,-19.17 351.5,-15.33 351.5,-15.33 351.5,-7.67 351.5,-7.67 351.5,-3.83 355.33,0 359.17,0 359.17,0 576.83,0 576.83,0 580.67,0 584.5,-3.83 584.5,-7.67 584.5,-7.67 584.5,-15.33 584.5,-15.33 584.5,-19.17 580.67,-23 576.83,-23"/>
<text text-anchor="middle" x="468" y="-7.8" font-family="Arial" font-size="14.00" fill="#cfffac">containers/Container/Container.tsx</text>
</g>
<!-- containers/Layout/Layout.tsx -->
<g id="node14" class="node">
<title>containers/Layout/Layout.tsx</title>
<path fill="none" stroke="#c6c5fe" d="M291.33,-105C291.33,-105 111.67,-105 111.67,-105 107.83,-105 104,-101.17 104,-97.33 104,-97.33 104,-89.67 104,-89.67 104,-85.83 107.83,-82 111.67,-82 111.67,-82 291.33,-82 291.33,-82 295.17,-82 299,-85.83 299,-89.67 299,-89.67 299,-97.33 299,-97.33 299,-101.17 295.17,-105 291.33,-105"/>
<text text-anchor="middle" x="201.5" y="-89.8" font-family="Arial" font-size="14.00" fill="#c6c5fe">containers/Layout/Layout.tsx</text>
</g>
<!-- containers/Layout/Layout.tsx&#45;&gt;components/AuthPopup/AuthPopup.tsx -->
<g id="edge11" class="edge">
<title>containers/Layout/Layout.tsx&#45;&gt;components/AuthPopup/AuthPopup.tsx</title>
<path fill="none" stroke="#757575" d="M277.46,-105.47C296.25,-108.45 316.36,-111.61 335,-114.5 348.37,-116.57 362.51,-118.74 376.38,-120.85"/>
<polygon fill="#757575" stroke="#757575" points="375.5,-124.26 385.92,-122.3 376.56,-117.34 375.5,-124.26"/>
</g>
<!-- containers/Layout/Layout.tsx&#45;&gt;components/ToolBar/ToolBar.tsx -->
<g id="edge12" class="edge">
<title>containers/Layout/Layout.tsx&#45;&gt;components/ToolBar/ToolBar.tsx</title>
<path fill="none" stroke="#757575" d="M299.49,-93.5C313.94,-93.5 329,-93.5 343.9,-93.5"/>
<polygon fill="#757575" stroke="#757575" points="343.74,-97 353.74,-93.5 343.74,-90 343.74,-97"/>
</g>
<!-- containers/Layout/Layout.tsx&#45;&gt;components/shared/Plug/Plug.tsx -->
<g id="edge13" class="edge">
<title>containers/Layout/Layout.tsx&#45;&gt;components/shared/Plug/Plug.tsx</title>
<path fill="none" stroke="#757575" d="M279.72,-81.53C310.68,-76.73 346.54,-71.17 378.54,-66.21"/>
<polygon fill="#757575" stroke="#757575" points="378.85,-69.71 388.19,-64.72 377.77,-62.79 378.85,-69.71"/>
</g>
<!-- containers/Layout/Layout.tsx&#45;&gt;containers/Container/Container.tsx -->
<g id="edge14" class="edge">
<title>containers/Layout/Layout.tsx&#45;&gt;containers/Container/Container.tsx</title>
<path fill="none" stroke="#757575" d="M223.37,-81.71C248.89,-67.8 293.8,-45 335,-32.5 343.27,-29.99 351.94,-27.76 360.7,-25.8"/>
<polygon fill="#757575" stroke="#757575" points="361.29,-29.25 370.35,-23.75 359.84,-22.4 361.29,-29.25"/>
</g>
<!-- main.tsx -->
<g id="node15" class="node">
<title>main.tsx</title>
<path fill="none" stroke="#c6c5fe" d="M60.33,-125C60.33,-125 7.67,-125 7.67,-125 3.83,-125 0,-121.17 0,-117.33 0,-117.33 0,-109.67 0,-109.67 0,-105.83 3.83,-102 7.67,-102 7.67,-102 60.33,-102 60.33,-102 64.17,-102 68,-105.83 68,-109.67 68,-109.67 68,-117.33 68,-117.33 68,-121.17 64.17,-125 60.33,-125"/>
<text text-anchor="middle" x="34" y="-109.8" font-family="Arial" font-size="14.00" fill="#c6c5fe">main.tsx</text>
</g>
<!-- main.tsx&#45;&gt;App.tsx -->
<g id="edge15" class="edge">
<title>main.tsx&#45;&gt;App.tsx</title>
<path fill="none" stroke="#757575" d="M68.49,-121.8C94.23,-128.17 129.95,-137.02 157.75,-143.91"/>
<polygon fill="#757575" stroke="#757575" points="156.73,-147.26 167.27,-146.27 158.41,-140.47 156.73,-147.26"/>
</g>
<!-- main.tsx&#45;&gt;containers/Layout/Layout.tsx -->
<g id="edge16" class="edge">
<title>main.tsx&#45;&gt;containers/Layout/Layout.tsx</title>
<path fill="none" stroke="#757575" d="M68.49,-109.45C75.78,-108.57 83.87,-107.59 92.36,-106.57"/>
<polygon fill="#757575" stroke="#757575" points="92.7,-110.05 102.21,-105.38 91.86,-103.1 92.7,-110.05"/>
</g>
</g>
</svg>
