<?xml version="1.0" encoding="UTF-8" standalone="no"?>
<!DOCTYPE svg PUBLIC "-//W3C//DTD SVG 1.1//EN"
 "http://www.w3.org/Graphics/SVG/1.1/DTD/svg11.dtd">
<!-- Generated by graphviz version 7.0.2 (20221119.0110)
 -->
<!-- Title: G Pages: 1 -->
<svg width="1380pt" height="209pt"
 viewBox="0.00 0.00 1380.20 209.20" xmlns="http://www.w3.org/2000/svg" xmlns:xlink="http://www.w3.org/1999/xlink">
<g id="graph0" class="graph" transform="scale(1 1) rotate(0) translate(21.6 187.6)">
<title>G</title>
<polygon fill="#111111" stroke="none" points="-21.6,21.6 -21.6,-187.6 1358.6,-187.6 1358.6,21.6 -21.6,21.6"/>
<!-- App.tsx -->
<g id="node1" class="node">
<title>App.tsx</title>
<path fill="none" stroke="#c6c5fe" d="M226.33,-135C226.33,-135 176.67,-135 176.67,-135 172.83,-135 169,-131.17 169,-127.33 169,-127.33 169,-119.67 169,-119.67 169,-115.83 172.83,-112 176.67,-112 176.67,-112 226.33,-112 226.33,-112 230.17,-112 234,-115.83 234,-119.67 234,-119.67 234,-127.33 234,-127.33 234,-131.17 230.17,-135 226.33,-135"/>
<text text-anchor="middle" x="201.5" y="-119.8" font-family="Arial" font-size="14.00" fill="#c6c5fe">App.tsx</text>
</g>
<!-- components/Todo/Todo.tsx -->
<g id="node2" class="node">
<title>components/Todo/Todo.tsx</title>
<path fill="none" stroke="#cfffac" d="M539.83,-146C539.83,-146 363.17,-146 363.17,-146 359.33,-146 355.5,-142.17 355.5,-138.33 355.5,-138.33 355.5,-130.67 355.5,-130.67 355.5,-126.83 359.33,-123 363.17,-123 363.17,-123 539.83,-123 539.83,-123 543.67,-123 547.5,-126.83 547.5,-130.67 547.5,-130.67 547.5,-138.33 547.5,-138.33 547.5,-142.17 543.67,-146 539.83,-146"/>
<text text-anchor="middle" x="451.5" y="-130.8" font-family="Arial" font-size="14.00" fill="#cfffac">components/Todo/Todo.tsx</text>
</g>
<!-- App.tsx&#45;&gt;components/Todo/Todo.tsx -->
<g id="edge1" class="edge">
<title>App.tsx&#45;&gt;components/Todo/Todo.tsx</title>
<path fill="none" stroke="#757575" d="M234.41,-124.92C262.22,-126.15 304.17,-128.01 343.73,-129.76"/>
<polygon fill="#757575" stroke="#757575" points="343.43,-133.25 353.58,-130.2 343.74,-126.26 343.43,-133.25"/>
</g>
<!-- components/Logo/Logo.tsx -->
<g id="node3" class="node">
<title>components/Logo/Logo.tsx</title>
<path fill="none" stroke="#c6c5fe" d="M859.83,-166C859.83,-166 684.17,-166 684.17,-166 680.33,-166 676.5,-162.17 676.5,-158.33 676.5,-158.33 676.5,-150.67 676.5,-150.67 676.5,-146.83 680.33,-143 684.17,-143 684.17,-143 859.83,-143 859.83,-143 863.67,-143 867.5,-146.83 867.5,-150.67 867.5,-150.67 867.5,-158.33 867.5,-158.33 867.5,-162.17 863.67,-166 859.83,-166"/>
<text text-anchor="middle" x="772" y="-150.8" font-family="Arial" font-size="14.00" fill="#c6c5fe">components/Logo/Logo.tsx</text>
</g>
<!-- components/shared/UI/SvgContainer/SvgContainer.tsx -->
<g id="node4" class="node">
<title>components/shared/UI/SvgContainer/SvgContainer.tsx</title>
<path fill="none" stroke="#cfffac" d="M1329.33,-135C1329.33,-135 983.67,-135 983.67,-135 979.83,-135 976,-131.17 976,-127.33 976,-127.33 976,-119.67 976,-119.67 976,-115.83 979.83,-112 983.67,-112 983.67,-112 1329.33,-112 1329.33,-112 1333.17,-112 1337,-115.83 1337,-119.67 1337,-119.67 1337,-127.33 1337,-127.33 1337,-131.17 1333.17,-135 1329.33,-135"/>
<text text-anchor="middle" x="1156.5" y="-119.8" font-family="Arial" font-size="14.00" fill="#cfffac">components/shared/UI/SvgContainer/SvgContainer.tsx</text>
</g>
<!-- components/Logo/Logo.tsx&#45;&gt;components/shared/UI/SvgContainer/SvgContainer.tsx -->
<g id="edge2" class="edge">
<title>components/Logo/Logo.tsx&#45;&gt;components/shared/UI/SvgContainer/SvgContainer.tsx</title>
<path fill="none" stroke="#757575" d="M867.55,-146.84C906.42,-143.69 952.52,-139.95 996.32,-136.4"/>
<polygon fill="#757575" stroke="#757575" points="996.5,-139.9 1006.19,-135.6 995.94,-132.92 996.5,-139.9"/>
</g>
<!-- components/ToolBar/ToolBar.tsx -->
<g id="node5" class="node">
<title>components/ToolBar/ToolBar.tsx</title>
<path fill="none" stroke="#c6c5fe" d="M556.33,-105C556.33,-105 346.67,-105 346.67,-105 342.83,-105 339,-101.17 339,-97.33 339,-97.33 339,-89.67 339,-89.67 339,-85.83 342.83,-82 346.67,-82 346.67,-82 556.33,-82 556.33,-82 560.17,-82 564,-85.83 564,-89.67 564,-89.67 564,-97.33 564,-97.33 564,-101.17 560.17,-105 556.33,-105"/>
<text text-anchor="middle" x="451.5" y="-89.8" font-family="Arial" font-size="14.00" fill="#c6c5fe">components/ToolBar/ToolBar.tsx</text>
</g>
<!-- components/ToolBar/ToolBar.tsx&#45;&gt;components/Logo/Logo.tsx -->
<g id="edge3" class="edge">
<title>components/ToolBar/ToolBar.tsx&#45;&gt;components/Logo/Logo.tsx</title>
<path fill="none" stroke="#757575" d="M536.63,-105.45C547.33,-107.95 558.02,-110.93 568,-114.5 585.23,-120.66 586.59,-128.86 604,-134.5 623.34,-140.76 644.51,-145.1 665.08,-148.09"/>
<polygon fill="#757575" stroke="#757575" points="664.56,-151.55 674.93,-149.42 665.49,-144.61 664.56,-151.55"/>
</g>
<!-- components/shared/Menu/Menu.tsx -->
<g id="node6" class="node">
<title>components/shared/Menu/Menu.tsx</title>
<path fill="none" stroke="#c6c5fe" d="M884.83,-84C884.83,-84 659.17,-84 659.17,-84 655.33,-84 651.5,-80.17 651.5,-76.33 651.5,-76.33 651.5,-68.67 651.5,-68.67 651.5,-64.83 655.33,-61 659.17,-61 659.17,-61 884.83,-61 884.83,-61 888.67,-61 892.5,-64.83 892.5,-68.67 892.5,-68.67 892.5,-76.33 892.5,-76.33 892.5,-80.17 888.67,-84 884.83,-84"/>
<text text-anchor="middle" x="772" y="-68.8" font-family="Arial" font-size="14.00" fill="#c6c5fe">components/shared/Menu/Menu.tsx</text>
</g>
<!-- components/ToolBar/ToolBar.tsx&#45;&gt;components/shared/Menu/Menu.tsx -->
<g id="edge4" class="edge">
<title>components/ToolBar/ToolBar.tsx&#45;&gt;components/shared/Menu/Menu.tsx</title>
<path fill="none" stroke="#757575" d="M564.34,-86.13C588.67,-84.52 614.62,-82.81 639.62,-81.16"/>
<polygon fill="#757575" stroke="#757575" points="639.78,-84.66 649.52,-80.51 639.32,-77.67 639.78,-84.66"/>
</g>
<!-- components/shared/Menu/MenuItem/MenuItem.tsx -->
<g id="node7" class="node">
<title>components/shared/Menu/MenuItem/MenuItem.tsx</title>
<path fill="none" stroke="#c6c5fe" d="M932.33,-125C932.33,-125 611.67,-125 611.67,-125 607.83,-125 604,-121.17 604,-117.33 604,-117.33 604,-109.67 604,-109.67 604,-105.83 607.83,-102 611.67,-102 611.67,-102 932.33,-102 932.33,-102 936.17,-102 940,-105.83 940,-109.67 940,-109.67 940,-117.33 940,-117.33 940,-121.17 936.17,-125 932.33,-125"/>
<text text-anchor="middle" x="772" y="-109.8" font-family="Arial" font-size="14.00" fill="#c6c5fe">components/shared/Menu/MenuItem/MenuItem.tsx</text>
</g>
<!-- components/ToolBar/ToolBar.tsx&#45;&gt;components/shared/Menu/MenuItem/MenuItem.tsx -->
<g id="edge5" class="edge">
<title>components/ToolBar/ToolBar.tsx&#45;&gt;components/shared/Menu/MenuItem/MenuItem.tsx</title>
<path fill="none" stroke="#757575" d="M564.34,-100.52C573.55,-101.1 583,-101.69 592.54,-102.29"/>
<polygon fill="#757575" stroke="#757575" points="592.06,-105.77 602.26,-102.9 592.5,-98.78 592.06,-105.77"/>
</g>
<!-- components/shared/UI/Search/Search.tsx -->
<g id="node8" class="node">
<title>components/shared/UI/Search/Search.tsx</title>
<path fill="none" stroke="#c6c5fe" d="M904.33,-43C904.33,-43 639.67,-43 639.67,-43 635.83,-43 632,-39.17 632,-35.33 632,-35.33 632,-27.67 632,-27.67 632,-23.83 635.83,-20 639.67,-20 639.67,-20 904.33,-20 904.33,-20 908.17,-20 912,-23.83 912,-27.67 912,-27.67 912,-35.33 912,-35.33 912,-39.17 908.17,-43 904.33,-43"/>
<text text-anchor="middle" x="772" y="-27.8" font-family="Arial" font-size="14.00" fill="#c6c5fe">components/shared/UI/Search/Search.tsx</text>
</g>
<!-- components/ToolBar/ToolBar.tsx&#45;&gt;components/shared/UI/Search/Search.tsx -->
<g id="edge6" class="edge">
<title>components/ToolBar/ToolBar.tsx&#45;&gt;components/shared/UI/Search/Search.tsx</title>
<path fill="none" stroke="#757575" d="M541.01,-81.53C550.25,-79.29 559.4,-76.64 568,-73.5 585.4,-67.15 586.46,-58.44 604,-52.5 611.07,-50.11 618.38,-47.98 625.83,-46.1"/>
<polygon fill="#757575" stroke="#757575" points="626.43,-49.55 635.35,-43.85 624.82,-42.74 626.43,-49.55"/>
</g>
<!-- components/shared/UI/IconButton/IconButton.tsx -->
<g id="node9" class="node">
<title>components/shared/UI/IconButton/IconButton.tsx</title>
<path fill="none" stroke="#cfffac" d="M1311.83,-74C1311.83,-74 1001.17,-74 1001.17,-74 997.33,-74 993.5,-70.17 993.5,-66.33 993.5,-66.33 993.5,-58.67 993.5,-58.67 993.5,-54.83 997.33,-51 1001.17,-51 1001.17,-51 1311.83,-51 1311.83,-51 1315.67,-51 1319.5,-54.83 1319.5,-58.67 1319.5,-58.67 1319.5,-66.33 1319.5,-66.33 1319.5,-70.17 1315.67,-74 1311.83,-74"/>
<text text-anchor="middle" x="1156.5" y="-58.8" font-family="Arial" font-size="14.00" fill="#cfffac">components/shared/UI/IconButton/IconButton.tsx</text>
</g>
<!-- components/shared/Menu/Menu.tsx&#45;&gt;components/shared/UI/IconButton/IconButton.tsx -->
<g id="edge7" class="edge">
<title>components/shared/Menu/Menu.tsx&#45;&gt;components/shared/UI/IconButton/IconButton.tsx</title>
<path fill="none" stroke="#757575" d="M892.98,-69.36C921.15,-68.63 951.72,-67.83 981.72,-67.04"/>
<polygon fill="#757575" stroke="#757575" points="981.77,-70.54 991.67,-66.78 981.58,-63.55 981.77,-70.54"/>
</g>
<!-- components/shared/Menu/MenuItem/MenuItem.tsx&#45;&gt;components/shared/UI/SvgContainer/SvgContainer.tsx -->
<g id="edge8" class="edge">
<title>components/shared/Menu/MenuItem/MenuItem.tsx&#45;&gt;components/shared/UI/SvgContainer/SvgContainer.tsx</title>
<path fill="none" stroke="#757575" d="M940.49,-117.88C948.41,-118.09 956.38,-118.29 964.36,-118.5"/>
<polygon fill="#757575" stroke="#757575" points="964.03,-122 974.11,-118.76 964.21,-115 964.03,-122"/>
</g>
<!-- components/shared/UI/Search/Search.tsx&#45;&gt;components/shared/UI/IconButton/IconButton.tsx -->
<g id="edge9" class="edge">
<title>components/shared/UI/Search/Search.tsx&#45;&gt;components/shared/UI/IconButton/IconButton.tsx</title>
<path fill="none" stroke="#757575" d="M912.44,-42.8C939.65,-45.01 968.38,-47.33 996.17,-49.59"/>
<polygon fill="#757575" stroke="#757575" points="995.85,-53.07 1006.1,-50.39 996.41,-46.09 995.85,-53.07"/>
</g>
<!-- components/shared/Plug/Plug.tsx -->
<g id="node10" class="node">
<title>components/shared/Plug/Plug.tsx</title>
<path fill="none" stroke="#cfffac" d="M558.33,-64C558.33,-64 344.67,-64 344.67,-64 340.83,-64 337,-60.17 337,-56.33 337,-56.33 337,-48.67 337,-48.67 337,-44.83 340.83,-41 344.67,-41 344.67,-41 558.33,-41 558.33,-41 562.17,-41 566,-44.83 566,-48.67 566,-48.67 566,-56.33 566,-56.33 566,-60.17 562.17,-64 558.33,-64"/>
<text text-anchor="middle" x="451.5" y="-48.8" font-family="Arial" font-size="14.00" fill="#cfffac">components/shared/Plug/Plug.tsx</text>
</g>
<!-- containers/Container/Container.tsx -->
<g id="node11" class="node">
<title>containers/Container/Container.tsx</title>
<path fill="none" stroke="#cfffac" d="M560.33,-23C560.33,-23 342.67,-23 342.67,-23 338.83,-23 335,-19.17 335,-15.33 335,-15.33 335,-7.67 335,-7.67 335,-3.83 338.83,0 342.67,0 342.67,0 560.33,0 560.33,0 564.17,0 568,-3.83 568,-7.67 568,-7.67 568,-15.33 568,-15.33 568,-19.17 564.17,-23 560.33,-23"/>
<text text-anchor="middle" x="451.5" y="-7.8" font-family="Arial" font-size="14.00" fill="#cfffac">containers/Container/Container.tsx</text>
</g>
<!-- containers/Layout/Layout.tsx -->
<g id="node12" class="node">
<title>containers/Layout/Layout.tsx</title>
<path fill="none" stroke="#c6c5fe" d="M291.33,-84C291.33,-84 111.67,-84 111.67,-84 107.83,-84 104,-80.17 104,-76.33 104,-76.33 104,-68.67 104,-68.67 104,-64.83 107.83,-61 111.67,-61 111.67,-61 291.33,-61 291.33,-61 295.17,-61 299,-64.83 299,-68.67 299,-68.67 299,-76.33 299,-76.33 299,-80.17 295.17,-84 291.33,-84"/>
<text text-anchor="middle" x="201.5" y="-68.8" font-family="Arial" font-size="14.00" fill="#c6c5fe">containers/Layout/Layout.tsx</text>
</g>
<!-- containers/Layout/Layout.tsx&#45;&gt;components/ToolBar/ToolBar.tsx -->
<g id="edge10" class="edge">
<title>containers/Layout/Layout.tsx&#45;&gt;components/ToolBar/ToolBar.tsx</title>
<path fill="none" stroke="#757575" d="M299.45,-80.71C308.62,-81.49 318.01,-82.28 327.38,-83.07"/>
<polygon fill="#757575" stroke="#757575" points="327.04,-86.56 337.29,-83.91 327.63,-79.58 327.04,-86.56"/>
</g>
<!-- containers/Layout/Layout.tsx&#45;&gt;components/shared/Plug/Plug.tsx -->
<g id="edge11" class="edge">
<title>containers/Layout/Layout.tsx&#45;&gt;components/shared/Plug/Plug.tsx</title>
<path fill="none" stroke="#757575" d="M299.45,-64.68C307.95,-64 316.63,-63.3 325.32,-62.6"/>
<polygon fill="#757575" stroke="#757575" points="325.53,-66.09 335.22,-61.8 324.97,-59.11 325.53,-66.09"/>
</g>
<!-- containers/Layout/Layout.tsx&#45;&gt;containers/Container/Container.tsx -->
<g id="edge12" class="edge">
<title>containers/Layout/Layout.tsx&#45;&gt;containers/Container/Container.tsx</title>
<path fill="none" stroke="#757575" d="M238.19,-60.52C264.69,-51.93 301.83,-40.5 335,-32.5 345.15,-30.05 355.86,-27.75 366.5,-25.62"/>
<polygon fill="#757575" stroke="#757575" points="366.9,-29.11 376.05,-23.76 365.56,-22.24 366.9,-29.11"/>
</g>
<!-- main.tsx -->
<g id="node13" class="node">
<title>main.tsx</title>
<path fill="none" stroke="#c6c5fe" d="M60.33,-104C60.33,-104 7.67,-104 7.67,-104 3.83,-104 0,-100.17 0,-96.33 0,-96.33 0,-88.67 0,-88.67 0,-84.83 3.83,-81 7.67,-81 7.67,-81 60.33,-81 60.33,-81 64.17,-81 68,-84.83 68,-88.67 68,-88.67 68,-96.33 68,-96.33 68,-100.17 64.17,-104 60.33,-104"/>
<text text-anchor="middle" x="34" y="-88.8" font-family="Arial" font-size="14.00" fill="#c6c5fe">main.tsx</text>
</g>
<!-- main.tsx&#45;&gt;App.tsx -->
<g id="edge13" class="edge">
<title>main.tsx&#45;&gt;App.tsx</title>
<path fill="none" stroke="#757575" d="M68.49,-98.77C94.23,-103.59 129.95,-110.29 157.75,-115.49"/>
<polygon fill="#757575" stroke="#757575" points="156.78,-118.87 167.26,-117.27 158.07,-111.99 156.78,-118.87"/>
</g>
<!-- main.tsx&#45;&gt;containers/Layout/Layout.tsx -->
<g id="edge14" class="edge">
<title>main.tsx&#45;&gt;containers/Layout/Layout.tsx</title>
<path fill="none" stroke="#757575" d="M68.49,-88.45C75.78,-87.57 83.87,-86.59 92.36,-85.57"/>
<polygon fill="#757575" stroke="#757575" points="92.7,-89.05 102.21,-84.38 91.86,-82.1 92.7,-89.05"/>
</g>
</g>
</svg>
