<?xml version="1.0" encoding="UTF-8" standalone="no"?>
<!DOCTYPE svg PUBLIC "-//W3C//DTD SVG 1.1//EN"
 "http://www.w3.org/Graphics/SVG/1.1/DTD/svg11.dtd">
<!-- Generated by graphviz version 7.0.2 (20221119.0110)
 -->
<!-- Title: G Pages: 1 -->
<svg width="1230pt" height="208pt"
 viewBox="0.00 0.00 1230.20 208.20" xmlns="http://www.w3.org/2000/svg" xmlns:xlink="http://www.w3.org/1999/xlink">
<g id="graph0" class="graph" transform="scale(1 1) rotate(0) translate(21.6 186.6)">
<title>G</title>
<polygon fill="#111111" stroke="none" points="-21.6,21.6 -21.6,-186.6 1208.6,-186.6 1208.6,21.6 -21.6,21.6"/>
<!-- App.tsx -->
<g id="node1" class="node">
<title>App.tsx</title>
<path fill="none" stroke="#c6c5fe" d="M226.33,-154C226.33,-154 176.67,-154 176.67,-154 172.83,-154 169,-150.17 169,-146.33 169,-146.33 169,-138.67 169,-138.67 169,-134.83 172.83,-131 176.67,-131 176.67,-131 226.33,-131 226.33,-131 230.17,-131 234,-134.83 234,-138.67 234,-138.67 234,-146.33 234,-146.33 234,-150.17 230.17,-154 226.33,-154"/>
<text text-anchor="middle" x="201.5" y="-138.8" font-family="Arial" font-size="14.00" fill="#c6c5fe">App.tsx</text>
</g>
<!-- components/Todo/Todo.tsx -->
<g id="node2" class="node">
<title>components/Todo/Todo.tsx</title>
<path fill="none" stroke="#cfffac" d="M539.83,-165C539.83,-165 363.17,-165 363.17,-165 359.33,-165 355.5,-161.17 355.5,-157.33 355.5,-157.33 355.5,-149.67 355.5,-149.67 355.5,-145.83 359.33,-142 363.17,-142 363.17,-142 539.83,-142 539.83,-142 543.67,-142 547.5,-145.83 547.5,-149.67 547.5,-149.67 547.5,-157.33 547.5,-157.33 547.5,-161.17 543.67,-165 539.83,-165"/>
<text text-anchor="middle" x="451.5" y="-149.8" font-family="Arial" font-size="14.00" fill="#cfffac">components/Todo/Todo.tsx</text>
</g>
<!-- App.tsx&#45;&gt;components/Todo/Todo.tsx -->
<g id="edge1" class="edge">
<title>App.tsx&#45;&gt;components/Todo/Todo.tsx</title>
<path fill="none" stroke="#757575" d="M234.41,-143.92C262.22,-145.15 304.17,-147.01 343.73,-148.76"/>
<polygon fill="#757575" stroke="#757575" points="343.43,-152.25 353.58,-149.2 343.74,-145.26 343.43,-152.25"/>
</g>
<!-- components/Logo/Logo.tsx -->
<g id="node3" class="node">
<title>components/Logo/Logo.tsx</title>
<path fill="none" stroke="#c6c5fe" d="M808.33,-144C808.33,-144 632.67,-144 632.67,-144 628.83,-144 625,-140.17 625,-136.33 625,-136.33 625,-128.67 625,-128.67 625,-124.83 628.83,-121 632.67,-121 632.67,-121 808.33,-121 808.33,-121 812.17,-121 816,-124.83 816,-128.67 816,-128.67 816,-136.33 816,-136.33 816,-140.17 812.17,-144 808.33,-144"/>
<text text-anchor="middle" x="720.5" y="-128.8" font-family="Arial" font-size="14.00" fill="#c6c5fe">components/Logo/Logo.tsx</text>
</g>
<!-- components/UI/SvgContainer/SvgContainer.tsx -->
<g id="node4" class="node">
<title>components/UI/SvgContainer/SvgContainer.tsx</title>
<path fill="none" stroke="#cfffac" d="M1179.33,-144C1179.33,-144 880.67,-144 880.67,-144 876.83,-144 873,-140.17 873,-136.33 873,-136.33 873,-128.67 873,-128.67 873,-124.83 876.83,-121 880.67,-121 880.67,-121 1179.33,-121 1179.33,-121 1183.17,-121 1187,-124.83 1187,-128.67 1187,-128.67 1187,-136.33 1187,-136.33 1187,-140.17 1183.17,-144 1179.33,-144"/>
<text text-anchor="middle" x="1030" y="-128.8" font-family="Arial" font-size="14.00" fill="#cfffac">components/UI/SvgContainer/SvgContainer.tsx</text>
</g>
<!-- components/Logo/Logo.tsx&#45;&gt;components/UI/SvgContainer/SvgContainer.tsx -->
<g id="edge2" class="edge">
<title>components/Logo/Logo.tsx&#45;&gt;components/UI/SvgContainer/SvgContainer.tsx</title>
<path fill="none" stroke="#757575" d="M816.27,-132.5C830.68,-132.5 845.91,-132.5 861.33,-132.5"/>
<polygon fill="#757575" stroke="#757575" points="861.06,-136 871.06,-132.5 861.06,-129 861.06,-136"/>
</g>
<!-- components/Plug/Plug.tsx -->
<g id="node5" class="node">
<title>components/Plug/Plug.tsx</title>
<path fill="none" stroke="#cfffac" d="M534.83,-124C534.83,-124 368.17,-124 368.17,-124 364.33,-124 360.5,-120.17 360.5,-116.33 360.5,-116.33 360.5,-108.67 360.5,-108.67 360.5,-104.83 364.33,-101 368.17,-101 368.17,-101 534.83,-101 534.83,-101 538.67,-101 542.5,-104.83 542.5,-108.67 542.5,-108.67 542.5,-116.33 542.5,-116.33 542.5,-120.17 538.67,-124 534.83,-124"/>
<text text-anchor="middle" x="451.5" y="-108.8" font-family="Arial" font-size="14.00" fill="#cfffac">components/Plug/Plug.tsx</text>
</g>
<!-- components/ToolBar/ToolBar.tsx -->
<g id="node6" class="node">
<title>components/ToolBar/ToolBar.tsx</title>
<path fill="none" stroke="#c6c5fe" d="M556.33,-83C556.33,-83 346.67,-83 346.67,-83 342.83,-83 339,-79.17 339,-75.33 339,-75.33 339,-67.67 339,-67.67 339,-63.83 342.83,-60 346.67,-60 346.67,-60 556.33,-60 556.33,-60 560.17,-60 564,-63.83 564,-67.67 564,-67.67 564,-75.33 564,-75.33 564,-79.17 560.17,-83 556.33,-83"/>
<text text-anchor="middle" x="451.5" y="-67.8" font-family="Arial" font-size="14.00" fill="#c6c5fe">components/ToolBar/ToolBar.tsx</text>
</g>
<!-- components/ToolBar/ToolBar.tsx&#45;&gt;components/Logo/Logo.tsx -->
<g id="edge3" class="edge">
<title>components/ToolBar/ToolBar.tsx&#45;&gt;components/Logo/Logo.tsx</title>
<path fill="none" stroke="#757575" d="M536.63,-83.45C547.33,-85.95 558.02,-88.93 568,-92.5 585.23,-98.66 586.74,-106.41 604,-112.5 609.44,-114.42 615.09,-116.16 620.83,-117.73"/>
<polygon fill="#757575" stroke="#757575" points="619.96,-121.12 630.51,-120.19 621.68,-114.34 619.96,-121.12"/>
</g>
<!-- components/UI/Avatar/Avatar.tsx -->
<g id="node7" class="node">
<title>components/UI/Avatar/Avatar.tsx</title>
<path fill="none" stroke="#cfffac" d="M823.83,-103C823.83,-103 617.17,-103 617.17,-103 613.33,-103 609.5,-99.17 609.5,-95.33 609.5,-95.33 609.5,-87.67 609.5,-87.67 609.5,-83.83 613.33,-80 617.17,-80 617.17,-80 823.83,-80 823.83,-80 827.67,-80 831.5,-83.83 831.5,-87.67 831.5,-87.67 831.5,-95.33 831.5,-95.33 831.5,-99.17 827.67,-103 823.83,-103"/>
<text text-anchor="middle" x="720.5" y="-87.8" font-family="Arial" font-size="14.00" fill="#cfffac">components/UI/Avatar/Avatar.tsx</text>
</g>
<!-- components/ToolBar/ToolBar.tsx&#45;&gt;components/UI/Avatar/Avatar.tsx -->
<g id="edge4" class="edge">
<title>components/ToolBar/ToolBar.tsx&#45;&gt;components/UI/Avatar/Avatar.tsx</title>
<path fill="none" stroke="#757575" d="M564.18,-79.87C575.33,-80.7 586.69,-81.55 597.93,-82.39"/>
<polygon fill="#757575" stroke="#757575" points="597.38,-85.86 607.61,-83.12 597.9,-78.88 597.38,-85.86"/>
</g>
<!-- components/UI/IconButton/IconButton.tsx -->
<g id="node8" class="node">
<title>components/UI/IconButton/IconButton.tsx</title>
<path fill="none" stroke="#cfffac" d="M1161.83,-43C1161.83,-43 898.17,-43 898.17,-43 894.33,-43 890.5,-39.17 890.5,-35.33 890.5,-35.33 890.5,-27.67 890.5,-27.67 890.5,-23.83 894.33,-20 898.17,-20 898.17,-20 1161.83,-20 1161.83,-20 1165.67,-20 1169.5,-23.83 1169.5,-27.67 1169.5,-27.67 1169.5,-35.33 1169.5,-35.33 1169.5,-39.17 1165.67,-43 1161.83,-43"/>
<text text-anchor="middle" x="1030" y="-27.8" font-family="Arial" font-size="14.00" fill="#cfffac">components/UI/IconButton/IconButton.tsx</text>
</g>
<!-- components/ToolBar/ToolBar.tsx&#45;&gt;components/UI/IconButton/IconButton.tsx -->
<g id="edge5" class="edge">
<title>components/ToolBar/ToolBar.tsx&#45;&gt;components/UI/IconButton/IconButton.tsx</title>
<path fill="none" stroke="#757575" d="M564.34,-63.74C653.96,-57.52 780.55,-48.74 878.97,-41.91"/>
<polygon fill="#757575" stroke="#757575" points="878.98,-45.42 888.71,-41.23 878.49,-38.43 878.98,-45.42"/>
</g>
<!-- components/UI/Search/Search.tsx -->
<g id="node9" class="node">
<title>components/UI/Search/Search.tsx</title>
<path fill="none" stroke="#c6c5fe" d="M829.33,-23C829.33,-23 611.67,-23 611.67,-23 607.83,-23 604,-19.17 604,-15.33 604,-15.33 604,-7.67 604,-7.67 604,-3.83 607.83,0 611.67,0 611.67,0 829.33,0 829.33,0 833.17,0 837,-3.83 837,-7.67 837,-7.67 837,-15.33 837,-15.33 837,-19.17 833.17,-23 829.33,-23"/>
<text text-anchor="middle" x="720.5" y="-7.8" font-family="Arial" font-size="14.00" fill="#c6c5fe">components/UI/Search/Search.tsx</text>
</g>
<!-- components/ToolBar/ToolBar.tsx&#45;&gt;components/UI/Search/Search.tsx -->
<g id="edge6" class="edge">
<title>components/ToolBar/ToolBar.tsx&#45;&gt;components/UI/Search/Search.tsx</title>
<path fill="none" stroke="#757575" d="M528.7,-59.51C541.89,-56.9 555.41,-53.89 568,-50.5 584.43,-46.07 587.67,-42.27 604,-37.5 618.31,-33.32 633.78,-29.43 648.6,-25.99"/>
<polygon fill="#757575" stroke="#757575" points="649.33,-29.41 658.31,-23.78 647.78,-22.59 649.33,-29.41"/>
</g>
<!-- components/UI/Search/Search.tsx&#45;&gt;components/UI/IconButton/IconButton.tsx -->
<g id="edge7" class="edge">
<title>components/UI/Search/Search.tsx&#45;&gt;components/UI/IconButton/IconButton.tsx</title>
<path fill="none" stroke="#757575" d="M837.31,-19.03C850.95,-19.92 865.01,-20.83 879.03,-21.75"/>
<polygon fill="#757575" stroke="#757575" points="878.53,-25.22 888.74,-22.38 878.99,-18.24 878.53,-25.22"/>
</g>
<!-- containers/Container/Container.tsx -->
<g id="node10" class="node">
<title>containers/Container/Container.tsx</title>
<path fill="none" stroke="#cfffac" d="M560.33,-42C560.33,-42 342.67,-42 342.67,-42 338.83,-42 335,-38.17 335,-34.33 335,-34.33 335,-26.67 335,-26.67 335,-22.83 338.83,-19 342.67,-19 342.67,-19 560.33,-19 560.33,-19 564.17,-19 568,-22.83 568,-26.67 568,-26.67 568,-34.33 568,-34.33 568,-38.17 564.17,-42 560.33,-42"/>
<text text-anchor="middle" x="451.5" y="-26.8" font-family="Arial" font-size="14.00" fill="#cfffac">containers/Container/Container.tsx</text>
</g>
<!-- containers/Layout/Layout.tsx -->
<g id="node11" class="node">
<title>containers/Layout/Layout.tsx</title>
<path fill="none" stroke="#c6c5fe" d="M291.33,-103C291.33,-103 111.67,-103 111.67,-103 107.83,-103 104,-99.17 104,-95.33 104,-95.33 104,-87.67 104,-87.67 104,-83.83 107.83,-80 111.67,-80 111.67,-80 291.33,-80 291.33,-80 295.17,-80 299,-83.83 299,-87.67 299,-87.67 299,-95.33 299,-95.33 299,-99.17 295.17,-103 291.33,-103"/>
<text text-anchor="middle" x="201.5" y="-87.8" font-family="Arial" font-size="14.00" fill="#c6c5fe">containers/Layout/Layout.tsx</text>
</g>
<!-- containers/Layout/Layout.tsx&#45;&gt;components/Plug/Plug.tsx -->
<g id="edge8" class="edge">
<title>containers/Layout/Layout.tsx&#45;&gt;components/Plug/Plug.tsx</title>
<path fill="none" stroke="#757575" d="M299.45,-99.71C315.67,-101.08 332.55,-102.51 348.89,-103.9"/>
<polygon fill="#757575" stroke="#757575" points="348.33,-107.36 358.59,-104.72 348.92,-100.39 348.33,-107.36"/>
</g>
<!-- containers/Layout/Layout.tsx&#45;&gt;components/ToolBar/ToolBar.tsx -->
<g id="edge9" class="edge">
<title>containers/Layout/Layout.tsx&#45;&gt;components/ToolBar/ToolBar.tsx</title>
<path fill="none" stroke="#757575" d="M299.45,-83.68C308.62,-82.94 318.01,-82.18 327.38,-81.43"/>
<polygon fill="#757575" stroke="#757575" points="327.61,-84.92 337.29,-80.63 327.05,-77.94 327.61,-84.92"/>
</g>
<!-- containers/Layout/Layout.tsx&#45;&gt;containers/Container/Container.tsx -->
<g id="edge10" class="edge">
<title>containers/Layout/Layout.tsx&#45;&gt;containers/Container/Container.tsx</title>
<path fill="none" stroke="#757575" d="M236.76,-79.57C263.31,-70.64 301.17,-58.63 335,-50.5 343.72,-48.4 352.86,-46.44 362.02,-44.62"/>
<polygon fill="#757575" stroke="#757575" points="362.53,-48.08 371.69,-42.76 361.21,-41.21 362.53,-48.08"/>
</g>
<!-- main.tsx -->
<g id="node12" class="node">
<title>main.tsx</title>
<path fill="none" stroke="#c6c5fe" d="M60.33,-123C60.33,-123 7.67,-123 7.67,-123 3.83,-123 0,-119.17 0,-115.33 0,-115.33 0,-107.67 0,-107.67 0,-103.83 3.83,-100 7.67,-100 7.67,-100 60.33,-100 60.33,-100 64.17,-100 68,-103.83 68,-107.67 68,-107.67 68,-115.33 68,-115.33 68,-119.17 64.17,-123 60.33,-123"/>
<text text-anchor="middle" x="34" y="-107.8" font-family="Arial" font-size="14.00" fill="#c6c5fe">main.tsx</text>
</g>
<!-- main.tsx&#45;&gt;App.tsx -->
<g id="edge11" class="edge">
<title>main.tsx&#45;&gt;App.tsx</title>
<path fill="none" stroke="#757575" d="M68.49,-117.77C94.23,-122.59 129.95,-129.29 157.75,-134.49"/>
<polygon fill="#757575" stroke="#757575" points="156.78,-137.87 167.26,-136.27 158.07,-130.99 156.78,-137.87"/>
</g>
<!-- main.tsx&#45;&gt;containers/Layout/Layout.tsx -->
<g id="edge12" class="edge">
<title>main.tsx&#45;&gt;containers/Layout/Layout.tsx</title>
<path fill="none" stroke="#757575" d="M68.49,-107.45C75.78,-106.57 83.87,-105.59 92.36,-104.57"/>
<polygon fill="#757575" stroke="#757575" points="92.7,-108.05 102.21,-103.38 91.86,-101.1 92.7,-108.05"/>
</g>
</g>
</svg>
