<?xml version="1.0" encoding="UTF-8" standalone="no"?>
<!DOCTYPE svg PUBLIC "-//W3C//DTD SVG 1.1//EN"
 "http://www.w3.org/Graphics/SVG/1.1/DTD/svg11.dtd">
<!-- Generated by graphviz version 7.0.2 (20221119.0110)
 -->
<!-- Title: G Pages: 1 -->
<svg width="212pt" height="66pt"
 viewBox="0.00 0.00 212.20 66.20" xmlns="http://www.w3.org/2000/svg" xmlns:xlink="http://www.w3.org/1999/xlink">
<g id="graph0" class="graph" transform="scale(1 1) rotate(0) translate(21.6 44.6)">
<title>G</title>
<polygon fill="#111111" stroke="none" points="-21.6,21.6 -21.6,-44.6 190.6,-44.6 190.6,21.6 -21.6,21.6"/>
<!-- App.tsx -->
<g id="node1" class="node">
<title>App.tsx</title>
<path fill="none" stroke="#cfffac" d="M161.33,-23C161.33,-23 111.67,-23 111.67,-23 107.83,-23 104,-19.17 104,-15.33 104,-15.33 104,-7.67 104,-7.67 104,-3.83 107.83,0 111.67,0 111.67,0 161.33,0 161.33,0 165.17,0 169,-3.83 169,-7.67 169,-7.67 169,-15.33 169,-15.33 169,-19.17 165.17,-23 161.33,-23"/>
<text text-anchor="middle" x="136.5" y="-7.8" font-family="Arial" font-size="14.00" fill="#cfffac">App.tsx</text>
</g>
<!-- main.tsx -->
<g id="node2" class="node">
<title>main.tsx</title>
<path fill="none" stroke="#c6c5fe" d="M60.33,-23C60.33,-23 7.67,-23 7.67,-23 3.83,-23 0,-19.17 0,-15.33 0,-15.33 0,-7.67 0,-7.67 0,-3.83 3.83,0 7.67,0 7.67,0 60.33,0 60.33,0 64.17,0 68,-3.83 68,-7.67 68,-7.67 68,-15.33 68,-15.33 68,-19.17 64.17,-23 60.33,-23"/>
<text text-anchor="middle" x="34" y="-7.8" font-family="Arial" font-size="14.00" fill="#c6c5fe">main.tsx</text>
</g>
<!-- main.tsx&#45;&gt;App.tsx -->
<g id="edge1" class="edge">
<title>main.tsx&#45;&gt;App.tsx</title>
<path fill="none" stroke="#757575" d="M68.47,-11.5C76.06,-11.5 84.24,-11.5 92.17,-11.5"/>
<polygon fill="#757575" stroke="#757575" points="92.03,-15 102.03,-11.5 92.03,-8 92.03,-15"/>
</g>
</g>
</svg>
