<?xml version="1.0" encoding="UTF-8" standalone="no"?>
<!DOCTYPE svg PUBLIC "-//W3C//DTD SVG 1.1//EN"
 "http://www.w3.org/Graphics/SVG/1.1/DTD/svg11.dtd">
<!-- Generated by graphviz version 7.0.2 (20221119.0110)
 -->
<!-- Title: G Pages: 1 -->
<svg width="1240pt" height="189pt"
 viewBox="0.00 0.00 1240.20 189.20" xmlns="http://www.w3.org/2000/svg" xmlns:xlink="http://www.w3.org/1999/xlink">
<g id="graph0" class="graph" transform="scale(1 1) rotate(0) translate(21.6 167.6)">
<title>G</title>
<polygon fill="#111111" stroke="none" points="-21.6,21.6 -21.6,-167.6 1218.6,-167.6 1218.6,21.6 -21.6,21.6"/>
<!-- App.tsx -->
<g id="node1" class="node">
<title>App.tsx</title>
<path fill="none" stroke="#c6c5fe" d="M226.33,-135C226.33,-135 176.67,-135 176.67,-135 172.83,-135 169,-131.17 169,-127.33 169,-127.33 169,-119.67 169,-119.67 169,-115.83 172.83,-112 176.67,-112 176.67,-112 226.33,-112 226.33,-112 230.17,-112 234,-115.83 234,-119.67 234,-119.67 234,-127.33 234,-127.33 234,-131.17 230.17,-135 226.33,-135"/>
<text text-anchor="middle" x="201.5" y="-119.8" font-family="Arial" font-size="14.00" fill="#c6c5fe">App.tsx</text>
</g>
<!-- components/Todo/Todo.tsx -->
<g id="node2" class="node">
<title>components/Todo/Todo.tsx</title>
<path fill="none" stroke="#cfffac" d="M539.83,-146C539.83,-146 363.17,-146 363.17,-146 359.33,-146 355.5,-142.17 355.5,-138.33 355.5,-138.33 355.5,-130.67 355.5,-130.67 355.5,-126.83 359.33,-123 363.17,-123 363.17,-123 539.83,-123 539.83,-123 543.67,-123 547.5,-126.83 547.5,-130.67 547.5,-130.67 547.5,-138.33 547.5,-138.33 547.5,-142.17 543.67,-146 539.83,-146"/>
<text text-anchor="middle" x="451.5" y="-130.8" font-family="Arial" font-size="14.00" fill="#cfffac">components/Todo/Todo.tsx</text>
</g>
<!-- App.tsx&#45;&gt;components/Todo/Todo.tsx -->
<g id="edge1" class="edge">
<title>App.tsx&#45;&gt;components/Todo/Todo.tsx</title>
<path fill="none" stroke="#757575" d="M234.41,-124.92C262.22,-126.15 304.17,-128.01 343.73,-129.76"/>
<polygon fill="#757575" stroke="#757575" points="343.43,-133.25 353.58,-130.2 343.74,-126.26 343.43,-133.25"/>
</g>
<!-- components/Avatar/Avatar.tsx -->
<g id="node3" class="node">
<title>components/Avatar/Avatar.tsx</title>
<path fill="none" stroke="#cfffac" d="M828.83,-105C828.83,-105 640.17,-105 640.17,-105 636.33,-105 632.5,-101.17 632.5,-97.33 632.5,-97.33 632.5,-89.67 632.5,-89.67 632.5,-85.83 636.33,-82 640.17,-82 640.17,-82 828.83,-82 828.83,-82 832.67,-82 836.5,-85.83 836.5,-89.67 836.5,-89.67 836.5,-97.33 836.5,-97.33 836.5,-101.17 832.67,-105 828.83,-105"/>
<text text-anchor="middle" x="734.5" y="-89.8" font-family="Arial" font-size="14.00" fill="#cfffac">components/Avatar/Avatar.tsx</text>
</g>
<!-- components/IconButton/IconButton.tsx -->
<g id="node4" class="node">
<title>components/IconButton/IconButton.tsx</title>
<path fill="none" stroke="#cfffac" d="M857.33,-64C857.33,-64 611.67,-64 611.67,-64 607.83,-64 604,-60.17 604,-56.33 604,-56.33 604,-48.67 604,-48.67 604,-44.83 607.83,-41 611.67,-41 611.67,-41 857.33,-41 857.33,-41 861.17,-41 865,-44.83 865,-48.67 865,-48.67 865,-56.33 865,-56.33 865,-60.17 861.17,-64 857.33,-64"/>
<text text-anchor="middle" x="734.5" y="-48.8" font-family="Arial" font-size="14.00" fill="#cfffac">components/IconButton/IconButton.tsx</text>
</g>
<!-- components/Logo/Logo.tsx -->
<g id="node5" class="node">
<title>components/Logo/Logo.tsx</title>
<path fill="none" stroke="#c6c5fe" d="M822.33,-23C822.33,-23 646.67,-23 646.67,-23 642.83,-23 639,-19.17 639,-15.33 639,-15.33 639,-7.67 639,-7.67 639,-3.83 642.83,0 646.67,0 646.67,0 822.33,0 822.33,0 826.17,0 830,-3.83 830,-7.67 830,-7.67 830,-15.33 830,-15.33 830,-19.17 826.17,-23 822.33,-23"/>
<text text-anchor="middle" x="734.5" y="-7.8" font-family="Arial" font-size="14.00" fill="#c6c5fe">components/Logo/Logo.tsx</text>
</g>
<!-- components/SvgContainer/SvgContainer.tsx -->
<g id="node6" class="node">
<title>components/SvgContainer/SvgContainer.tsx</title>
<path fill="none" stroke="#cfffac" d="M1189.33,-23C1189.33,-23 908.67,-23 908.67,-23 904.83,-23 901,-19.17 901,-15.33 901,-15.33 901,-7.67 901,-7.67 901,-3.83 904.83,0 908.67,0 908.67,0 1189.33,0 1189.33,0 1193.17,0 1197,-3.83 1197,-7.67 1197,-7.67 1197,-15.33 1197,-15.33 1197,-19.17 1193.17,-23 1189.33,-23"/>
<text text-anchor="middle" x="1049" y="-7.8" font-family="Arial" font-size="14.00" fill="#cfffac">components/SvgContainer/SvgContainer.tsx</text>
</g>
<!-- components/Logo/Logo.tsx&#45;&gt;components/SvgContainer/SvgContainer.tsx -->
<g id="edge2" class="edge">
<title>components/Logo/Logo.tsx&#45;&gt;components/SvgContainer/SvgContainer.tsx</title>
<path fill="none" stroke="#757575" d="M830.11,-11.5C848.9,-11.5 869.12,-11.5 889.38,-11.5"/>
<polygon fill="#757575" stroke="#757575" points="889.12,-15 899.12,-11.5 889.12,-8 889.12,-15"/>
</g>
<!-- components/Plug/Plug.tsx -->
<g id="node7" class="node">
<title>components/Plug/Plug.tsx</title>
<path fill="none" stroke="#cfffac" d="M534.83,-105C534.83,-105 368.17,-105 368.17,-105 364.33,-105 360.5,-101.17 360.5,-97.33 360.5,-97.33 360.5,-89.67 360.5,-89.67 360.5,-85.83 364.33,-82 368.17,-82 368.17,-82 534.83,-82 534.83,-82 538.67,-82 542.5,-85.83 542.5,-89.67 542.5,-89.67 542.5,-97.33 542.5,-97.33 542.5,-101.17 538.67,-105 534.83,-105"/>
<text text-anchor="middle" x="451.5" y="-89.8" font-family="Arial" font-size="14.00" fill="#cfffac">components/Plug/Plug.tsx</text>
</g>
<!-- components/ToolBar/ToolBar.tsx -->
<g id="node8" class="node">
<title>components/ToolBar/ToolBar.tsx</title>
<path fill="none" stroke="#c6c5fe" d="M556.33,-64C556.33,-64 346.67,-64 346.67,-64 342.83,-64 339,-60.17 339,-56.33 339,-56.33 339,-48.67 339,-48.67 339,-44.83 342.83,-41 346.67,-41 346.67,-41 556.33,-41 556.33,-41 560.17,-41 564,-44.83 564,-48.67 564,-48.67 564,-56.33 564,-56.33 564,-60.17 560.17,-64 556.33,-64"/>
<text text-anchor="middle" x="451.5" y="-48.8" font-family="Arial" font-size="14.00" fill="#c6c5fe">components/ToolBar/ToolBar.tsx</text>
</g>
<!-- components/ToolBar/ToolBar.tsx&#45;&gt;components/Avatar/Avatar.tsx -->
<g id="edge3" class="edge">
<title>components/ToolBar/ToolBar.tsx&#45;&gt;components/Avatar/Avatar.tsx</title>
<path fill="none" stroke="#757575" d="M534.53,-64.47C567.71,-69.31 606.19,-74.92 640.42,-79.92"/>
<polygon fill="#757575" stroke="#757575" points="639.47,-83.32 649.87,-81.3 640.48,-76.39 639.47,-83.32"/>
</g>
<!-- components/ToolBar/ToolBar.tsx&#45;&gt;components/IconButton/IconButton.tsx -->
<g id="edge4" class="edge">
<title>components/ToolBar/ToolBar.tsx&#45;&gt;components/IconButton/IconButton.tsx</title>
<path fill="none" stroke="#757575" d="M564.37,-52.5C573.61,-52.5 583.04,-52.5 592.46,-52.5"/>
<polygon fill="#757575" stroke="#757575" points="592.43,-56 602.43,-52.5 592.43,-49 592.43,-56"/>
</g>
<!-- components/ToolBar/ToolBar.tsx&#45;&gt;components/Logo/Logo.tsx -->
<g id="edge5" class="edge">
<title>components/ToolBar/ToolBar.tsx&#45;&gt;components/Logo/Logo.tsx</title>
<path fill="none" stroke="#757575" d="M534.53,-40.53C567.71,-35.69 606.19,-30.08 640.42,-25.08"/>
<polygon fill="#757575" stroke="#757575" points="640.48,-28.61 649.87,-23.7 639.47,-21.68 640.48,-28.61"/>
</g>
<!-- containers/Container/Container.tsx -->
<g id="node9" class="node">
<title>containers/Container/Container.tsx</title>
<path fill="none" stroke="#cfffac" d="M560.33,-23C560.33,-23 342.67,-23 342.67,-23 338.83,-23 335,-19.17 335,-15.33 335,-15.33 335,-7.67 335,-7.67 335,-3.83 338.83,0 342.67,0 342.67,0 560.33,0 560.33,0 564.17,0 568,-3.83 568,-7.67 568,-7.67 568,-15.33 568,-15.33 568,-19.17 564.17,-23 560.33,-23"/>
<text text-anchor="middle" x="451.5" y="-7.8" font-family="Arial" font-size="14.00" fill="#cfffac">containers/Container/Container.tsx</text>
</g>
<!-- containers/Layout/Layout.tsx -->
<g id="node10" class="node">
<title>containers/Layout/Layout.tsx</title>
<path fill="none" stroke="#c6c5fe" d="M291.33,-84C291.33,-84 111.67,-84 111.67,-84 107.83,-84 104,-80.17 104,-76.33 104,-76.33 104,-68.67 104,-68.67 104,-64.83 107.83,-61 111.67,-61 111.67,-61 291.33,-61 291.33,-61 295.17,-61 299,-64.83 299,-68.67 299,-68.67 299,-76.33 299,-76.33 299,-80.17 295.17,-84 291.33,-84"/>
<text text-anchor="middle" x="201.5" y="-68.8" font-family="Arial" font-size="14.00" fill="#c6c5fe">containers/Layout/Layout.tsx</text>
</g>
<!-- containers/Layout/Layout.tsx&#45;&gt;components/Plug/Plug.tsx -->
<g id="edge6" class="edge">
<title>containers/Layout/Layout.tsx&#45;&gt;components/Plug/Plug.tsx</title>
<path fill="none" stroke="#757575" d="M299.45,-80.71C315.67,-82.08 332.55,-83.51 348.89,-84.9"/>
<polygon fill="#757575" stroke="#757575" points="348.33,-88.36 358.59,-85.72 348.92,-81.39 348.33,-88.36"/>
</g>
<!-- containers/Layout/Layout.tsx&#45;&gt;components/ToolBar/ToolBar.tsx -->
<g id="edge7" class="edge">
<title>containers/Layout/Layout.tsx&#45;&gt;components/ToolBar/ToolBar.tsx</title>
<path fill="none" stroke="#757575" d="M299.45,-64.68C308.62,-63.94 318.01,-63.18 327.38,-62.43"/>
<polygon fill="#757575" stroke="#757575" points="327.61,-65.92 337.29,-61.63 327.05,-58.94 327.61,-65.92"/>
</g>
<!-- containers/Layout/Layout.tsx&#45;&gt;containers/Container/Container.tsx -->
<g id="edge8" class="edge">
<title>containers/Layout/Layout.tsx&#45;&gt;containers/Container/Container.tsx</title>
<path fill="none" stroke="#757575" d="M238.19,-60.52C264.69,-51.93 301.83,-40.5 335,-32.5 345.15,-30.05 355.86,-27.75 366.5,-25.62"/>
<polygon fill="#757575" stroke="#757575" points="366.9,-29.11 376.05,-23.76 365.56,-22.24 366.9,-29.11"/>
</g>
<!-- main.tsx -->
<g id="node11" class="node">
<title>main.tsx</title>
<path fill="none" stroke="#c6c5fe" d="M60.33,-104C60.33,-104 7.67,-104 7.67,-104 3.83,-104 0,-100.17 0,-96.33 0,-96.33 0,-88.67 0,-88.67 0,-84.83 3.83,-81 7.67,-81 7.67,-81 60.33,-81 60.33,-81 64.17,-81 68,-84.83 68,-88.67 68,-88.67 68,-96.33 68,-96.33 68,-100.17 64.17,-104 60.33,-104"/>
<text text-anchor="middle" x="34" y="-88.8" font-family="Arial" font-size="14.00" fill="#c6c5fe">main.tsx</text>
</g>
<!-- main.tsx&#45;&gt;App.tsx -->
<g id="edge9" class="edge">
<title>main.tsx&#45;&gt;App.tsx</title>
<path fill="none" stroke="#757575" d="M68.49,-98.77C94.23,-103.59 129.95,-110.29 157.75,-115.49"/>
<polygon fill="#757575" stroke="#757575" points="156.78,-118.87 167.26,-117.27 158.07,-111.99 156.78,-118.87"/>
</g>
<!-- main.tsx&#45;&gt;containers/Layout/Layout.tsx -->
<g id="edge10" class="edge">
<title>main.tsx&#45;&gt;containers/Layout/Layout.tsx</title>
<path fill="none" stroke="#757575" d="M68.49,-88.45C75.78,-87.57 83.87,-86.59 92.36,-85.57"/>
<polygon fill="#757575" stroke="#757575" points="92.7,-89.05 102.21,-84.38 91.86,-82.1 92.7,-89.05"/>
</g>
</g>
</svg>
