<?xml version="1.0" encoding="UTF-8" standalone="no"?>
<!DOCTYPE svg PUBLIC "-//W3C//DTD SVG 1.1//EN"
 "http://www.w3.org/Graphics/SVG/1.1/DTD/svg11.dtd">
<!-- Generated by graphviz version 7.0.2 (20221119.0110)
 -->
<!-- Title: G Pages: 1 -->
<svg width="611pt" height="148pt"
 viewBox="0.00 0.00 611.20 148.20" xmlns="http://www.w3.org/2000/svg" xmlns:xlink="http://www.w3.org/1999/xlink">
<g id="graph0" class="graph" transform="scale(1 1) rotate(0) translate(21.6 126.6)">
<title>G</title>
<polygon fill="#111111" stroke="none" points="-21.6,21.6 -21.6,-126.6 589.6,-126.6 589.6,21.6 -21.6,21.6"/>
<!-- App.tsx -->
<g id="node1" class="node">
<title>App.tsx</title>
<path fill="none" stroke="#c6c5fe" d="M226.33,-105C226.33,-105 176.67,-105 176.67,-105 172.83,-105 169,-101.17 169,-97.33 169,-97.33 169,-89.67 169,-89.67 169,-85.83 172.83,-82 176.67,-82 176.67,-82 226.33,-82 226.33,-82 230.17,-82 234,-85.83 234,-89.67 234,-89.67 234,-97.33 234,-97.33 234,-101.17 230.17,-105 226.33,-105"/>
<text text-anchor="middle" x="201.5" y="-89.8" font-family="Arial" font-size="14.00" fill="#c6c5fe">App.tsx</text>
</g>
<!-- components/Todo/Todo.tsx -->
<g id="node2" class="node">
<title>components/Todo/Todo.tsx</title>
<path fill="none" stroke="#cfffac" d="M539.83,-105C539.83,-105 363.17,-105 363.17,-105 359.33,-105 355.5,-101.17 355.5,-97.33 355.5,-97.33 355.5,-89.67 355.5,-89.67 355.5,-85.83 359.33,-82 363.17,-82 363.17,-82 539.83,-82 539.83,-82 543.67,-82 547.5,-85.83 547.5,-89.67 547.5,-89.67 547.5,-97.33 547.5,-97.33 547.5,-101.17 543.67,-105 539.83,-105"/>
<text text-anchor="middle" x="451.5" y="-89.8" font-family="Arial" font-size="14.00" fill="#cfffac">components/Todo/Todo.tsx</text>
</g>
<!-- App.tsx&#45;&gt;components/Todo/Todo.tsx -->
<g id="edge1" class="edge">
<title>App.tsx&#45;&gt;components/Todo/Todo.tsx</title>
<path fill="none" stroke="#757575" d="M234.41,-93.5C262.22,-93.5 304.17,-93.5 343.73,-93.5"/>
<polygon fill="#757575" stroke="#757575" points="343.58,-97 353.58,-93.5 343.58,-90 343.58,-97"/>
</g>
<!-- components/ToolBar/ToolBar.tsx -->
<g id="node3" class="node">
<title>components/ToolBar/ToolBar.tsx</title>
<path fill="none" stroke="#cfffac" d="M556.33,-64C556.33,-64 346.67,-64 346.67,-64 342.83,-64 339,-60.17 339,-56.33 339,-56.33 339,-48.67 339,-48.67 339,-44.83 342.83,-41 346.67,-41 346.67,-41 556.33,-41 556.33,-41 560.17,-41 564,-44.83 564,-48.67 564,-48.67 564,-56.33 564,-56.33 564,-60.17 560.17,-64 556.33,-64"/>
<text text-anchor="middle" x="451.5" y="-48.8" font-family="Arial" font-size="14.00" fill="#cfffac">components/ToolBar/ToolBar.tsx</text>
</g>
<!-- containers/Container/Container.tsx -->
<g id="node4" class="node">
<title>containers/Container/Container.tsx</title>
<path fill="none" stroke="#cfffac" d="M560.33,-23C560.33,-23 342.67,-23 342.67,-23 338.83,-23 335,-19.17 335,-15.33 335,-15.33 335,-7.67 335,-7.67 335,-3.83 338.83,0 342.67,0 342.67,0 560.33,0 560.33,0 564.17,0 568,-3.83 568,-7.67 568,-7.67 568,-15.33 568,-15.33 568,-19.17 564.17,-23 560.33,-23"/>
<text text-anchor="middle" x="451.5" y="-7.8" font-family="Arial" font-size="14.00" fill="#cfffac">containers/Container/Container.tsx</text>
</g>
<!-- containers/Layout/Layout.tsx -->
<g id="node5" class="node">
<title>containers/Layout/Layout.tsx</title>
<path fill="none" stroke="#c6c5fe" d="M291.33,-64C291.33,-64 111.67,-64 111.67,-64 107.83,-64 104,-60.17 104,-56.33 104,-56.33 104,-48.67 104,-48.67 104,-44.83 107.83,-41 111.67,-41 111.67,-41 291.33,-41 291.33,-41 295.17,-41 299,-44.83 299,-48.67 299,-48.67 299,-56.33 299,-56.33 299,-60.17 295.17,-64 291.33,-64"/>
<text text-anchor="middle" x="201.5" y="-48.8" font-family="Arial" font-size="14.00" fill="#c6c5fe">containers/Layout/Layout.tsx</text>
</g>
<!-- containers/Layout/Layout.tsx&#45;&gt;components/ToolBar/ToolBar.tsx -->
<g id="edge2" class="edge">
<title>containers/Layout/Layout.tsx&#45;&gt;components/ToolBar/ToolBar.tsx</title>
<path fill="none" stroke="#757575" d="M299.45,-52.5C308.62,-52.5 318.01,-52.5 327.38,-52.5"/>
<polygon fill="#757575" stroke="#757575" points="327.29,-56 337.29,-52.5 327.29,-49 327.29,-56"/>
</g>
<!-- containers/Layout/Layout.tsx&#45;&gt;containers/Container/Container.tsx -->
<g id="edge3" class="edge">
<title>containers/Layout/Layout.tsx&#45;&gt;containers/Container/Container.tsx</title>
<path fill="none" stroke="#757575" d="M274.9,-40.53C303.68,-35.77 336.97,-30.27 366.77,-25.34"/>
<polygon fill="#757575" stroke="#757575" points="367.22,-28.82 376.52,-23.73 366.08,-21.91 367.22,-28.82"/>
</g>
<!-- main.tsx -->
<g id="node6" class="node">
<title>main.tsx</title>
<path fill="none" stroke="#c6c5fe" d="M60.33,-84C60.33,-84 7.67,-84 7.67,-84 3.83,-84 0,-80.17 0,-76.33 0,-76.33 0,-68.67 0,-68.67 0,-64.83 3.83,-61 7.67,-61 7.67,-61 60.33,-61 60.33,-61 64.17,-61 68,-64.83 68,-68.67 68,-68.67 68,-76.33 68,-76.33 68,-80.17 64.17,-84 60.33,-84"/>
<text text-anchor="middle" x="34" y="-68.8" font-family="Arial" font-size="14.00" fill="#c6c5fe">main.tsx</text>
</g>
<!-- main.tsx&#45;&gt;App.tsx -->
<g id="edge4" class="edge">
<title>main.tsx&#45;&gt;App.tsx</title>
<path fill="none" stroke="#757575" d="M68.49,-76.75C94.11,-80 129.64,-84.51 157.38,-88.03"/>
<polygon fill="#757575" stroke="#757575" points="156.88,-91.49 167.24,-89.28 157.76,-84.55 156.88,-91.49"/>
</g>
<!-- main.tsx&#45;&gt;containers/Layout/Layout.tsx -->
<g id="edge5" class="edge">
<title>main.tsx&#45;&gt;containers/Layout/Layout.tsx</title>
<path fill="none" stroke="#757575" d="M68.49,-68.45C75.78,-67.57 83.87,-66.59 92.36,-65.57"/>
<polygon fill="#757575" stroke="#757575" points="92.7,-69.05 102.21,-64.38 91.86,-62.1 92.7,-69.05"/>
</g>
</g>
</svg>
