<?xml version="1.0" encoding="UTF-8" standalone="no"?>
<!DOCTYPE svg PUBLIC "-//W3C//DTD SVG 1.1//EN"
 "http://www.w3.org/Graphics/SVG/1.1/DTD/svg11.dtd">
<!-- Generated by graphviz version 7.0.4 (20221203.1631)
 -->
<!-- Title: G Pages: 1 -->
<svg width="2051pt" height="378pt"
 viewBox="0.00 0.00 2051.20 378.20" xmlns="http://www.w3.org/2000/svg" xmlns:xlink="http://www.w3.org/1999/xlink">
<g id="graph0" class="graph" transform="scale(1 1) rotate(0) translate(21.6 356.6)">
<title>G</title>
<polygon fill="#111111" stroke="none" points="-21.6,21.6 -21.6,-356.6 2029.6,-356.6 2029.6,21.6 -21.6,21.6"/>
<!-- App.tsx -->
<g id="node1" class="node">
<title>App.tsx</title>
<path fill="none" stroke="#c6c5fe" d="M161.33,-206C161.33,-206 111.67,-206 111.67,-206 107.83,-206 104,-202.17 104,-198.33 104,-198.33 104,-190.67 104,-190.67 104,-186.83 107.83,-183 111.67,-183 111.67,-183 161.33,-183 161.33,-183 165.17,-183 169,-186.83 169,-190.67 169,-190.67 169,-198.33 169,-198.33 169,-202.17 165.17,-206 161.33,-206"/>
<text text-anchor="middle" x="136.5" y="-190.8" font-family="Arial" font-size="14.00" fill="#c6c5fe">App.tsx</text>
</g>
<!-- components/Todo/Todo.tsx -->
<g id="node2" class="node">
<title>components/Todo/Todo.tsx</title>
<path fill="none" stroke="#cfffac" d="M436.83,-206C436.83,-206 260.17,-206 260.17,-206 256.33,-206 252.5,-202.17 252.5,-198.33 252.5,-198.33 252.5,-190.67 252.5,-190.67 252.5,-186.83 256.33,-183 260.17,-183 260.17,-183 436.83,-183 436.83,-183 440.67,-183 444.5,-186.83 444.5,-190.67 444.5,-190.67 444.5,-198.33 444.5,-198.33 444.5,-202.17 440.67,-206 436.83,-206"/>
<text text-anchor="middle" x="348.5" y="-190.8" font-family="Arial" font-size="14.00" fill="#cfffac">components/Todo/Todo.tsx</text>
</g>
<!-- App.tsx&#45;&gt;components/Todo/Todo.tsx -->
<g id="edge1" class="edge">
<title>App.tsx&#45;&gt;components/Todo/Todo.tsx</title>
<path fill="none" stroke="#757575" d="M169.39,-194.5C188.77,-194.5 214.74,-194.5 240.85,-194.5"/>
<polygon fill="#757575" stroke="#757575" points="240.51,-198 250.51,-194.5 240.51,-191 240.51,-198"/>
</g>
<!-- components/TodoCreator/TodoCreator.tsx -->
<g id="node3" class="node">
<title>components/TodoCreator/TodoCreator.tsx</title>
<path fill="none" stroke="#c6c5fe" d="M484.33,-257C484.33,-257 212.67,-257 212.67,-257 208.83,-257 205,-253.17 205,-249.33 205,-249.33 205,-241.67 205,-241.67 205,-237.83 208.83,-234 212.67,-234 212.67,-234 484.33,-234 484.33,-234 488.17,-234 492,-237.83 492,-241.67 492,-241.67 492,-249.33 492,-249.33 492,-253.17 488.17,-257 484.33,-257"/>
<text text-anchor="middle" x="348.5" y="-241.8" font-family="Arial" font-size="14.00" fill="#c6c5fe">components/TodoCreator/TodoCreator.tsx</text>
</g>
<!-- App.tsx&#45;&gt;components/TodoCreator/TodoCreator.tsx -->
<g id="edge2" class="edge">
<title>App.tsx&#45;&gt;components/TodoCreator/TodoCreator.tsx</title>
<path fill="none" stroke="#757575" d="M169.3,-204.45C180.53,-207.82 193.28,-211.49 205,-214.5 228.18,-220.45 253.68,-226.23 276.61,-231.16"/>
<polygon fill="#757575" stroke="#757575" points="275.65,-234.53 286.16,-233.19 277.11,-227.69 275.65,-234.53"/>
</g>
<!-- components/TodoCreator/TodoCreatorBody/TodoCreatorBody.tsx -->
<g id="node8" class="node">
<title>components/TodoCreator/TodoCreatorBody/TodoCreatorBody.tsx</title>
<path fill="none" stroke="#c6c5fe" d="M957.33,-267C957.33,-267 535.67,-267 535.67,-267 531.83,-267 528,-263.17 528,-259.33 528,-259.33 528,-251.67 528,-251.67 528,-247.83 531.83,-244 535.67,-244 535.67,-244 957.33,-244 957.33,-244 961.17,-244 965,-247.83 965,-251.67 965,-251.67 965,-259.33 965,-259.33 965,-263.17 961.17,-267 957.33,-267"/>
<text text-anchor="middle" x="746.5" y="-251.8" font-family="Arial" font-size="14.00" fill="#c6c5fe">components/TodoCreator/TodoCreatorBody/TodoCreatorBody.tsx</text>
</g>
<!-- components/TodoCreator/TodoCreator.tsx&#45;&gt;components/TodoCreator/TodoCreatorBody/TodoCreatorBody.tsx -->
<g id="edge5" class="edge">
<title>components/TodoCreator/TodoCreator.tsx&#45;&gt;components/TodoCreator/TodoCreatorBody/TodoCreatorBody.tsx</title>
<path fill="none" stroke="#757575" d="M492.47,-249.11C500.3,-249.31 508.25,-249.51 516.28,-249.71"/>
<polygon fill="#757575" stroke="#757575" points="516.06,-253.21 526.15,-249.96 516.24,-246.21 516.06,-253.21"/>
</g>
<!-- components/AuthPopup/AuthPopup.tsx -->
<g id="node4" class="node">
<title>components/AuthPopup/AuthPopup.tsx</title>
<path fill="none" stroke="#c6c5fe" d="M871.83,-187C871.83,-187 621.17,-187 621.17,-187 617.33,-187 613.5,-183.17 613.5,-179.33 613.5,-179.33 613.5,-171.67 613.5,-171.67 613.5,-167.83 617.33,-164 621.17,-164 621.17,-164 871.83,-164 871.83,-164 875.67,-164 879.5,-167.83 879.5,-171.67 879.5,-171.67 879.5,-179.33 879.5,-179.33 879.5,-183.17 875.67,-187 871.83,-187"/>
<text text-anchor="middle" x="746.5" y="-171.8" font-family="Arial" font-size="14.00" fill="#c6c5fe">components/AuthPopup/AuthPopup.tsx</text>
</g>
<!-- components/shared/UI/TooltipButton/TooltipButton.tsx -->
<g id="node5" class="node">
<title>components/shared/UI/TooltipButton/TooltipButton.tsx</title>
<path fill="none" stroke="#cfffac" d="M1439.33,-187C1439.33,-187 1096.67,-187 1096.67,-187 1092.83,-187 1089,-183.17 1089,-179.33 1089,-179.33 1089,-171.67 1089,-171.67 1089,-167.83 1092.83,-164 1096.67,-164 1096.67,-164 1439.33,-164 1439.33,-164 1443.17,-164 1447,-167.83 1447,-171.67 1447,-171.67 1447,-179.33 1447,-179.33 1447,-183.17 1443.17,-187 1439.33,-187"/>
<text text-anchor="middle" x="1268" y="-171.8" font-family="Arial" font-size="14.00" fill="#cfffac">components/shared/UI/TooltipButton/TooltipButton.tsx</text>
</g>
<!-- components/AuthPopup/AuthPopup.tsx&#45;&gt;components/shared/UI/TooltipButton/TooltipButton.tsx -->
<g id="edge3" class="edge">
<title>components/AuthPopup/AuthPopup.tsx&#45;&gt;components/shared/UI/TooltipButton/TooltipButton.tsx</title>
<path fill="none" stroke="#757575" d="M879.94,-175.5C939.9,-175.5 1011.88,-175.5 1077.42,-175.5"/>
<polygon fill="#757575" stroke="#757575" points="1077.22,-179 1087.22,-175.5 1077.22,-172 1077.22,-179"/>
</g>
<!-- components/Logo/Logo.tsx -->
<g id="node6" class="node">
<title>components/Logo/Logo.tsx</title>
<path fill="none" stroke="#c6c5fe" d="M1355.83,-64C1355.83,-64 1180.17,-64 1180.17,-64 1176.33,-64 1172.5,-60.17 1172.5,-56.33 1172.5,-56.33 1172.5,-48.67 1172.5,-48.67 1172.5,-44.83 1176.33,-41 1180.17,-41 1180.17,-41 1355.83,-41 1355.83,-41 1359.67,-41 1363.5,-44.83 1363.5,-48.67 1363.5,-48.67 1363.5,-56.33 1363.5,-56.33 1363.5,-60.17 1359.67,-64 1355.83,-64"/>
<text text-anchor="middle" x="1268" y="-48.8" font-family="Arial" font-size="14.00" fill="#c6c5fe">components/Logo/Logo.tsx</text>
</g>
<!-- components/shared/UI/SvgContainer/SvgContainer.tsx -->
<g id="node7" class="node">
<title>components/shared/UI/SvgContainer/SvgContainer.tsx</title>
<path fill="none" stroke="#cfffac" d="M1962.33,-64C1962.33,-64 1616.67,-64 1616.67,-64 1612.83,-64 1609,-60.17 1609,-56.33 1609,-56.33 1609,-48.67 1609,-48.67 1609,-44.83 1612.83,-41 1616.67,-41 1616.67,-41 1962.33,-41 1962.33,-41 1966.17,-41 1970,-44.83 1970,-48.67 1970,-48.67 1970,-56.33 1970,-56.33 1970,-60.17 1966.17,-64 1962.33,-64"/>
<text text-anchor="middle" x="1789.5" y="-48.8" font-family="Arial" font-size="14.00" fill="#cfffac">components/shared/UI/SvgContainer/SvgContainer.tsx</text>
</g>
<!-- components/Logo/Logo.tsx&#45;&gt;components/shared/UI/SvgContainer/SvgContainer.tsx -->
<g id="edge4" class="edge">
<title>components/Logo/Logo.tsx&#45;&gt;components/shared/UI/SvgContainer/SvgContainer.tsx</title>
<path fill="none" stroke="#757575" d="M1363.98,-52.5C1429.21,-52.5 1518.04,-52.5 1597.59,-52.5"/>
<polygon fill="#757575" stroke="#757575" points="1597.24,-56 1607.24,-52.5 1597.24,-49 1597.24,-56"/>
</g>
<!-- components/TodoCreator/TodoCreatorBody/TodoCreatorList/TodoCreatorList.tsx -->
<g id="node9" class="node">
<title>components/TodoCreator/TodoCreatorBody/TodoCreatorList/TodoCreatorList.tsx</title>
<path fill="none" stroke="#c6c5fe" d="M1527.33,-267C1527.33,-267 1008.67,-267 1008.67,-267 1004.83,-267 1001,-263.17 1001,-259.33 1001,-259.33 1001,-251.67 1001,-251.67 1001,-247.83 1004.83,-244 1008.67,-244 1008.67,-244 1527.33,-244 1527.33,-244 1531.17,-244 1535,-247.83 1535,-251.67 1535,-251.67 1535,-259.33 1535,-259.33 1535,-263.17 1531.17,-267 1527.33,-267"/>
<text text-anchor="middle" x="1268" y="-251.8" font-family="Arial" font-size="14.00" fill="#c6c5fe">components/TodoCreator/TodoCreatorBody/TodoCreatorList/TodoCreatorList.tsx</text>
</g>
<!-- components/TodoCreator/TodoCreatorBody/TodoCreatorBody.tsx&#45;&gt;components/TodoCreator/TodoCreatorBody/TodoCreatorList/TodoCreatorList.tsx -->
<g id="edge6" class="edge">
<title>components/TodoCreator/TodoCreatorBody/TodoCreatorBody.tsx&#45;&gt;components/TodoCreator/TodoCreatorBody/TodoCreatorList/TodoCreatorList.tsx</title>
<path fill="none" stroke="#757575" d="M965.18,-255.5C973.21,-255.5 981.29,-255.5 989.39,-255.5"/>
<polygon fill="#757575" stroke="#757575" points="989.35,-259 999.35,-255.5 989.35,-252 989.35,-259"/>
</g>
<!-- components/shared/UI/IconButton/IconButton.tsx -->
<g id="node10" class="node">
<title>components/shared/UI/IconButton/IconButton.tsx</title>
<path fill="none" stroke="#cfffac" d="M1944.83,-186C1944.83,-186 1634.17,-186 1634.17,-186 1630.33,-186 1626.5,-182.17 1626.5,-178.33 1626.5,-178.33 1626.5,-170.67 1626.5,-170.67 1626.5,-166.83 1630.33,-163 1634.17,-163 1634.17,-163 1944.83,-163 1944.83,-163 1948.67,-163 1952.5,-166.83 1952.5,-170.67 1952.5,-170.67 1952.5,-178.33 1952.5,-178.33 1952.5,-182.17 1948.67,-186 1944.83,-186"/>
<text text-anchor="middle" x="1789.5" y="-170.8" font-family="Arial" font-size="14.00" fill="#cfffac">components/shared/UI/IconButton/IconButton.tsx</text>
</g>
<!-- components/TodoCreator/TodoCreatorBody/TodoCreatorBody.tsx&#45;&gt;components/shared/UI/IconButton/IconButton.tsx -->
<g id="edge7" class="edge">
<title>components/TodoCreator/TodoCreatorBody/TodoCreatorBody.tsx&#45;&gt;components/shared/UI/IconButton/IconButton.tsx</title>
<path fill="none" stroke="#757575" d="M889.27,-243.51C925.68,-240.5 964.79,-237.32 1001,-234.5 1238.25,-216.01 1297.75,-213.99 1535,-195.5 1567.53,-192.96 1602.41,-190.14 1635.56,-187.41"/>
<polygon fill="#757575" stroke="#757575" points="1635.55,-190.92 1645.22,-186.61 1634.97,-183.95 1635.55,-190.92"/>
</g>
<!-- components/shared/UI/RoundedCheckBox/RoundedCheckBox.tsx -->
<g id="node11" class="node">
<title>components/shared/UI/RoundedCheckBox/RoundedCheckBox.tsx</title>
<path fill="none" stroke="#cfffac" d="M2000.33,-276C2000.33,-276 1578.67,-276 1578.67,-276 1574.83,-276 1571,-272.17 1571,-268.33 1571,-268.33 1571,-260.67 1571,-260.67 1571,-256.83 1574.83,-253 1578.67,-253 1578.67,-253 2000.33,-253 2000.33,-253 2004.17,-253 2008,-256.83 2008,-260.67 2008,-260.67 2008,-268.33 2008,-268.33 2008,-272.17 2004.17,-276 2000.33,-276"/>
<text text-anchor="middle" x="1789.5" y="-260.8" font-family="Arial" font-size="14.00" fill="#cfffac">components/shared/UI/RoundedCheckBox/RoundedCheckBox.tsx</text>
</g>
<!-- components/TodoCreator/TodoCreatorBody/TodoCreatorBody.tsx&#45;&gt;components/shared/UI/RoundedCheckBox/RoundedCheckBox.tsx -->
<g id="edge8" class="edge">
<title>components/TodoCreator/TodoCreatorBody/TodoCreatorBody.tsx&#45;&gt;components/shared/UI/RoundedCheckBox/RoundedCheckBox.tsx</title>
<path fill="none" stroke="#757575" d="M874.4,-267.48C914.82,-270.77 959.75,-273.88 1001,-275.5 1238.15,-284.84 1297.72,-280.65 1535,-275.5 1543.02,-275.33 1551.19,-275.12 1559.44,-274.89"/>
<polygon fill="#757575" stroke="#757575" points="1559.32,-278.4 1569.21,-274.6 1559.12,-271.4 1559.32,-278.4"/>
</g>
<!-- components/shared/UI/TextArea/TextArea.tsx -->
<g id="node12" class="node">
<title>components/shared/UI/TextArea/TextArea.tsx</title>
<path fill="none" stroke="#cfffac" d="M1934.33,-335C1934.33,-335 1644.67,-335 1644.67,-335 1640.83,-335 1637,-331.17 1637,-327.33 1637,-327.33 1637,-319.67 1637,-319.67 1637,-315.83 1640.83,-312 1644.67,-312 1644.67,-312 1934.33,-312 1934.33,-312 1938.17,-312 1942,-315.83 1942,-319.67 1942,-319.67 1942,-327.33 1942,-327.33 1942,-331.17 1938.17,-335 1934.33,-335"/>
<text text-anchor="middle" x="1789.5" y="-319.8" font-family="Arial" font-size="14.00" fill="#cfffac">components/shared/UI/TextArea/TextArea.tsx</text>
</g>
<!-- components/TodoCreator/TodoCreatorBody/TodoCreatorBody.tsx&#45;&gt;components/shared/UI/TextArea/TextArea.tsx -->
<g id="edge9" class="edge">
<title>components/TodoCreator/TodoCreatorBody/TodoCreatorBody.tsx&#45;&gt;components/shared/UI/TextArea/TextArea.tsx</title>
<path fill="none" stroke="#757575" d="M815.86,-267.48C866.74,-275.9 938,-286.68 1001,-292.5 1216.38,-312.4 1466.04,-319.54 1625.53,-322.1"/>
<polygon fill="#757575" stroke="#757575" points="1625.29,-325.59 1635.34,-322.25 1625.39,-318.6 1625.29,-325.59"/>
</g>
<!-- components/TodoCreator/TodoCreatorBody/TodoCreatorList/TodoCreatorList.tsx&#45;&gt;components/shared/UI/IconButton/IconButton.tsx -->
<g id="edge10" class="edge">
<title>components/TodoCreator/TodoCreatorBody/TodoCreatorList/TodoCreatorList.tsx&#45;&gt;components/shared/UI/IconButton/IconButton.tsx</title>
<path fill="none" stroke="#757575" d="M1423.06,-243.51C1459.84,-239.8 1498.9,-235.16 1535,-229.5 1602.42,-218.93 1678.85,-201.6 1730,-189.22"/>
<polygon fill="#757575" stroke="#757575" points="1730.8,-192.63 1739.68,-186.86 1729.14,-185.83 1730.8,-192.63"/>
</g>
<!-- components/TodoCreator/TodoCreatorBody/TodoCreatorList/TodoCreatorList.tsx&#45;&gt;components/shared/UI/RoundedCheckBox/RoundedCheckBox.tsx -->
<g id="edge11" class="edge">
<title>components/TodoCreator/TodoCreatorBody/TodoCreatorList/TodoCreatorList.tsx&#45;&gt;components/shared/UI/RoundedCheckBox/RoundedCheckBox.tsx</title>
<path fill="none" stroke="#757575" d="M1535.22,-260.11C1543.27,-260.25 1551.31,-260.39 1559.32,-260.53"/>
<polygon fill="#757575" stroke="#757575" points="1559.03,-264.03 1569.09,-260.7 1559.15,-257.03 1559.03,-264.03"/>
</g>
<!-- components/TodoCreator/TodoCreatorBody/TodoCreatorList/TodoCreatorList.tsx&#45;&gt;components/shared/UI/TextArea/TextArea.tsx -->
<g id="edge12" class="edge">
<title>components/TodoCreator/TodoCreatorBody/TodoCreatorList/TodoCreatorList.tsx&#45;&gt;components/shared/UI/TextArea/TextArea.tsx</title>
<path fill="none" stroke="#757575" d="M1360.38,-267.46C1451.45,-279.38 1591.02,-297.65 1685.86,-310.06"/>
<polygon fill="#757575" stroke="#757575" points="1685.32,-313.52 1695.69,-311.35 1686.23,-306.58 1685.32,-313.52"/>
</g>
<!-- components/ToolBar/ToolBar.tsx -->
<g id="node13" class="node">
<title>components/ToolBar/ToolBar.tsx</title>
<path fill="none" stroke="#c6c5fe" d="M851.33,-105C851.33,-105 641.67,-105 641.67,-105 637.83,-105 634,-101.17 634,-97.33 634,-97.33 634,-89.67 634,-89.67 634,-85.83 637.83,-82 641.67,-82 641.67,-82 851.33,-82 851.33,-82 855.17,-82 859,-85.83 859,-89.67 859,-89.67 859,-97.33 859,-97.33 859,-101.17 855.17,-105 851.33,-105"/>
<text text-anchor="middle" x="746.5" y="-89.8" font-family="Arial" font-size="14.00" fill="#c6c5fe">components/ToolBar/ToolBar.tsx</text>
</g>
<!-- components/ToolBar/ToolBar.tsx&#45;&gt;components/Logo/Logo.tsx -->
<g id="edge13" class="edge">
<title>components/ToolBar/ToolBar.tsx&#45;&gt;components/Logo/Logo.tsx</title>
<path fill="none" stroke="#757575" d="M859.48,-84.04C903.58,-80.36 954.66,-76.16 1001,-72.5 1053.68,-68.34 1112.25,-63.91 1160.99,-60.29"/>
<polygon fill="#757575" stroke="#757575" points="1160.97,-63.8 1170.68,-59.56 1160.45,-56.82 1160.97,-63.8"/>
</g>
<!-- components/shared/Menu/Menu.tsx -->
<g id="node14" class="node">
<title>components/shared/Menu/Menu.tsx</title>
<path fill="none" stroke="#c6c5fe" d="M1380.83,-146C1380.83,-146 1155.17,-146 1155.17,-146 1151.33,-146 1147.5,-142.17 1147.5,-138.33 1147.5,-138.33 1147.5,-130.67 1147.5,-130.67 1147.5,-126.83 1151.33,-123 1155.17,-123 1155.17,-123 1380.83,-123 1380.83,-123 1384.67,-123 1388.5,-126.83 1388.5,-130.67 1388.5,-130.67 1388.5,-138.33 1388.5,-138.33 1388.5,-142.17 1384.67,-146 1380.83,-146"/>
<text text-anchor="middle" x="1268" y="-130.8" font-family="Arial" font-size="14.00" fill="#c6c5fe">components/shared/Menu/Menu.tsx</text>
</g>
<!-- components/ToolBar/ToolBar.tsx&#45;&gt;components/shared/Menu/Menu.tsx -->
<g id="edge14" class="edge">
<title>components/ToolBar/ToolBar.tsx&#45;&gt;components/shared/Menu/Menu.tsx</title>
<path fill="none" stroke="#757575" d="M859.26,-102.32C940.46,-108.73 1050.6,-117.42 1135.95,-124.16"/>
<polygon fill="#757575" stroke="#757575" points="1135.53,-127.64 1145.78,-124.93 1136.08,-120.66 1135.53,-127.64"/>
</g>
<!-- components/shared/Menu/MenuItem/MenuItem.tsx -->
<g id="node15" class="node">
<title>components/shared/Menu/MenuItem/MenuItem.tsx</title>
<path fill="none" stroke="#c6c5fe" d="M1428.33,-23C1428.33,-23 1107.67,-23 1107.67,-23 1103.83,-23 1100,-19.17 1100,-15.33 1100,-15.33 1100,-7.67 1100,-7.67 1100,-3.83 1103.83,0 1107.67,0 1107.67,0 1428.33,0 1428.33,0 1432.17,0 1436,-3.83 1436,-7.67 1436,-7.67 1436,-15.33 1436,-15.33 1436,-19.17 1432.17,-23 1428.33,-23"/>
<text text-anchor="middle" x="1268" y="-7.8" font-family="Arial" font-size="14.00" fill="#c6c5fe">components/shared/Menu/MenuItem/MenuItem.tsx</text>
</g>
<!-- components/ToolBar/ToolBar.tsx&#45;&gt;components/shared/Menu/MenuItem/MenuItem.tsx -->
<g id="edge15" class="edge">
<title>components/ToolBar/ToolBar.tsx&#45;&gt;components/shared/Menu/MenuItem/MenuItem.tsx</title>
<path fill="none" stroke="#757575" d="M859.31,-98.52C894.7,-96.05 932.92,-88.93 965,-72.5 986.58,-61.45 979.3,-42.32 1001,-31.5 1027.85,-18.11 1058.15,-10.21 1088.43,-5.89"/>
<polygon fill="#757575" stroke="#757575" points="1088.61,-9.4 1098.08,-4.65 1087.72,-2.46 1088.61,-9.4"/>
</g>
<!-- components/shared/UI/Search/Search.tsx -->
<g id="node16" class="node">
<title>components/shared/UI/Search/Search.tsx</title>
<path fill="none" stroke="#c6c5fe" d="M1400.33,-105C1400.33,-105 1135.67,-105 1135.67,-105 1131.83,-105 1128,-101.17 1128,-97.33 1128,-97.33 1128,-89.67 1128,-89.67 1128,-85.83 1131.83,-82 1135.67,-82 1135.67,-82 1400.33,-82 1400.33,-82 1404.17,-82 1408,-85.83 1408,-89.67 1408,-89.67 1408,-97.33 1408,-97.33 1408,-101.17 1404.17,-105 1400.33,-105"/>
<text text-anchor="middle" x="1268" y="-89.8" font-family="Arial" font-size="14.00" fill="#c6c5fe">components/shared/UI/Search/Search.tsx</text>
</g>
<!-- components/ToolBar/ToolBar.tsx&#45;&gt;components/shared/UI/Search/Search.tsx -->
<g id="edge16" class="edge">
<title>components/ToolBar/ToolBar.tsx&#45;&gt;components/shared/UI/Search/Search.tsx</title>
<path fill="none" stroke="#757575" d="M859.26,-93.5C934.31,-93.5 1034.09,-93.5 1116.16,-93.5"/>
<polygon fill="#757575" stroke="#757575" points="1116.11,-97 1126.11,-93.5 1116.11,-90 1116.11,-97"/>
</g>
<!-- components/shared/Menu/Menu.tsx&#45;&gt;components/shared/UI/IconButton/IconButton.tsx -->
<g id="edge17" class="edge">
<title>components/shared/Menu/Menu.tsx&#45;&gt;components/shared/UI/IconButton/IconButton.tsx</title>
<path fill="none" stroke="#757575" d="M1388.84,-143.42C1434.58,-146.84 1487.21,-150.82 1535,-154.5 1564.6,-156.78 1596.14,-159.24 1626.55,-161.63"/>
<polygon fill="#757575" stroke="#757575" points="1625.95,-165.1 1636.2,-162.39 1626.5,-158.12 1625.95,-165.1"/>
</g>
<!-- components/shared/Menu/MenuItem/MenuItem.tsx&#45;&gt;components/shared/UI/SvgContainer/SvgContainer.tsx -->
<g id="edge18" class="edge">
<title>components/shared/Menu/MenuItem/MenuItem.tsx&#45;&gt;components/shared/UI/SvgContainer/SvgContainer.tsx</title>
<path fill="none" stroke="#757575" d="M1431.14,-23.49C1465.43,-26.09 1501.41,-28.85 1535,-31.5 1567.33,-34.05 1601.98,-36.87 1634.95,-39.59"/>
<polygon fill="#757575" stroke="#757575" points="1634.3,-43.05 1644.56,-40.38 1634.88,-36.07 1634.3,-43.05"/>
</g>
<!-- components/shared/UI/Search/Search.tsx&#45;&gt;components/shared/UI/SvgContainer/SvgContainer.tsx -->
<g id="edge20" class="edge">
<title>components/shared/UI/Search/Search.tsx&#45;&gt;components/shared/UI/SvgContainer/SvgContainer.tsx</title>
<path fill="none" stroke="#757575" d="M1408.22,-82.51C1475.12,-77.23 1555.72,-70.87 1625.47,-65.37"/>
<polygon fill="#757575" stroke="#757575" points="1625.37,-68.89 1635.06,-64.61 1624.82,-61.91 1625.37,-68.89"/>
</g>
<!-- components/shared/UI/Search/Search.tsx&#45;&gt;components/shared/UI/IconButton/IconButton.tsx -->
<g id="edge19" class="edge">
<title>components/shared/UI/Search/Search.tsx&#45;&gt;components/shared/UI/IconButton/IconButton.tsx</title>
<path fill="none" stroke="#757575" d="M1408.23,-99.72C1449.22,-102.7 1494.05,-107.08 1535,-113.5 1605.68,-124.59 1685.71,-145.23 1736.6,-159.41"/>
<polygon fill="#757575" stroke="#757575" points="1735.6,-162.77 1746.18,-162.1 1737.5,-156.03 1735.6,-162.77"/>
</g>
<!-- components/shared/Plug/Plug.tsx -->
<g id="node17" class="node">
<title>components/shared/Plug/Plug.tsx</title>
<path fill="none" stroke="#cfffac" d="M853.33,-146C853.33,-146 639.67,-146 639.67,-146 635.83,-146 632,-142.17 632,-138.33 632,-138.33 632,-130.67 632,-130.67 632,-126.83 635.83,-123 639.67,-123 639.67,-123 853.33,-123 853.33,-123 857.17,-123 861,-126.83 861,-130.67 861,-130.67 861,-138.33 861,-138.33 861,-142.17 857.17,-146 853.33,-146"/>
<text text-anchor="middle" x="746.5" y="-130.8" font-family="Arial" font-size="14.00" fill="#cfffac">components/shared/Plug/Plug.tsx</text>
</g>
<!-- containers/Container/Container.tsx -->
<g id="node18" class="node">
<title>containers/Container/Container.tsx</title>
<path fill="none" stroke="#cfffac" d="M855.33,-64C855.33,-64 637.67,-64 637.67,-64 633.83,-64 630,-60.17 630,-56.33 630,-56.33 630,-48.67 630,-48.67 630,-44.83 633.83,-41 637.67,-41 637.67,-41 855.33,-41 855.33,-41 859.17,-41 863,-44.83 863,-48.67 863,-48.67 863,-56.33 863,-56.33 863,-60.17 859.17,-64 855.33,-64"/>
<text text-anchor="middle" x="746.5" y="-48.8" font-family="Arial" font-size="14.00" fill="#cfffac">containers/Container/Container.tsx</text>
</g>
<!-- containers/Layout/Layout.tsx -->
<g id="node19" class="node">
<title>containers/Layout/Layout.tsx</title>
<path fill="none" stroke="#c6c5fe" d="M438.33,-146C438.33,-146 258.67,-146 258.67,-146 254.83,-146 251,-142.17 251,-138.33 251,-138.33 251,-130.67 251,-130.67 251,-126.83 254.83,-123 258.67,-123 258.67,-123 438.33,-123 438.33,-123 442.17,-123 446,-126.83 446,-130.67 446,-130.67 446,-138.33 446,-138.33 446,-142.17 442.17,-146 438.33,-146"/>
<text text-anchor="middle" x="348.5" y="-130.8" font-family="Arial" font-size="14.00" fill="#c6c5fe">containers/Layout/Layout.tsx</text>
</g>
<!-- containers/Layout/Layout.tsx&#45;&gt;components/AuthPopup/AuthPopup.tsx -->
<g id="edge21" class="edge">
<title>containers/Layout/Layout.tsx&#45;&gt;components/AuthPopup/AuthPopup.tsx</title>
<path fill="none" stroke="#757575" d="M446.28,-145.62C472.77,-148.59 501.48,-151.73 528,-154.5 553.42,-157.15 580.53,-159.86 606.67,-162.42"/>
<polygon fill="#757575" stroke="#757575" points="606.01,-165.87 616.3,-163.35 606.69,-158.9 606.01,-165.87"/>
</g>
<!-- containers/Layout/Layout.tsx&#45;&gt;components/ToolBar/ToolBar.tsx -->
<g id="edge22" class="edge">
<title>containers/Layout/Layout.tsx&#45;&gt;components/ToolBar/ToolBar.tsx</title>
<path fill="none" stroke="#757575" d="M446.26,-122.66C472.75,-119.55 501.47,-116.28 528,-113.5 558.57,-110.3 591.58,-107.12 622.42,-104.27"/>
<polygon fill="#757575" stroke="#757575" points="622.54,-107.77 632.17,-103.37 621.9,-100.8 622.54,-107.77"/>
</g>
<!-- containers/Layout/Layout.tsx&#45;&gt;components/shared/Plug/Plug.tsx -->
<g id="edge23" class="edge">
<title>containers/Layout/Layout.tsx&#45;&gt;components/shared/Plug/Plug.tsx</title>
<path fill="none" stroke="#757575" d="M446.37,-134.5C498.75,-134.5 564.03,-134.5 620.23,-134.5"/>
<polygon fill="#757575" stroke="#757575" points="620.2,-138 630.2,-134.5 620.2,-131 620.2,-138"/>
</g>
<!-- containers/Layout/Layout.tsx&#45;&gt;containers/Container/Container.tsx -->
<g id="edge24" class="edge">
<title>containers/Layout/Layout.tsx&#45;&gt;containers/Container/Container.tsx</title>
<path fill="none" stroke="#757575" d="M377.03,-122.58C411.59,-108.18 473.01,-84.39 528,-72.5 556.92,-66.25 588.42,-61.95 618.24,-58.99"/>
<polygon fill="#757575" stroke="#757575" points="618.44,-62.49 628.06,-58.06 617.78,-55.52 618.44,-62.49"/>
</g>
<!-- main.tsx -->
<g id="node20" class="node">
<title>main.tsx</title>
<path fill="none" stroke="#c6c5fe" d="M60.33,-176C60.33,-176 7.67,-176 7.67,-176 3.83,-176 0,-172.17 0,-168.33 0,-168.33 0,-160.67 0,-160.67 0,-156.83 3.83,-153 7.67,-153 7.67,-153 60.33,-153 60.33,-153 64.17,-153 68,-156.83 68,-160.67 68,-160.67 68,-168.33 68,-168.33 68,-172.17 64.17,-176 60.33,-176"/>
<text text-anchor="middle" x="34" y="-160.8" font-family="Arial" font-size="14.00" fill="#c6c5fe">main.tsx</text>
</g>
<!-- main.tsx&#45;&gt;App.tsx -->
<g id="edge25" class="edge">
<title>main.tsx&#45;&gt;App.tsx</title>
<path fill="none" stroke="#757575" d="M68.47,-174.49C76.24,-176.81 84.62,-179.31 92.73,-181.73"/>
<polygon fill="#757575" stroke="#757575" points="91.51,-185.02 102.09,-184.53 93.51,-178.31 91.51,-185.02"/>
</g>
<!-- main.tsx&#45;&gt;containers/Layout/Layout.tsx -->
<g id="edge26" class="edge">
<title>main.tsx&#45;&gt;containers/Layout/Layout.tsx</title>
<path fill="none" stroke="#757575" d="M68.44,-161.29C108.97,-157.4 179.28,-150.65 239.19,-144.9"/>
<polygon fill="#757575" stroke="#757575" points="239.5,-148.38 249.12,-143.94 238.83,-141.42 239.5,-148.38"/>
</g>
</g>
</svg>
