<?xml version="1.0" encoding="UTF-8" standalone="no"?>
<!DOCTYPE svg PUBLIC "-//W3C//DTD SVG 1.1//EN"
 "http://www.w3.org/Graphics/SVG/1.1/DTD/svg11.dtd">
<!-- Generated by graphviz version 7.0.2 (20221119.0110)
 -->
<!-- Title: G Pages: 1 -->
<svg width="611pt" height="107pt"
 viewBox="0.00 0.00 611.20 107.20" xmlns="http://www.w3.org/2000/svg" xmlns:xlink="http://www.w3.org/1999/xlink">
<g id="graph0" class="graph" transform="scale(1 1) rotate(0) translate(21.6 85.6)">
<title>G</title>
<polygon fill="#111111" stroke="none" points="-21.6,21.6 -21.6,-85.6 589.6,-85.6 589.6,21.6 -21.6,21.6"/>
<!-- App.tsx -->
<g id="node1" class="node">
<title>App.tsx</title>
<path fill="none" stroke="#c6c5fe" d="M226.33,-64C226.33,-64 176.67,-64 176.67,-64 172.83,-64 169,-60.17 169,-56.33 169,-56.33 169,-48.67 169,-48.67 169,-44.83 172.83,-41 176.67,-41 176.67,-41 226.33,-41 226.33,-41 230.17,-41 234,-44.83 234,-48.67 234,-48.67 234,-56.33 234,-56.33 234,-60.17 230.17,-64 226.33,-64"/>
<text text-anchor="middle" x="201.5" y="-48.8" font-family="Arial" font-size="14.00" fill="#c6c5fe">App.tsx</text>
</g>
<!-- components/Todo/Todo.tsx -->
<g id="node2" class="node">
<title>components/Todo/Todo.tsx</title>
<path fill="none" stroke="#cfffac" d="M539.83,-64C539.83,-64 363.17,-64 363.17,-64 359.33,-64 355.5,-60.17 355.5,-56.33 355.5,-56.33 355.5,-48.67 355.5,-48.67 355.5,-44.83 359.33,-41 363.17,-41 363.17,-41 539.83,-41 539.83,-41 543.67,-41 547.5,-44.83 547.5,-48.67 547.5,-48.67 547.5,-56.33 547.5,-56.33 547.5,-60.17 543.67,-64 539.83,-64"/>
<text text-anchor="middle" x="451.5" y="-48.8" font-family="Arial" font-size="14.00" fill="#cfffac">components/Todo/Todo.tsx</text>
</g>
<!-- App.tsx&#45;&gt;components/Todo/Todo.tsx -->
<g id="edge1" class="edge">
<title>App.tsx&#45;&gt;components/Todo/Todo.tsx</title>
<path fill="none" stroke="#757575" d="M234.41,-52.5C262.22,-52.5 304.17,-52.5 343.73,-52.5"/>
<polygon fill="#757575" stroke="#757575" points="343.58,-56 353.58,-52.5 343.58,-49 343.58,-56"/>
</g>
<!-- containers/Container/Container.tsx -->
<g id="node3" class="node">
<title>containers/Container/Container.tsx</title>
<path fill="none" stroke="#cfffac" d="M560.33,-23C560.33,-23 342.67,-23 342.67,-23 338.83,-23 335,-19.17 335,-15.33 335,-15.33 335,-7.67 335,-7.67 335,-3.83 338.83,0 342.67,0 342.67,0 560.33,0 560.33,0 564.17,0 568,-3.83 568,-7.67 568,-7.67 568,-15.33 568,-15.33 568,-19.17 564.17,-23 560.33,-23"/>
<text text-anchor="middle" x="451.5" y="-7.8" font-family="Arial" font-size="14.00" fill="#cfffac">containers/Container/Container.tsx</text>
</g>
<!-- containers/Layout/Layout.tsx -->
<g id="node4" class="node">
<title>containers/Layout/Layout.tsx</title>
<path fill="none" stroke="#c6c5fe" d="M291.33,-23C291.33,-23 111.67,-23 111.67,-23 107.83,-23 104,-19.17 104,-15.33 104,-15.33 104,-7.67 104,-7.67 104,-3.83 107.83,0 111.67,0 111.67,0 291.33,0 291.33,0 295.17,0 299,-3.83 299,-7.67 299,-7.67 299,-15.33 299,-15.33 299,-19.17 295.17,-23 291.33,-23"/>
<text text-anchor="middle" x="201.5" y="-7.8" font-family="Arial" font-size="14.00" fill="#c6c5fe">containers/Layout/Layout.tsx</text>
</g>
<!-- containers/Layout/Layout.tsx&#45;&gt;containers/Container/Container.tsx -->
<g id="edge2" class="edge">
<title>containers/Layout/Layout.tsx&#45;&gt;containers/Container/Container.tsx</title>
<path fill="none" stroke="#757575" d="M299.45,-11.5C307.3,-11.5 315.3,-11.5 323.32,-11.5"/>
<polygon fill="#757575" stroke="#757575" points="323.14,-15 333.14,-11.5 323.14,-8 323.14,-15"/>
</g>
<!-- main.tsx -->
<g id="node5" class="node">
<title>main.tsx</title>
<path fill="none" stroke="#c6c5fe" d="M60.33,-43C60.33,-43 7.67,-43 7.67,-43 3.83,-43 0,-39.17 0,-35.33 0,-35.33 0,-27.67 0,-27.67 0,-23.83 3.83,-20 7.67,-20 7.67,-20 60.33,-20 60.33,-20 64.17,-20 68,-23.83 68,-27.67 68,-27.67 68,-35.33 68,-35.33 68,-39.17 64.17,-43 60.33,-43"/>
<text text-anchor="middle" x="34" y="-27.8" font-family="Arial" font-size="14.00" fill="#c6c5fe">main.tsx</text>
</g>
<!-- main.tsx&#45;&gt;App.tsx -->
<g id="edge3" class="edge">
<title>main.tsx&#45;&gt;App.tsx</title>
<path fill="none" stroke="#757575" d="M68.49,-35.75C94.11,-39 129.64,-43.51 157.38,-47.03"/>
<polygon fill="#757575" stroke="#757575" points="156.88,-50.49 167.24,-48.28 157.76,-43.55 156.88,-50.49"/>
</g>
<!-- main.tsx&#45;&gt;containers/Layout/Layout.tsx -->
<g id="edge4" class="edge">
<title>main.tsx&#45;&gt;containers/Layout/Layout.tsx</title>
<path fill="none" stroke="#757575" d="M68.49,-27.45C75.78,-26.57 83.87,-25.59 92.36,-24.57"/>
<polygon fill="#757575" stroke="#757575" points="92.7,-28.05 102.21,-23.38 91.86,-21.1 92.7,-28.05"/>
</g>
</g>
</svg>
