<?xml version="1.0" encoding="UTF-8" standalone="no"?>
<!DOCTYPE svg PUBLIC "-//W3C//DTD SVG 1.1//EN"
 "http://www.w3.org/Graphics/SVG/1.1/DTD/svg11.dtd">
<!-- Generated by graphviz version 7.0.2 (20221119.0110)
 -->
<!-- Title: G Pages: 1 -->
<svg width="1724pt" height="812pt"
 viewBox="0.00 0.00 1724.20 811.74" xmlns="http://www.w3.org/2000/svg" xmlns:xlink="http://www.w3.org/1999/xlink">
<g id="graph0" class="graph" transform="scale(1 1) rotate(0) translate(21.6 790.14)">
<title>G</title>
<polygon fill="#111111" stroke="none" points="-21.6,21.6 -21.6,-790.14 1702.6,-790.14 1702.6,21.6 -21.6,21.6"/>
<!-- app.ts -->
<g id="node1" class="node">
<title>app.ts</title>
<path fill="none" stroke="#c6c5fe" d="M48.33,-586.04C48.33,-586.04 7.67,-586.04 7.67,-586.04 3.83,-586.04 0,-582.21 0,-578.37 0,-578.37 0,-570.71 0,-570.71 0,-566.87 3.83,-563.04 7.67,-563.04 7.67,-563.04 48.33,-563.04 48.33,-563.04 52.17,-563.04 56,-566.87 56,-570.71 56,-570.71 56,-578.37 56,-578.37 56,-582.21 52.17,-586.04 48.33,-586.04"/>
<text text-anchor="middle" x="28" y="-570.84" font-family="Arial" font-size="14.00" fill="#c6c5fe">app.ts</text>
</g>
<!-- env/env.ts -->
<g id="node2" class="node">
<title>env/env.ts</title>
<path fill="none" stroke="#c6c5fe" d="M1394.83,-658.04C1394.83,-658.04 1330.17,-658.04 1330.17,-658.04 1326.33,-658.04 1322.5,-654.21 1322.5,-650.37 1322.5,-650.37 1322.5,-642.71 1322.5,-642.71 1322.5,-638.87 1326.33,-635.04 1330.17,-635.04 1330.17,-635.04 1394.83,-635.04 1394.83,-635.04 1398.67,-635.04 1402.5,-638.87 1402.5,-642.71 1402.5,-642.71 1402.5,-650.37 1402.5,-650.37 1402.5,-654.21 1398.67,-658.04 1394.83,-658.04"/>
<text text-anchor="middle" x="1362.5" y="-642.84" font-family="Arial" font-size="14.00" fill="#c6c5fe">env/env.ts</text>
</g>
<!-- app.ts&#45;&gt;env/env.ts -->
<g id="edge1" class="edge">
<title>app.ts&#45;&gt;env/env.ts</title>
<path fill="none" stroke="#757575" d="M35.45,-586.43C45.33,-603.49 65.85,-634.73 92,-651.54 247.61,-751.57 309.51,-757.54 494.5,-757.54 494.5,-757.54 494.5,-757.54 790.5,-757.54 975.8,-757.54 1029.5,-791.77 1207,-738.54 1258.04,-723.23 1309.71,-687.43 1338.47,-665.28"/>
<polygon fill="#757575" stroke="#757575" points="1340.42,-668.2 1346.13,-659.27 1336.1,-662.69 1340.42,-668.2"/>
</g>
<!-- middleware/auth&#45;middleware.ts -->
<g id="node3" class="node">
<title>middleware/auth&#45;middleware.ts</title>
<path fill="none" stroke="#c6c5fe" d="M887.83,-647.04C887.83,-647.04 691.17,-647.04 691.17,-647.04 687.33,-647.04 683.5,-643.21 683.5,-639.37 683.5,-639.37 683.5,-631.71 683.5,-631.71 683.5,-627.87 687.33,-624.04 691.17,-624.04 691.17,-624.04 887.83,-624.04 887.83,-624.04 891.67,-624.04 895.5,-627.87 895.5,-631.71 895.5,-631.71 895.5,-639.37 895.5,-639.37 895.5,-643.21 891.67,-647.04 887.83,-647.04"/>
<text text-anchor="middle" x="789.5" y="-631.84" font-family="Arial" font-size="14.00" fill="#c6c5fe">middleware/auth&#45;middleware.ts</text>
</g>
<!-- app.ts&#45;&gt;middleware/auth&#45;middleware.ts -->
<g id="edge2" class="edge">
<title>app.ts&#45;&gt;middleware/auth&#45;middleware.ts</title>
<path fill="none" stroke="#757575" d="M41.85,-586.31C53.83,-596.46 72.71,-610.41 92,-616.54 299.73,-682.54 560.08,-665.05 696.08,-648.89"/>
<polygon fill="#757575" stroke="#757575" points="696.24,-652.4 705.74,-647.72 695.4,-645.45 696.24,-652.4"/>
</g>
<!-- middleware/catchError&#45;middleware.ts -->
<g id="node4" class="node">
<title>middleware/catchError&#45;middleware.ts</title>
<path fill="none" stroke="#c6c5fe" d="M335.33,-607.04C335.33,-607.04 99.67,-607.04 99.67,-607.04 95.83,-607.04 92,-603.21 92,-599.37 92,-599.37 92,-591.71 92,-591.71 92,-587.87 95.83,-584.04 99.67,-584.04 99.67,-584.04 335.33,-584.04 335.33,-584.04 339.17,-584.04 343,-587.87 343,-591.71 343,-591.71 343,-599.37 343,-599.37 343,-603.21 339.17,-607.04 335.33,-607.04"/>
<text text-anchor="middle" x="217.5" y="-591.84" font-family="Arial" font-size="14.00" fill="#c6c5fe">middleware/catchError&#45;middleware.ts</text>
</g>
<!-- app.ts&#45;&gt;middleware/catchError&#45;middleware.ts -->
<g id="edge3" class="edge">
<title>app.ts&#45;&gt;middleware/catchError&#45;middleware.ts</title>
<path fill="none" stroke="#757575" d="M56.26,-577.59C67.95,-578.9 82.48,-580.53 97.98,-582.27"/>
<polygon fill="#757575" stroke="#757575" points="97.58,-585.74 107.91,-583.38 98.36,-578.79 97.58,-585.74"/>
</g>
<!-- routers/auth&#45;router.ts -->
<g id="node5" class="node">
<title>routers/auth&#45;router.ts</title>
<path fill="none" stroke="#c6c5fe" d="M283.33,-566.04C283.33,-566.04 151.67,-566.04 151.67,-566.04 147.83,-566.04 144,-562.21 144,-558.37 144,-558.37 144,-550.71 144,-550.71 144,-546.87 147.83,-543.04 151.67,-543.04 151.67,-543.04 283.33,-543.04 283.33,-543.04 287.17,-543.04 291,-546.87 291,-550.71 291,-550.71 291,-558.37 291,-558.37 291,-562.21 287.17,-566.04 283.33,-566.04"/>
<text text-anchor="middle" x="217.5" y="-550.84" font-family="Arial" font-size="14.00" fill="#c6c5fe">routers/auth&#45;router.ts</text>
</g>
<!-- app.ts&#45;&gt;routers/auth&#45;router.ts -->
<g id="edge4" class="edge">
<title>app.ts&#45;&gt;routers/auth&#45;router.ts</title>
<path fill="none" stroke="#757575" d="M56.26,-571.63C76.44,-569.48 105.08,-566.43 132.57,-563.49"/>
<polygon fill="#757575" stroke="#757575" points="132.77,-566.99 142.35,-562.45 132.03,-560.03 132.77,-566.99"/>
</g>
<!-- routers/todo&#45;router.ts -->
<g id="node6" class="node">
<title>routers/todo&#45;router.ts</title>
<path fill="none" stroke="#c6c5fe" d="M284.33,-405.04C284.33,-405.04 150.67,-405.04 150.67,-405.04 146.83,-405.04 143,-401.21 143,-397.37 143,-397.37 143,-389.71 143,-389.71 143,-385.87 146.83,-382.04 150.67,-382.04 150.67,-382.04 284.33,-382.04 284.33,-382.04 288.17,-382.04 292,-385.87 292,-389.71 292,-389.71 292,-397.37 292,-397.37 292,-401.21 288.17,-405.04 284.33,-405.04"/>
<text text-anchor="middle" x="217.5" y="-389.84" font-family="Arial" font-size="14.00" fill="#c6c5fe">routers/todo&#45;router.ts</text>
</g>
<!-- app.ts&#45;&gt;routers/todo&#45;router.ts -->
<g id="edge5" class="edge">
<title>app.ts&#45;&gt;routers/todo&#45;router.ts</title>
<path fill="none" stroke="#757575" d="M41.3,-562.66C72.96,-532.1 157.49,-450.5 196.39,-412.95"/>
<polygon fill="#757575" stroke="#757575" points="198.54,-415.74 203.31,-406.28 193.68,-410.7 198.54,-415.74"/>
</g>
<!-- utils/filesystem/paths.ts -->
<g id="node7" class="node">
<title>utils/filesystem/paths.ts</title>
<path fill="none" stroke="#cfffac" d="M1673.33,-345.04C1673.33,-345.04 1525.67,-345.04 1525.67,-345.04 1521.83,-345.04 1518,-341.21 1518,-337.37 1518,-337.37 1518,-329.71 1518,-329.71 1518,-325.87 1521.83,-322.04 1525.67,-322.04 1525.67,-322.04 1673.33,-322.04 1673.33,-322.04 1677.17,-322.04 1681,-325.87 1681,-329.71 1681,-329.71 1681,-337.37 1681,-337.37 1681,-341.21 1677.17,-345.04 1673.33,-345.04"/>
<text text-anchor="middle" x="1599.5" y="-329.84" font-family="Arial" font-size="14.00" fill="#cfffac">utils/filesystem/paths.ts</text>
</g>
<!-- app.ts&#45;&gt;utils/filesystem/paths.ts -->
<g id="edge6" class="edge">
<title>app.ts&#45;&gt;utils/filesystem/paths.ts</title>
<path fill="none" stroke="#757575" d="M30.38,-562.68C34.66,-530.01 49.99,-436.95 92,-373.54 221.65,-177.84 259.75,-31.54 494.5,-31.54 494.5,-31.54 494.5,-31.54 1088,-31.54 1263.31,-31.54 1338.73,50.5 1482,-50.54 1570.22,-112.76 1591.79,-254.47 1596.93,-310.31"/>
<polygon fill="#757575" stroke="#757575" points="1593.44,-310.52 1597.74,-320.21 1600.42,-309.96 1593.44,-310.52"/>
</g>
<!-- env/env.ts&#45;&gt;utils/filesystem/paths.ts -->
<g id="edge17" class="edge">
<title>env/env.ts&#45;&gt;utils/filesystem/paths.ts</title>
<path fill="none" stroke="#757575" d="M1402.93,-649.23C1428.1,-648.87 1460.01,-644.31 1482,-626.54 1568.68,-556.48 1591.17,-412.53 1596.75,-356.53"/>
<polygon fill="#757575" stroke="#757575" points="1600.21,-357.19 1597.61,-346.92 1593.23,-356.57 1600.21,-357.19"/>
</g>
<!-- services/auth/token&#45;service.ts -->
<g id="node21" class="node">
<title>services/auth/token&#45;service.ts</title>
<path fill="none" stroke="#c6c5fe" d="M1180.83,-606.04C1180.83,-606.04 993.17,-606.04 993.17,-606.04 989.33,-606.04 985.5,-602.21 985.5,-598.37 985.5,-598.37 985.5,-590.71 985.5,-590.71 985.5,-586.87 989.33,-583.04 993.17,-583.04 993.17,-583.04 1180.83,-583.04 1180.83,-583.04 1184.67,-583.04 1188.5,-586.87 1188.5,-590.71 1188.5,-590.71 1188.5,-598.37 1188.5,-598.37 1188.5,-602.21 1184.67,-606.04 1180.83,-606.04"/>
<text text-anchor="middle" x="1087" y="-590.84" font-family="Arial" font-size="14.00" fill="#c6c5fe">services/auth/token&#45;service.ts</text>
</g>
<!-- middleware/auth&#45;middleware.ts&#45;&gt;services/auth/token&#45;service.ts -->
<g id="edge18" class="edge">
<title>middleware/auth&#45;middleware.ts&#45;&gt;services/auth/token&#45;service.ts</title>
<path fill="none" stroke="#757575" d="M876.77,-623.57C911.81,-618.71 952.47,-613.07 988.58,-608.06"/>
<polygon fill="#757575" stroke="#757575" points="988.7,-611.57 998.13,-606.73 987.74,-604.64 988.7,-611.57"/>
</g>
<!-- types/middleware/IAuthRequest.ts -->
<g id="node22" class="node">
<title>types/middleware/IAuthRequest.ts</title>
<path fill="none" stroke="#c6c5fe" d="M1195.83,-305.04C1195.83,-305.04 978.17,-305.04 978.17,-305.04 974.33,-305.04 970.5,-301.21 970.5,-297.37 970.5,-297.37 970.5,-289.71 970.5,-289.71 970.5,-285.87 974.33,-282.04 978.17,-282.04 978.17,-282.04 1195.83,-282.04 1195.83,-282.04 1199.67,-282.04 1203.5,-285.87 1203.5,-289.71 1203.5,-289.71 1203.5,-297.37 1203.5,-297.37 1203.5,-301.21 1199.67,-305.04 1195.83,-305.04"/>
<text text-anchor="middle" x="1087" y="-289.84" font-family="Arial" font-size="14.00" fill="#c6c5fe">types/middleware/IAuthRequest.ts</text>
</g>
<!-- middleware/auth&#45;middleware.ts&#45;&gt;types/middleware/IAuthRequest.ts -->
<g id="edge19" class="edge">
<title>middleware/auth&#45;middleware.ts&#45;&gt;types/middleware/IAuthRequest.ts</title>
<path fill="none" stroke="#757575" d="M853.57,-623.54C881.4,-615.03 912.02,-600.66 931,-576.54 993.08,-497.64 907.7,-434.55 967,-353.54 982.16,-332.83 1006.53,-318.8 1029.27,-309.55"/>
<polygon fill="#757575" stroke="#757575" points="1030.4,-312.87 1038.5,-306.05 1027.91,-306.33 1030.4,-312.87"/>
</g>
<!-- utils/error/api&#45;error.ts -->
<g id="node23" class="node">
<title>utils/error/api&#45;error.ts</title>
<path fill="none" stroke="#cfffac" d="M1152.83,-495.04C1152.83,-495.04 1021.17,-495.04 1021.17,-495.04 1017.33,-495.04 1013.5,-491.21 1013.5,-487.37 1013.5,-487.37 1013.5,-479.71 1013.5,-479.71 1013.5,-475.87 1017.33,-472.04 1021.17,-472.04 1021.17,-472.04 1152.83,-472.04 1152.83,-472.04 1156.67,-472.04 1160.5,-475.87 1160.5,-479.71 1160.5,-479.71 1160.5,-487.37 1160.5,-487.37 1160.5,-491.21 1156.67,-495.04 1152.83,-495.04"/>
<text text-anchor="middle" x="1087" y="-479.84" font-family="Arial" font-size="14.00" fill="#cfffac">utils/error/api&#45;error.ts</text>
</g>
<!-- middleware/auth&#45;middleware.ts&#45;&gt;utils/error/api&#45;error.ts -->
<g id="edge20" class="edge">
<title>middleware/auth&#45;middleware.ts&#45;&gt;utils/error/api&#45;error.ts</title>
<path fill="none" stroke="#757575" d="M895.68,-628.56C908.52,-624.25 920.72,-618.13 931,-609.54 965.66,-580.6 933.41,-544.71 967,-514.54 977.05,-505.51 989.41,-499.06 1002.31,-494.45"/>
<polygon fill="#757575" stroke="#757575" points="1003.31,-497.8 1011.8,-491.45 1001.21,-491.13 1003.31,-497.8"/>
</g>
<!-- middleware/catchError&#45;middleware.ts&#45;&gt;utils/error/api&#45;error.ts -->
<g id="edge21" class="edge">
<title>middleware/catchError&#45;middleware.ts&#45;&gt;utils/error/api&#45;error.ts</title>
<path fill="none" stroke="#757575" d="M343.48,-598.76C534.45,-602.69 881.99,-605.63 931,-576.54 958.4,-560.28 941.63,-533.82 967,-514.54 977.49,-506.57 989.84,-500.64 1002.54,-496.23"/>
<polygon fill="#757575" stroke="#757575" points="1003.32,-499.65 1011.82,-493.32 1001.23,-492.97 1003.32,-499.65"/>
</g>
<!-- controllers/auth&#45;controller.ts -->
<g id="node8" class="node">
<title>controllers/auth&#45;controller.ts</title>
<path fill="none" stroke="#c6c5fe" d="M583.33,-566.04C583.33,-566.04 407.67,-566.04 407.67,-566.04 403.83,-566.04 400,-562.21 400,-558.37 400,-558.37 400,-550.71 400,-550.71 400,-546.87 403.83,-543.04 407.67,-543.04 407.67,-543.04 583.33,-543.04 583.33,-543.04 587.17,-543.04 591,-546.87 591,-550.71 591,-550.71 591,-558.37 591,-558.37 591,-562.21 587.17,-566.04 583.33,-566.04"/>
<text text-anchor="middle" x="495.5" y="-550.84" font-family="Arial" font-size="14.00" fill="#c6c5fe">controllers/auth&#45;controller.ts</text>
</g>
<!-- routers/auth&#45;router.ts&#45;&gt;controllers/auth&#45;controller.ts -->
<g id="edge31" class="edge">
<title>routers/auth&#45;router.ts&#45;&gt;controllers/auth&#45;controller.ts</title>
<path fill="none" stroke="#757575" d="M291.38,-554.54C321.02,-554.54 355.87,-554.54 388.25,-554.54"/>
<polygon fill="#757575" stroke="#757575" points="388.07,-558.04 398.07,-554.54 388.07,-551.04 388.07,-558.04"/>
</g>
<!-- middleware/validate&#45;middleware.ts -->
<g id="node24" class="node">
<title>middleware/validate&#45;middleware.ts</title>
<path fill="none" stroke="#c6c5fe" d="M604.33,-405.04C604.33,-405.04 386.67,-405.04 386.67,-405.04 382.83,-405.04 379,-401.21 379,-397.37 379,-397.37 379,-389.71 379,-389.71 379,-385.87 382.83,-382.04 386.67,-382.04 386.67,-382.04 604.33,-382.04 604.33,-382.04 608.17,-382.04 612,-385.87 612,-389.71 612,-389.71 612,-397.37 612,-397.37 612,-401.21 608.17,-405.04 604.33,-405.04"/>
<text text-anchor="middle" x="495.5" y="-389.84" font-family="Arial" font-size="14.00" fill="#c6c5fe">middleware/validate&#45;middleware.ts</text>
</g>
<!-- routers/auth&#45;router.ts&#45;&gt;middleware/validate&#45;middleware.ts -->
<g id="edge32" class="edge">
<title>routers/auth&#45;router.ts&#45;&gt;middleware/validate&#45;middleware.ts</title>
<path fill="none" stroke="#757575" d="M238.79,-542.7C286.85,-514.67 407.77,-444.13 464.38,-411.11"/>
<polygon fill="#757575" stroke="#757575" points="465.99,-414.22 472.87,-406.16 462.47,-408.17 465.99,-414.22"/>
</g>
<!-- controllers/todo&#45;controller.ts -->
<g id="node12" class="node">
<title>controllers/todo&#45;controller.ts</title>
<path fill="none" stroke="#c6c5fe" d="M584.33,-243.04C584.33,-243.04 406.67,-243.04 406.67,-243.04 402.83,-243.04 399,-239.21 399,-235.37 399,-235.37 399,-227.71 399,-227.71 399,-223.87 402.83,-220.04 406.67,-220.04 406.67,-220.04 584.33,-220.04 584.33,-220.04 588.17,-220.04 592,-223.87 592,-227.71 592,-227.71 592,-235.37 592,-235.37 592,-239.21 588.17,-243.04 584.33,-243.04"/>
<text text-anchor="middle" x="495.5" y="-227.84" font-family="Arial" font-size="14.00" fill="#c6c5fe">controllers/todo&#45;controller.ts</text>
</g>
<!-- routers/todo&#45;router.ts&#45;&gt;controllers/todo&#45;controller.ts -->
<g id="edge33" class="edge">
<title>routers/todo&#45;router.ts&#45;&gt;controllers/todo&#45;controller.ts</title>
<path fill="none" stroke="#757575" d="M238.79,-381.63C286.85,-353.42 407.77,-282.45 464.38,-249.22"/>
<polygon fill="#757575" stroke="#757575" points="466.02,-252.32 472.87,-244.24 462.47,-246.28 466.02,-252.32"/>
</g>
<!-- routers/todo&#45;router.ts&#45;&gt;middleware/validate&#45;middleware.ts -->
<g id="edge34" class="edge">
<title>routers/todo&#45;router.ts&#45;&gt;middleware/validate&#45;middleware.ts</title>
<path fill="none" stroke="#757575" d="M292.46,-393.54C315.55,-393.54 341.72,-393.54 367.37,-393.54"/>
<polygon fill="#757575" stroke="#757575" points="367.21,-397.04 377.21,-393.54 367.21,-390.04 367.21,-397.04"/>
</g>
<!-- services/auth/user&#45;service.ts -->
<g id="node9" class="node">
<title>services/auth/user&#45;service.ts</title>
<path fill="none" stroke="#c6c5fe" d="M880.33,-688.04C880.33,-688.04 698.67,-688.04 698.67,-688.04 694.83,-688.04 691,-684.21 691,-680.37 691,-680.37 691,-672.71 691,-672.71 691,-668.87 694.83,-665.04 698.67,-665.04 698.67,-665.04 880.33,-665.04 880.33,-665.04 884.17,-665.04 888,-668.87 888,-672.71 888,-672.71 888,-680.37 888,-680.37 888,-684.21 884.17,-688.04 880.33,-688.04"/>
<text text-anchor="middle" x="789.5" y="-672.84" font-family="Arial" font-size="14.00" fill="#c6c5fe">services/auth/user&#45;service.ts</text>
</g>
<!-- controllers/auth&#45;controller.ts&#45;&gt;services/auth/user&#45;service.ts -->
<g id="edge7" class="edge">
<title>controllers/auth&#45;controller.ts&#45;&gt;services/auth/user&#45;service.ts</title>
<path fill="none" stroke="#757575" d="M509.52,-566.38C534.37,-588.24 591.17,-634.7 648,-656.54 658.09,-660.42 668.85,-663.56 679.75,-666.09"/>
<polygon fill="#757575" stroke="#757575" points="678.69,-669.44 689.2,-668.11 680.15,-662.6 678.69,-669.44"/>
</g>
<!-- types/controllers/ICookieRequest.ts -->
<g id="node10" class="node">
<title>types/controllers/ICookieRequest.ts</title>
<path fill="none" stroke="#cfffac" d="M903.33,-567.04C903.33,-567.04 675.67,-567.04 675.67,-567.04 671.83,-567.04 668,-563.21 668,-559.37 668,-559.37 668,-551.71 668,-551.71 668,-547.87 671.83,-544.04 675.67,-544.04 675.67,-544.04 903.33,-544.04 903.33,-544.04 907.17,-544.04 911,-547.87 911,-551.71 911,-551.71 911,-559.37 911,-559.37 911,-563.21 907.17,-567.04 903.33,-567.04"/>
<text text-anchor="middle" x="789.5" y="-551.84" font-family="Arial" font-size="14.00" fill="#cfffac">types/controllers/ICookieRequest.ts</text>
</g>
<!-- controllers/auth&#45;controller.ts&#45;&gt;types/controllers/ICookieRequest.ts -->
<g id="edge8" class="edge">
<title>controllers/auth&#45;controller.ts&#45;&gt;types/controllers/ICookieRequest.ts</title>
<path fill="none" stroke="#757575" d="M591.3,-554.86C612.01,-554.94 634.28,-555.01 656.15,-555.09"/>
<polygon fill="#757575" stroke="#757575" points="656.01,-558.59 666.02,-555.12 656.03,-551.59 656.01,-558.59"/>
</g>
<!-- types/controllers/IRegisterLogin.ts -->
<g id="node11" class="node">
<title>types/controllers/IRegisterLogin.ts</title>
<path fill="none" stroke="#cfffac" d="M898.33,-526.04C898.33,-526.04 680.67,-526.04 680.67,-526.04 676.83,-526.04 673,-522.21 673,-518.37 673,-518.37 673,-510.71 673,-510.71 673,-506.87 676.83,-503.04 680.67,-503.04 680.67,-503.04 898.33,-503.04 898.33,-503.04 902.17,-503.04 906,-506.87 906,-510.71 906,-510.71 906,-518.37 906,-518.37 906,-522.21 902.17,-526.04 898.33,-526.04"/>
<text text-anchor="middle" x="789.5" y="-510.84" font-family="Arial" font-size="14.00" fill="#cfffac">types/controllers/IRegisterLogin.ts</text>
</g>
<!-- controllers/auth&#45;controller.ts&#45;&gt;types/controllers/IRegisterLogin.ts -->
<g id="edge9" class="edge">
<title>controllers/auth&#45;controller.ts&#45;&gt;types/controllers/IRegisterLogin.ts</title>
<path fill="none" stroke="#757575" d="M583.71,-542.59C617.15,-538.01 655.53,-532.76 689.95,-528.04"/>
<polygon fill="#757575" stroke="#757575" points="690.05,-531.56 699.48,-526.73 689.1,-524.62 690.05,-531.56"/>
</g>
<!-- dto/user&#45;dto.ts -->
<g id="node19" class="node">
<title>dto/user&#45;dto.ts</title>
<path fill="none" stroke="#c6c5fe" d="M1133.33,-546.04C1133.33,-546.04 1040.67,-546.04 1040.67,-546.04 1036.83,-546.04 1033,-542.21 1033,-538.37 1033,-538.37 1033,-530.71 1033,-530.71 1033,-526.87 1036.83,-523.04 1040.67,-523.04 1040.67,-523.04 1133.33,-523.04 1133.33,-523.04 1137.17,-523.04 1141,-526.87 1141,-530.71 1141,-530.71 1141,-538.37 1141,-538.37 1141,-542.21 1137.17,-546.04 1133.33,-546.04"/>
<text text-anchor="middle" x="1087" y="-530.84" font-family="Arial" font-size="14.00" fill="#c6c5fe">dto/user&#45;dto.ts</text>
</g>
<!-- services/auth/user&#45;service.ts&#45;&gt;dto/user&#45;dto.ts -->
<g id="edge39" class="edge">
<title>services/auth/user&#45;service.ts&#45;&gt;dto/user&#45;dto.ts</title>
<path fill="none" stroke="#757575" d="M888.22,-675.67C903.61,-672 918.54,-666 931,-656.54 962.7,-632.48 937.63,-601.4 967,-574.54 982.13,-560.71 1002.21,-551.64 1021.55,-545.7"/>
<polygon fill="#757575" stroke="#757575" points="1022.36,-549.11 1031.05,-543.04 1020.47,-542.37 1022.36,-549.11"/>
</g>
<!-- services/auth/user&#45;service.ts&#45;&gt;services/auth/token&#45;service.ts -->
<g id="edge41" class="edge">
<title>services/auth/user&#45;service.ts&#45;&gt;services/auth/token&#45;service.ts</title>
<path fill="none" stroke="#757575" d="M888.23,-671.77C903.13,-668.49 917.89,-663.63 931,-656.54 952.33,-645 945.87,-627.43 967,-615.54 970.06,-613.82 973.22,-612.24 976.46,-610.78"/>
<polygon fill="#757575" stroke="#757575" points="977.68,-614.06 985.66,-607.09 975.08,-607.56 977.68,-614.06"/>
</g>
<!-- services/auth/user&#45;service.ts&#45;&gt;utils/error/api&#45;error.ts -->
<g id="edge44" class="edge">
<title>services/auth/user&#45;service.ts&#45;&gt;utils/error/api&#45;error.ts</title>
<path fill="none" stroke="#757575" d="M888.17,-677.72C903.94,-673.9 919,-667.33 931,-656.54 979.43,-613.03 921.11,-560.73 967,-514.54 976.8,-504.68 989.3,-497.83 1002.51,-493.1"/>
<polygon fill="#757575" stroke="#757575" points="1003.28,-496.53 1011.77,-490.19 1001.18,-489.85 1003.28,-496.53"/>
</g>
<!-- models/UserModel.ts -->
<g id="node31" class="node">
<title>models/UserModel.ts</title>
<path fill="none" stroke="#cfffac" d="M1155.33,-729.04C1155.33,-729.04 1018.67,-729.04 1018.67,-729.04 1014.83,-729.04 1011,-725.21 1011,-721.37 1011,-721.37 1011,-713.71 1011,-713.71 1011,-709.87 1014.83,-706.04 1018.67,-706.04 1018.67,-706.04 1155.33,-706.04 1155.33,-706.04 1159.17,-706.04 1163,-709.87 1163,-713.71 1163,-713.71 1163,-721.37 1163,-721.37 1163,-725.21 1159.17,-729.04 1155.33,-729.04"/>
<text text-anchor="middle" x="1087" y="-713.84" font-family="Arial" font-size="14.00" fill="#cfffac">models/UserModel.ts</text>
</g>
<!-- services/auth/user&#45;service.ts&#45;&gt;models/UserModel.ts -->
<g id="edge40" class="edge">
<title>services/auth/user&#45;service.ts&#45;&gt;models/UserModel.ts</title>
<path fill="none" stroke="#757575" d="M876.77,-688.51C915.37,-693.87 960.8,-700.17 999.44,-705.53"/>
<polygon fill="#757575" stroke="#757575" points="998.78,-708.97 1009.17,-706.88 999.75,-702.04 998.78,-708.97"/>
</g>
<!-- types/services/IUserData.ts -->
<g id="node33" class="node">
<title>types/services/IUserData.ts</title>
<path fill="none" stroke="#cfffac" d="M1174.83,-688.04C1174.83,-688.04 999.17,-688.04 999.17,-688.04 995.33,-688.04 991.5,-684.21 991.5,-680.37 991.5,-680.37 991.5,-672.71 991.5,-672.71 991.5,-668.87 995.33,-665.04 999.17,-665.04 999.17,-665.04 1174.83,-665.04 1174.83,-665.04 1178.67,-665.04 1182.5,-668.87 1182.5,-672.71 1182.5,-672.71 1182.5,-680.37 1182.5,-680.37 1182.5,-684.21 1178.67,-688.04 1174.83,-688.04"/>
<text text-anchor="middle" x="1087" y="-672.84" font-family="Arial" font-size="14.00" fill="#cfffac">types/services/IUserData.ts</text>
</g>
<!-- services/auth/user&#45;service.ts&#45;&gt;types/services/IUserData.ts -->
<g id="edge42" class="edge">
<title>services/auth/user&#45;service.ts&#45;&gt;types/services/IUserData.ts</title>
<path fill="none" stroke="#757575" d="M888.49,-676.54C917.83,-676.54 950.15,-676.54 979.99,-676.54"/>
<polygon fill="#757575" stroke="#757575" points="979.78,-680.04 989.78,-676.54 979.78,-673.04 979.78,-680.04"/>
</g>
<!-- utils/crypto/hashing.ts -->
<g id="node34" class="node">
<title>utils/crypto/hashing.ts</title>
<path fill="none" stroke="#cfffac" d="M1155.33,-647.04C1155.33,-647.04 1018.67,-647.04 1018.67,-647.04 1014.83,-647.04 1011,-643.21 1011,-639.37 1011,-639.37 1011,-631.71 1011,-631.71 1011,-627.87 1014.83,-624.04 1018.67,-624.04 1018.67,-624.04 1155.33,-624.04 1155.33,-624.04 1159.17,-624.04 1163,-627.87 1163,-631.71 1163,-631.71 1163,-639.37 1163,-639.37 1163,-643.21 1159.17,-647.04 1155.33,-647.04"/>
<text text-anchor="middle" x="1087" y="-631.84" font-family="Arial" font-size="14.00" fill="#cfffac">utils/crypto/hashing.ts</text>
</g>
<!-- services/auth/user&#45;service.ts&#45;&gt;utils/crypto/hashing.ts -->
<g id="edge43" class="edge">
<title>services/auth/user&#45;service.ts&#45;&gt;utils/crypto/hashing.ts</title>
<path fill="none" stroke="#757575" d="M876.77,-664.57C915.37,-659.21 960.8,-652.91 999.44,-647.55"/>
<polygon fill="#757575" stroke="#757575" points="999.75,-651.04 1009.17,-646.2 998.78,-644.11 999.75,-651.04"/>
</g>
<!-- services/logic/todo&#45;service.ts -->
<g id="node13" class="node">
<title>services/logic/todo&#45;service.ts</title>
<path fill="none" stroke="#c6c5fe" d="M882.33,-124.04C882.33,-124.04 696.67,-124.04 696.67,-124.04 692.83,-124.04 689,-120.21 689,-116.37 689,-116.37 689,-108.71 689,-108.71 689,-104.87 692.83,-101.04 696.67,-101.04 696.67,-101.04 882.33,-101.04 882.33,-101.04 886.17,-101.04 890,-104.87 890,-108.71 890,-108.71 890,-116.37 890,-116.37 890,-120.21 886.17,-124.04 882.33,-124.04"/>
<text text-anchor="middle" x="789.5" y="-108.84" font-family="Arial" font-size="14.00" fill="#c6c5fe">services/logic/todo&#45;service.ts</text>
</g>
<!-- controllers/todo&#45;controller.ts&#45;&gt;services/logic/todo&#45;service.ts -->
<g id="edge10" class="edge">
<title>controllers/todo&#45;controller.ts&#45;&gt;services/logic/todo&#45;service.ts</title>
<path fill="none" stroke="#757575" d="M511.88,-219.6C538.22,-199.78 594.3,-160.23 648,-139.54 660.98,-134.54 675.02,-130.43 689.01,-127.07"/>
<polygon fill="#757575" stroke="#757575" points="689.75,-130.49 698.73,-124.86 688.21,-123.66 689.75,-130.49"/>
</g>
<!-- types/controllers/IIdParamsRequest.ts -->
<g id="node14" class="node">
<title>types/controllers/IIdParamsRequest.ts</title>
<path fill="none" stroke="#c6c5fe" d="M911.83,-284.04C911.83,-284.04 667.17,-284.04 667.17,-284.04 663.33,-284.04 659.5,-280.21 659.5,-276.37 659.5,-276.37 659.5,-268.71 659.5,-268.71 659.5,-264.87 663.33,-261.04 667.17,-261.04 667.17,-261.04 911.83,-261.04 911.83,-261.04 915.67,-261.04 919.5,-264.87 919.5,-268.71 919.5,-268.71 919.5,-276.37 919.5,-276.37 919.5,-280.21 915.67,-284.04 911.83,-284.04"/>
<text text-anchor="middle" x="789.5" y="-268.84" font-family="Arial" font-size="14.00" fill="#c6c5fe">types/controllers/IIdParamsRequest.ts</text>
</g>
<!-- controllers/todo&#45;controller.ts&#45;&gt;types/controllers/IIdParamsRequest.ts -->
<g id="edge11" class="edge">
<title>controllers/todo&#45;controller.ts&#45;&gt;types/controllers/IIdParamsRequest.ts</title>
<path fill="none" stroke="#757575" d="M581.74,-243.51C616.22,-248.35 656.21,-253.96 691.77,-258.96"/>
<polygon fill="#757575" stroke="#757575" points="691.26,-262.42 701.65,-260.35 692.24,-255.49 691.26,-262.42"/>
</g>
<!-- types/controllers/ITodoPayloadRequest.ts -->
<g id="node15" class="node">
<title>types/controllers/ITodoPayloadRequest.ts</title>
<path fill="none" stroke="#c6c5fe" d="M923.33,-243.04C923.33,-243.04 655.67,-243.04 655.67,-243.04 651.83,-243.04 648,-239.21 648,-235.37 648,-235.37 648,-227.71 648,-227.71 648,-223.87 651.83,-220.04 655.67,-220.04 655.67,-220.04 923.33,-220.04 923.33,-220.04 927.17,-220.04 931,-223.87 931,-227.71 931,-227.71 931,-235.37 931,-235.37 931,-239.21 927.17,-243.04 923.33,-243.04"/>
<text text-anchor="middle" x="789.5" y="-227.84" font-family="Arial" font-size="14.00" fill="#c6c5fe">types/controllers/ITodoPayloadRequest.ts</text>
</g>
<!-- controllers/todo&#45;controller.ts&#45;&gt;types/controllers/ITodoPayloadRequest.ts -->
<g id="edge12" class="edge">
<title>controllers/todo&#45;controller.ts&#45;&gt;types/controllers/ITodoPayloadRequest.ts</title>
<path fill="none" stroke="#757575" d="M592.11,-231.54C606.29,-231.54 621.2,-231.54 636.19,-231.54"/>
<polygon fill="#757575" stroke="#757575" points="636.15,-235.04 646.15,-231.54 636.15,-228.04 636.15,-235.04"/>
</g>
<!-- types/middleware/IGetAllTodoRequest.ts -->
<g id="node16" class="node">
<title>types/middleware/IGetAllTodoRequest.ts</title>
<path fill="none" stroke="#c6c5fe" d="M920.83,-325.04C920.83,-325.04 658.17,-325.04 658.17,-325.04 654.33,-325.04 650.5,-321.21 650.5,-317.37 650.5,-317.37 650.5,-309.71 650.5,-309.71 650.5,-305.87 654.33,-302.04 658.17,-302.04 658.17,-302.04 920.83,-302.04 920.83,-302.04 924.67,-302.04 928.5,-305.87 928.5,-309.71 928.5,-309.71 928.5,-317.37 928.5,-317.37 928.5,-321.21 924.67,-325.04 920.83,-325.04"/>
<text text-anchor="middle" x="789.5" y="-309.84" font-family="Arial" font-size="14.00" fill="#c6c5fe">types/middleware/IGetAllTodoRequest.ts</text>
</g>
<!-- controllers/todo&#45;controller.ts&#45;&gt;types/middleware/IGetAllTodoRequest.ts -->
<g id="edge13" class="edge">
<title>controllers/todo&#45;controller.ts&#45;&gt;types/middleware/IGetAllTodoRequest.ts</title>
<path fill="none" stroke="#757575" d="M520.26,-243.42C549.56,-257.56 601.24,-280.85 648,-293.54 656.02,-295.72 664.36,-297.67 672.81,-299.41"/>
<polygon fill="#757575" stroke="#757575" points="671.98,-302.81 682.46,-301.3 673.32,-295.94 671.98,-302.81"/>
</g>
<!-- types/services/ITodoPayload.ts -->
<g id="node17" class="node">
<title>types/services/ITodoPayload.ts</title>
<path fill="none" stroke="#c6c5fe" d="M1187.33,-165.04C1187.33,-165.04 986.67,-165.04 986.67,-165.04 982.83,-165.04 979,-161.21 979,-157.37 979,-157.37 979,-149.71 979,-149.71 979,-145.87 982.83,-142.04 986.67,-142.04 986.67,-142.04 1187.33,-142.04 1187.33,-142.04 1191.17,-142.04 1195,-145.87 1195,-149.71 1195,-149.71 1195,-157.37 1195,-157.37 1195,-161.21 1191.17,-165.04 1187.33,-165.04"/>
<text text-anchor="middle" x="1087" y="-149.84" font-family="Arial" font-size="14.00" fill="#c6c5fe">types/services/ITodoPayload.ts</text>
</g>
<!-- controllers/todo&#45;controller.ts&#45;&gt;types/services/ITodoPayload.ts -->
<g id="edge14" class="edge">
<title>controllers/todo&#45;controller.ts&#45;&gt;types/services/ITodoPayload.ts</title>
<path fill="none" stroke="#757575" d="M522.66,-219.6C552.35,-206.67 602.56,-186.68 648,-177.54 754.57,-156.1 878.47,-151.1 967.25,-150.88"/>
<polygon fill="#757575" stroke="#757575" points="967.2,-154.38 977.2,-150.88 967.2,-147.38 967.2,-154.38"/>
</g>
<!-- types/services/IUserPayload.ts -->
<g id="node18" class="node">
<title>types/services/IUserPayload.ts</title>
<path fill="none" stroke="#cfffac" d="M1460.83,-305.04C1460.83,-305.04 1264.17,-305.04 1264.17,-305.04 1260.33,-305.04 1256.5,-301.21 1256.5,-297.37 1256.5,-297.37 1256.5,-289.71 1256.5,-289.71 1256.5,-285.87 1260.33,-282.04 1264.17,-282.04 1264.17,-282.04 1460.83,-282.04 1460.83,-282.04 1464.67,-282.04 1468.5,-285.87 1468.5,-289.71 1468.5,-289.71 1468.5,-297.37 1468.5,-297.37 1468.5,-301.21 1464.67,-305.04 1460.83,-305.04"/>
<text text-anchor="middle" x="1362.5" y="-289.84" font-family="Arial" font-size="14.00" fill="#cfffac">types/services/IUserPayload.ts</text>
</g>
<!-- controllers/todo&#45;controller.ts&#45;&gt;types/services/IUserPayload.ts -->
<g id="edge15" class="edge">
<title>controllers/todo&#45;controller.ts&#45;&gt;types/services/IUserPayload.ts</title>
<path fill="none" stroke="#757575" d="M572.21,-219.56C596.37,-216.27 623.25,-213.17 648,-211.54 773.51,-203.29 805.78,-199.72 931,-211.54 1065.74,-224.26 1221.09,-258.89 1303.35,-278.85"/>
<polygon fill="#757575" stroke="#757575" points="1302.44,-282.23 1312.99,-281.2 1304.1,-275.43 1302.44,-282.23"/>
</g>
<!-- services/logic/todo&#45;service.ts&#45;&gt;types/services/ITodoPayload.ts -->
<g id="edge47" class="edge">
<title>services/logic/todo&#45;service.ts&#45;&gt;types/services/ITodoPayload.ts</title>
<path fill="none" stroke="#757575" d="M876.77,-124.51C911.81,-129.37 952.47,-135.01 988.58,-140.02"/>
<polygon fill="#757575" stroke="#757575" points="987.74,-143.44 998.13,-141.35 988.7,-136.51 987.74,-143.44"/>
</g>
<!-- models/Todo/TodoModel.ts -->
<g id="node29" class="node">
<title>models/Todo/TodoModel.ts</title>
<path fill="none" stroke="#c6c5fe" d="M1175.83,-83.04C1175.83,-83.04 998.17,-83.04 998.17,-83.04 994.33,-83.04 990.5,-79.21 990.5,-75.37 990.5,-75.37 990.5,-67.71 990.5,-67.71 990.5,-63.87 994.33,-60.04 998.17,-60.04 998.17,-60.04 1175.83,-60.04 1175.83,-60.04 1179.67,-60.04 1183.5,-63.87 1183.5,-67.71 1183.5,-67.71 1183.5,-75.37 1183.5,-75.37 1183.5,-79.21 1179.67,-83.04 1175.83,-83.04"/>
<text text-anchor="middle" x="1087" y="-67.84" font-family="Arial" font-size="14.00" fill="#c6c5fe">models/Todo/TodoModel.ts</text>
</g>
<!-- services/logic/todo&#45;service.ts&#45;&gt;models/Todo/TodoModel.ts -->
<g id="edge45" class="edge">
<title>services/logic/todo&#45;service.ts&#45;&gt;models/Todo/TodoModel.ts</title>
<path fill="none" stroke="#757575" d="M876.77,-100.57C911.81,-95.71 952.47,-90.07 988.58,-85.06"/>
<polygon fill="#757575" stroke="#757575" points="988.7,-88.57 998.13,-83.73 987.74,-81.64 988.7,-88.57"/>
</g>
<!-- types/services/IGetTodoSettings.ts -->
<g id="node35" class="node">
<title>types/services/IGetTodoSettings.ts</title>
<path fill="none" stroke="#cfffac" d="M1199.33,-124.04C1199.33,-124.04 974.67,-124.04 974.67,-124.04 970.83,-124.04 967,-120.21 967,-116.37 967,-116.37 967,-108.71 967,-108.71 967,-104.87 970.83,-101.04 974.67,-101.04 974.67,-101.04 1199.33,-101.04 1199.33,-101.04 1203.17,-101.04 1207,-104.87 1207,-108.71 1207,-108.71 1207,-116.37 1207,-116.37 1207,-120.21 1203.17,-124.04 1199.33,-124.04"/>
<text text-anchor="middle" x="1087" y="-108.84" font-family="Arial" font-size="14.00" fill="#cfffac">types/services/IGetTodoSettings.ts</text>
</g>
<!-- services/logic/todo&#45;service.ts&#45;&gt;types/services/IGetTodoSettings.ts -->
<g id="edge46" class="edge">
<title>services/logic/todo&#45;service.ts&#45;&gt;types/services/IGetTodoSettings.ts</title>
<path fill="none" stroke="#757575" d="M890.13,-112.54C911.03,-112.54 933.38,-112.54 955.22,-112.54"/>
<polygon fill="#757575" stroke="#757575" points="955.08,-116.04 965.08,-112.54 955.08,-109.04 955.08,-116.04"/>
</g>
<!-- types/controllers/IIdParamsRequest.ts&#45;&gt;types/middleware/IAuthRequest.ts -->
<g id="edge48" class="edge">
<title>types/controllers/IIdParamsRequest.ts&#45;&gt;types/middleware/IAuthRequest.ts</title>
<path fill="none" stroke="#757575" d="M919.68,-281.72C932.65,-282.64 945.82,-283.58 958.77,-284.5"/>
<polygon fill="#757575" stroke="#757575" points="958.36,-287.98 968.58,-285.2 958.85,-281 958.36,-287.98"/>
</g>
<!-- types/controllers/ITodoPayloadRequest.ts&#45;&gt;types/middleware/IAuthRequest.ts -->
<g id="edge49" class="edge">
<title>types/controllers/ITodoPayloadRequest.ts&#45;&gt;types/middleware/IAuthRequest.ts</title>
<path fill="none" stroke="#757575" d="M880.7,-243.52C897.48,-246.17 914.82,-249.2 931,-252.54 965.93,-259.75 1004.72,-270.01 1034.76,-278.47"/>
<polygon fill="#757575" stroke="#757575" points="1033.79,-281.83 1044.36,-281.19 1035.7,-275.09 1033.79,-281.83"/>
</g>
<!-- types/services/ITodoBody.ts -->
<g id="node36" class="node">
<title>types/services/ITodoBody.ts</title>
<path fill="none" stroke="#cfffac" d="M1453.83,-204.04C1453.83,-204.04 1271.17,-204.04 1271.17,-204.04 1267.33,-204.04 1263.5,-200.21 1263.5,-196.37 1263.5,-196.37 1263.5,-188.71 1263.5,-188.71 1263.5,-184.87 1267.33,-181.04 1271.17,-181.04 1271.17,-181.04 1453.83,-181.04 1453.83,-181.04 1457.67,-181.04 1461.5,-184.87 1461.5,-188.71 1461.5,-188.71 1461.5,-196.37 1461.5,-196.37 1461.5,-200.21 1457.67,-204.04 1453.83,-204.04"/>
<text text-anchor="middle" x="1362.5" y="-188.84" font-family="Arial" font-size="14.00" fill="#cfffac">types/services/ITodoBody.ts</text>
</g>
<!-- types/controllers/ITodoPayloadRequest.ts&#45;&gt;types/services/ITodoBody.ts -->
<g id="edge50" class="edge">
<title>types/controllers/ITodoPayloadRequest.ts&#45;&gt;types/services/ITodoBody.ts</title>
<path fill="none" stroke="#757575" d="M931.28,-221.92C1030.09,-215.18 1160.33,-206.28 1251.53,-200.05"/>
<polygon fill="#757575" stroke="#757575" points="1251.76,-203.54 1261.5,-199.37 1251.29,-196.56 1251.76,-203.54"/>
</g>
<!-- types/middleware/IGetAllTodoRequest.ts&#45;&gt;types/middleware/IAuthRequest.ts -->
<g id="edge52" class="edge">
<title>types/middleware/IGetAllTodoRequest.ts&#45;&gt;types/middleware/IAuthRequest.ts</title>
<path fill="none" stroke="#757575" d="M928.73,-304.18C938.77,-303.5 948.87,-302.82 958.84,-302.15"/>
<polygon fill="#757575" stroke="#757575" points="958.79,-305.66 968.53,-301.49 958.32,-298.67 958.79,-305.66"/>
</g>
<!-- types/services/ITodoPayload.ts&#45;&gt;types/services/ITodoBody.ts -->
<g id="edge53" class="edge">
<title>types/services/ITodoPayload.ts&#45;&gt;types/services/ITodoBody.ts</title>
<path fill="none" stroke="#757575" d="M1171.92,-165.51C1201.85,-169.77 1235.76,-174.61 1266.55,-179"/>
<polygon fill="#757575" stroke="#757575" points="1265.85,-182.44 1276.24,-180.38 1266.84,-175.51 1265.85,-182.44"/>
</g>
<!-- types/dto/IUserDto.ts -->
<g id="node20" class="node">
<title>types/dto/IUserDto.ts</title>
<path fill="none" stroke="#cfffac" d="M1430.33,-535.04C1430.33,-535.04 1294.67,-535.04 1294.67,-535.04 1290.83,-535.04 1287,-531.21 1287,-527.37 1287,-527.37 1287,-519.71 1287,-519.71 1287,-515.87 1290.83,-512.04 1294.67,-512.04 1294.67,-512.04 1430.33,-512.04 1430.33,-512.04 1434.17,-512.04 1438,-515.87 1438,-519.71 1438,-519.71 1438,-527.37 1438,-527.37 1438,-531.21 1434.17,-535.04 1430.33,-535.04"/>
<text text-anchor="middle" x="1362.5" y="-519.84" font-family="Arial" font-size="14.00" fill="#cfffac">types/dto/IUserDto.ts</text>
</g>
<!-- dto/user&#45;dto.ts&#45;&gt;types/dto/IUserDto.ts -->
<g id="edge16" class="edge">
<title>dto/user&#45;dto.ts&#45;&gt;types/dto/IUserDto.ts</title>
<path fill="none" stroke="#757575" d="M1141.38,-532.39C1179.42,-530.86 1231.38,-528.77 1275.26,-527.01"/>
<polygon fill="#757575" stroke="#757575" points="1275.16,-530.52 1285.01,-526.62 1274.88,-523.52 1275.16,-530.52"/>
</g>
<!-- services/auth/token&#45;service.ts&#45;&gt;env/env.ts -->
<g id="edge35" class="edge">
<title>services/auth/token&#45;service.ts&#45;&gt;env/env.ts</title>
<path fill="none" stroke="#757575" d="M1163.83,-606.49C1178.23,-609.17 1193.13,-612.21 1207,-615.54 1223.27,-619.45 1226.72,-622.7 1243,-626.54 1265.02,-631.74 1289.64,-636.12 1310.71,-639.45"/>
<polygon fill="#757575" stroke="#757575" points="1310.1,-642.89 1320.52,-640.95 1311.17,-635.98 1310.1,-642.89"/>
</g>
<!-- services/auth/token&#45;service.ts&#45;&gt;types/services/IUserPayload.ts -->
<g id="edge38" class="edge">
<title>services/auth/token&#45;service.ts&#45;&gt;types/services/IUserPayload.ts</title>
<path fill="none" stroke="#757575" d="M1152.44,-582.56C1171.45,-576.73 1191.33,-568.14 1207,-555.54 1217.8,-546.86 1314.75,-376.28 1349.32,-315.13"/>
<polygon fill="#757575" stroke="#757575" points="1352.23,-317.1 1354.1,-306.67 1346.13,-313.66 1352.23,-317.1"/>
</g>
<!-- models/TokenModel.ts -->
<g id="node30" class="node">
<title>models/TokenModel.ts</title>
<path fill="none" stroke="#cfffac" d="M1435.33,-617.04C1435.33,-617.04 1289.67,-617.04 1289.67,-617.04 1285.83,-617.04 1282,-613.21 1282,-609.37 1282,-609.37 1282,-601.71 1282,-601.71 1282,-597.87 1285.83,-594.04 1289.67,-594.04 1289.67,-594.04 1435.33,-594.04 1435.33,-594.04 1439.17,-594.04 1443,-597.87 1443,-601.71 1443,-601.71 1443,-609.37 1443,-609.37 1443,-613.21 1439.17,-617.04 1435.33,-617.04"/>
<text text-anchor="middle" x="1362.5" y="-601.84" font-family="Arial" font-size="14.00" fill="#cfffac">models/TokenModel.ts</text>
</g>
<!-- services/auth/token&#45;service.ts&#45;&gt;models/TokenModel.ts -->
<g id="edge36" class="edge">
<title>services/auth/token&#45;service.ts&#45;&gt;models/TokenModel.ts</title>
<path fill="none" stroke="#757575" d="M1188.68,-598.59C1215.34,-599.66 1243.98,-600.81 1270.13,-601.87"/>
<polygon fill="#757575" stroke="#757575" points="1269.91,-605.36 1280.04,-602.26 1270.19,-598.37 1269.91,-605.36"/>
</g>
<!-- types/jwt/payload.ts -->
<g id="node32" class="node">
<title>types/jwt/payload.ts</title>
<path fill="none" stroke="#cfffac" d="M1424.83,-576.04C1424.83,-576.04 1300.17,-576.04 1300.17,-576.04 1296.33,-576.04 1292.5,-572.21 1292.5,-568.37 1292.5,-568.37 1292.5,-560.71 1292.5,-560.71 1292.5,-556.87 1296.33,-553.04 1300.17,-553.04 1300.17,-553.04 1424.83,-553.04 1424.83,-553.04 1428.67,-553.04 1432.5,-556.87 1432.5,-560.71 1432.5,-560.71 1432.5,-568.37 1432.5,-568.37 1432.5,-572.21 1428.67,-576.04 1424.83,-576.04"/>
<text text-anchor="middle" x="1362.5" y="-560.84" font-family="Arial" font-size="14.00" fill="#cfffac">types/jwt/payload.ts</text>
</g>
<!-- services/auth/token&#45;service.ts&#45;&gt;types/jwt/payload.ts -->
<g id="edge37" class="edge">
<title>services/auth/token&#45;service.ts&#45;&gt;types/jwt/payload.ts</title>
<path fill="none" stroke="#757575" d="M1188.68,-583.5C1219.06,-580.16 1252.01,-576.55 1280.91,-573.38"/>
<polygon fill="#757575" stroke="#757575" points="1281.13,-576.88 1290.69,-572.31 1280.36,-569.92 1281.13,-576.88"/>
</g>
<!-- types/middleware/IAuthRequest.ts&#45;&gt;types/services/IUserPayload.ts -->
<g id="edge51" class="edge">
<title>types/middleware/IAuthRequest.ts&#45;&gt;types/services/IUserPayload.ts</title>
<path fill="none" stroke="#757575" d="M1203.99,-293.54C1217.52,-293.54 1231.34,-293.54 1244.88,-293.54"/>
<polygon fill="#757575" stroke="#757575" points="1244.67,-297.04 1254.67,-293.54 1244.67,-290.04 1244.67,-297.04"/>
</g>
<!-- middleware/validate&#45;middleware.ts&#45;&gt;types/controllers/IRegisterLogin.ts -->
<g id="edge23" class="edge">
<title>middleware/validate&#45;middleware.ts&#45;&gt;types/controllers/IRegisterLogin.ts</title>
<path fill="none" stroke="#757575" d="M509.54,-405.26C534.43,-426.9 591.3,-472.89 648,-494.54 652.92,-496.42 658,-498.12 663.17,-499.67"/>
<polygon fill="#757575" stroke="#757575" points="661.88,-502.94 672.45,-502.22 663.74,-496.19 661.88,-502.94"/>
</g>
<!-- middleware/validate&#45;middleware.ts&#45;&gt;types/controllers/IIdParamsRequest.ts -->
<g id="edge22" class="edge">
<title>middleware/validate&#45;middleware.ts&#45;&gt;types/controllers/IIdParamsRequest.ts</title>
<path fill="none" stroke="#757575" d="M509.97,-381.64C535.12,-360.14 591.79,-315.08 648,-293.54 653.98,-291.25 660.18,-289.21 666.51,-287.39"/>
<polygon fill="#757575" stroke="#757575" points="667.04,-290.87 675.8,-284.92 665.24,-284.11 667.04,-290.87"/>
</g>
<!-- middleware/validate&#45;middleware.ts&#45;&gt;types/controllers/ITodoPayloadRequest.ts -->
<g id="edge24" class="edge">
<title>middleware/validate&#45;middleware.ts&#45;&gt;types/controllers/ITodoPayloadRequest.ts</title>
<path fill="none" stroke="#757575" d="M505.15,-381.57C526.09,-353.62 582.61,-284.04 648,-252.54 652.07,-250.58 656.28,-248.79 660.58,-247.16"/>
<polygon fill="#757575" stroke="#757575" points="661.7,-250.48 670.03,-243.92 659.43,-243.86 661.7,-250.48"/>
</g>
<!-- middleware/validate&#45;middleware.ts&#45;&gt;types/middleware/IGetAllTodoRequest.ts -->
<g id="edge25" class="edge">
<title>middleware/validate&#45;middleware.ts&#45;&gt;types/middleware/IGetAllTodoRequest.ts</title>
<path fill="none" stroke="#757575" d="M525.67,-381.57C555.86,-369.56 604.59,-351.21 648,-339.54 664.86,-335.01 683.07,-331 700.62,-327.57"/>
<polygon fill="#757575" stroke="#757575" points="700.78,-331.11 709.95,-325.8 699.47,-324.23 700.78,-331.11"/>
</g>
<!-- middleware/validate&#45;middleware.ts&#45;&gt;utils/error/api&#45;error.ts -->
<g id="edge26" class="edge">
<title>middleware/validate&#45;middleware.ts&#45;&gt;utils/error/api&#45;error.ts</title>
<path fill="none" stroke="#757575" d="M582.63,-405.49C603.99,-408.45 626.83,-411.61 648,-414.54 773.77,-431.92 805.74,-432.8 931,-453.54 959.27,-458.22 990.31,-464.08 1017.13,-469.38"/>
<polygon fill="#757575" stroke="#757575" points="1016.38,-472.8 1026.87,-471.32 1017.74,-465.93 1016.38,-472.8"/>
</g>
<!-- utils/validation/customValidator.ts -->
<g id="node25" class="node">
<title>utils/validation/customValidator.ts</title>
<path fill="none" stroke="#cfffac" d="M1191.33,-385.04C1191.33,-385.04 982.67,-385.04 982.67,-385.04 978.83,-385.04 975,-381.21 975,-377.37 975,-377.37 975,-369.71 975,-369.71 975,-365.87 978.83,-362.04 982.67,-362.04 982.67,-362.04 1191.33,-362.04 1191.33,-362.04 1195.17,-362.04 1199,-365.87 1199,-369.71 1199,-369.71 1199,-377.37 1199,-377.37 1199,-381.21 1195.17,-385.04 1191.33,-385.04"/>
<text text-anchor="middle" x="1087" y="-369.84" font-family="Arial" font-size="14.00" fill="#cfffac">utils/validation/customValidator.ts</text>
</g>
<!-- middleware/validate&#45;middleware.ts&#45;&gt;utils/validation/customValidator.ts -->
<g id="edge27" class="edge">
<title>middleware/validate&#45;middleware.ts&#45;&gt;utils/validation/customValidator.ts</title>
<path fill="none" stroke="#757575" d="M572.21,-381.56C596.37,-378.27 623.25,-375.17 648,-373.54 754.31,-366.55 875.45,-367.21 963.34,-369.24"/>
<polygon fill="#757575" stroke="#757575" points="963.11,-372.74 973.19,-369.48 963.28,-365.74 963.11,-372.74"/>
</g>
<!-- utils/validation/validateLogin.ts -->
<g id="node26" class="node">
<title>utils/validation/validateLogin.ts</title>
<path fill="none" stroke="#c6c5fe" d="M884.83,-405.04C884.83,-405.04 694.17,-405.04 694.17,-405.04 690.33,-405.04 686.5,-401.21 686.5,-397.37 686.5,-397.37 686.5,-389.71 686.5,-389.71 686.5,-385.87 690.33,-382.04 694.17,-382.04 694.17,-382.04 884.83,-382.04 884.83,-382.04 888.67,-382.04 892.5,-385.87 892.5,-389.71 892.5,-389.71 892.5,-397.37 892.5,-397.37 892.5,-401.21 888.67,-405.04 884.83,-405.04"/>
<text text-anchor="middle" x="789.5" y="-389.84" font-family="Arial" font-size="14.00" fill="#c6c5fe">utils/validation/validateLogin.ts</text>
</g>
<!-- middleware/validate&#45;middleware.ts&#45;&gt;utils/validation/validateLogin.ts -->
<g id="edge28" class="edge">
<title>middleware/validate&#45;middleware.ts&#45;&gt;utils/validation/validateLogin.ts</title>
<path fill="none" stroke="#757575" d="M612.33,-393.54C632.88,-393.54 654.27,-393.54 674.77,-393.54"/>
<polygon fill="#757575" stroke="#757575" points="674.54,-397.04 684.54,-393.54 674.54,-390.04 674.54,-397.04"/>
</g>
<!-- utils/validation/validatePassword.ts -->
<g id="node27" class="node">
<title>utils/validation/validatePassword.ts</title>
<path fill="none" stroke="#c6c5fe" d="M898.33,-485.04C898.33,-485.04 680.67,-485.04 680.67,-485.04 676.83,-485.04 673,-481.21 673,-477.37 673,-477.37 673,-469.71 673,-469.71 673,-465.87 676.83,-462.04 680.67,-462.04 680.67,-462.04 898.33,-462.04 898.33,-462.04 902.17,-462.04 906,-465.87 906,-469.71 906,-469.71 906,-477.37 906,-477.37 906,-481.21 902.17,-485.04 898.33,-485.04"/>
<text text-anchor="middle" x="789.5" y="-469.84" font-family="Arial" font-size="14.00" fill="#c6c5fe">utils/validation/validatePassword.ts</text>
</g>
<!-- middleware/validate&#45;middleware.ts&#45;&gt;utils/validation/validatePassword.ts -->
<g id="edge29" class="edge">
<title>middleware/validate&#45;middleware.ts&#45;&gt;utils/validation/validatePassword.ts</title>
<path fill="none" stroke="#757575" d="M525.67,-405.51C555.86,-417.52 604.59,-435.87 648,-447.54 664.86,-452.07 683.07,-456.08 700.62,-459.51"/>
<polygon fill="#757575" stroke="#757575" points="699.47,-462.85 709.95,-461.28 700.78,-455.98 699.47,-462.85"/>
</g>
<!-- utils/validation/validateLogin.ts&#45;&gt;utils/error/api&#45;error.ts -->
<g id="edge54" class="edge">
<title>utils/validation/validateLogin.ts&#45;&gt;utils/error/api&#45;error.ts</title>
<path fill="none" stroke="#757575" d="M871.43,-405.54C891.11,-409.27 911.97,-413.92 931,-419.54 973.58,-432.12 1020.44,-452.43 1051.37,-466.79"/>
<polygon fill="#757575" stroke="#757575" points="1049.7,-469.87 1060.24,-470.96 1052.68,-463.54 1049.7,-469.87"/>
</g>
<!-- utils/validation/validateLogin.ts&#45;&gt;utils/validation/customValidator.ts -->
<g id="edge55" class="edge">
<title>utils/validation/validateLogin.ts&#45;&gt;utils/validation/customValidator.ts</title>
<path fill="none" stroke="#757575" d="M892.61,-386.63C915.33,-385.09 939.65,-383.45 963.11,-381.86"/>
<polygon fill="#757575" stroke="#757575" points="963.3,-385.35 973.04,-381.19 962.82,-378.37 963.3,-385.35"/>
</g>
<!-- utils/validation/validatePassword.ts&#45;&gt;utils/error/api&#45;error.ts -->
<g id="edge56" class="edge">
<title>utils/validation/validatePassword.ts&#45;&gt;utils/error/api&#45;error.ts</title>
<path fill="none" stroke="#757575" d="M906.44,-477.46C938.41,-478.55 972.47,-479.7 1002.24,-480.71"/>
<polygon fill="#757575" stroke="#757575" points="1001.8,-484.19 1011.91,-481.03 1002.03,-477.2 1001.8,-484.19"/>
</g>
<!-- models/Todo/TodoElemSchema.ts -->
<g id="node28" class="node">
<title>models/Todo/TodoElemSchema.ts</title>
<path fill="none" stroke="#cfffac" d="M1474.33,-83.04C1474.33,-83.04 1250.67,-83.04 1250.67,-83.04 1246.83,-83.04 1243,-79.21 1243,-75.37 1243,-75.37 1243,-67.71 1243,-67.71 1243,-63.87 1246.83,-60.04 1250.67,-60.04 1250.67,-60.04 1474.33,-60.04 1474.33,-60.04 1478.17,-60.04 1482,-63.87 1482,-67.71 1482,-67.71 1482,-75.37 1482,-75.37 1482,-79.21 1478.17,-83.04 1474.33,-83.04"/>
<text text-anchor="middle" x="1362.5" y="-67.84" font-family="Arial" font-size="14.00" fill="#cfffac">models/Todo/TodoElemSchema.ts</text>
</g>
<!-- models/Todo/TodoModel.ts&#45;&gt;models/Todo/TodoElemSchema.ts -->
<g id="edge30" class="edge">
<title>models/Todo/TodoModel.ts&#45;&gt;models/Todo/TodoElemSchema.ts</title>
<path fill="none" stroke="#757575" d="M1183.66,-71.54C1199.18,-71.54 1215.47,-71.54 1231.64,-71.54"/>
<polygon fill="#757575" stroke="#757575" points="1231.29,-75.04 1241.29,-71.54 1231.29,-68.04 1231.29,-75.04"/>
</g>
</g>
</svg>
