<?xml version="1.0" encoding="UTF-8" standalone="no"?>
<!DOCTYPE svg PUBLIC "-//W3C//DTD SVG 1.1//EN"
 "http://www.w3.org/Graphics/SVG/1.1/DTD/svg11.dtd">
<!-- Generated by graphviz version 7.0.2 (20221119.0110)
 -->
<!-- Title: G Pages: 1 -->
<svg width="1719pt" height="728pt"
 viewBox="0.00 0.00 1719.20 728.20" xmlns="http://www.w3.org/2000/svg" xmlns:xlink="http://www.w3.org/1999/xlink">
<g id="graph0" class="graph" transform="scale(1 1) rotate(0) translate(21.6 706.6)">
<title>G</title>
<polygon fill="#111111" stroke="none" points="-21.6,21.6 -21.6,-706.6 1697.6,-706.6 1697.6,21.6 -21.6,21.6"/>
<!-- app.ts -->
<g id="node1" class="node">
<title>app.ts</title>
<path fill="none" stroke="#c6c5fe" d="M48.33,-547C48.33,-547 7.67,-547 7.67,-547 3.83,-547 0,-543.17 0,-539.33 0,-539.33 0,-531.67 0,-531.67 0,-527.83 3.83,-524 7.67,-524 7.67,-524 48.33,-524 48.33,-524 52.17,-524 56,-527.83 56,-531.67 56,-531.67 56,-539.33 56,-539.33 56,-543.17 52.17,-547 48.33,-547"/>
<text text-anchor="middle" x="28" y="-531.8" font-family="Arial" font-size="14.00" fill="#c6c5fe">app.ts</text>
</g>
<!-- env/env.ts -->
<g id="node2" class="node">
<title>env/env.ts</title>
<path fill="none" stroke="#c6c5fe" d="M1389.83,-649C1389.83,-649 1325.17,-649 1325.17,-649 1321.33,-649 1317.5,-645.17 1317.5,-641.33 1317.5,-641.33 1317.5,-633.67 1317.5,-633.67 1317.5,-629.83 1321.33,-626 1325.17,-626 1325.17,-626 1389.83,-626 1389.83,-626 1393.67,-626 1397.5,-629.83 1397.5,-633.67 1397.5,-633.67 1397.5,-641.33 1397.5,-641.33 1397.5,-645.17 1393.67,-649 1389.83,-649"/>
<text text-anchor="middle" x="1357.5" y="-633.8" font-family="Arial" font-size="14.00" fill="#c6c5fe">env/env.ts</text>
</g>
<!-- app.ts&#45;&gt;env/env.ts -->
<g id="edge1" class="edge">
<title>app.ts&#45;&gt;env/env.ts</title>
<path fill="none" stroke="#757575" d="M43,-547.47C55.15,-557.17 73.62,-570.36 92,-577.5 260.72,-643.02 313.5,-639.5 494.5,-639.5 494.5,-639.5 494.5,-639.5 788,-639.5 979.11,-639.5 1206.35,-638.36 1305.74,-637.8"/>
<polygon fill="#757575" stroke="#757575" points="1305.72,-641.3 1315.7,-637.74 1305.68,-634.3 1305.72,-641.3"/>
</g>
<!-- middleware/auth&#45;middleware.ts -->
<g id="node3" class="node">
<title>middleware/auth&#45;middleware.ts</title>
<path fill="none" stroke="#c6c5fe" d="M885.33,-446C885.33,-446 688.67,-446 688.67,-446 684.83,-446 681,-442.17 681,-438.33 681,-438.33 681,-430.67 681,-430.67 681,-426.83 684.83,-423 688.67,-423 688.67,-423 885.33,-423 885.33,-423 889.17,-423 893,-426.83 893,-430.67 893,-430.67 893,-438.33 893,-438.33 893,-442.17 889.17,-446 885.33,-446"/>
<text text-anchor="middle" x="787" y="-430.8" font-family="Arial" font-size="14.00" fill="#c6c5fe">middleware/auth&#45;middleware.ts</text>
</g>
<!-- app.ts&#45;&gt;middleware/auth&#45;middleware.ts -->
<g id="edge2" class="edge">
<title>app.ts&#45;&gt;middleware/auth&#45;middleware.ts</title>
<path fill="none" stroke="#757575" d="M42.99,-523.81C55.13,-514.4 73.59,-501.74 92,-495.5 286.63,-429.56 528.59,-424.27 669.34,-428.18"/>
<polygon fill="#757575" stroke="#757575" points="668.94,-431.67 679.04,-428.47 669.15,-424.67 668.94,-431.67"/>
</g>
<!-- middleware/catchError&#45;middleware.ts -->
<g id="node4" class="node">
<title>middleware/catchError&#45;middleware.ts</title>
<path fill="none" stroke="#c6c5fe" d="M335.33,-568C335.33,-568 99.67,-568 99.67,-568 95.83,-568 92,-564.17 92,-560.33 92,-560.33 92,-552.67 92,-552.67 92,-548.83 95.83,-545 99.67,-545 99.67,-545 335.33,-545 335.33,-545 339.17,-545 343,-548.83 343,-552.67 343,-552.67 343,-560.33 343,-560.33 343,-564.17 339.17,-568 335.33,-568"/>
<text text-anchor="middle" x="217.5" y="-552.8" font-family="Arial" font-size="14.00" fill="#c6c5fe">middleware/catchError&#45;middleware.ts</text>
</g>
<!-- app.ts&#45;&gt;middleware/catchError&#45;middleware.ts -->
<g id="edge3" class="edge">
<title>app.ts&#45;&gt;middleware/catchError&#45;middleware.ts</title>
<path fill="none" stroke="#757575" d="M56.26,-538.55C67.95,-539.86 82.48,-541.49 97.98,-543.23"/>
<polygon fill="#757575" stroke="#757575" points="97.58,-546.7 107.91,-544.34 98.36,-539.75 97.58,-546.7"/>
</g>
<!-- routers/auth&#45;router.ts -->
<g id="node5" class="node">
<title>routers/auth&#45;router.ts</title>
<path fill="none" stroke="#c6c5fe" d="M283.33,-527C283.33,-527 151.67,-527 151.67,-527 147.83,-527 144,-523.17 144,-519.33 144,-519.33 144,-511.67 144,-511.67 144,-507.83 147.83,-504 151.67,-504 151.67,-504 283.33,-504 283.33,-504 287.17,-504 291,-507.83 291,-511.67 291,-511.67 291,-519.33 291,-519.33 291,-523.17 287.17,-527 283.33,-527"/>
<text text-anchor="middle" x="217.5" y="-511.8" font-family="Arial" font-size="14.00" fill="#c6c5fe">routers/auth&#45;router.ts</text>
</g>
<!-- app.ts&#45;&gt;routers/auth&#45;router.ts -->
<g id="edge4" class="edge">
<title>app.ts&#45;&gt;routers/auth&#45;router.ts</title>
<path fill="none" stroke="#757575" d="M56.26,-532.59C76.44,-530.44 105.08,-527.39 132.57,-524.45"/>
<polygon fill="#757575" stroke="#757575" points="132.77,-527.95 142.35,-523.41 132.03,-520.99 132.77,-527.95"/>
</g>
<!-- routers/todo&#45;router.ts -->
<g id="node6" class="node">
<title>routers/todo&#45;router.ts</title>
<path fill="none" stroke="#c6c5fe" d="M284.33,-346C284.33,-346 150.67,-346 150.67,-346 146.83,-346 143,-342.17 143,-338.33 143,-338.33 143,-330.67 143,-330.67 143,-326.83 146.83,-323 150.67,-323 150.67,-323 284.33,-323 284.33,-323 288.17,-323 292,-326.83 292,-330.67 292,-330.67 292,-338.33 292,-338.33 292,-342.17 288.17,-346 284.33,-346"/>
<text text-anchor="middle" x="217.5" y="-330.8" font-family="Arial" font-size="14.00" fill="#c6c5fe">routers/todo&#45;router.ts</text>
</g>
<!-- app.ts&#45;&gt;routers/todo&#45;router.ts -->
<g id="edge5" class="edge">
<title>app.ts&#45;&gt;routers/todo&#45;router.ts</title>
<path fill="none" stroke="#757575" d="M35.45,-523.79C45.96,-505.27 68.01,-468.54 92,-441.5 122.66,-406.94 164.41,-373.25 190.91,-353.18"/>
<polygon fill="#757575" stroke="#757575" points="192.81,-356.13 198.72,-347.33 188.62,-350.52 192.81,-356.13"/>
</g>
<!-- utils/filesystem/paths.ts -->
<g id="node7" class="node">
<title>utils/filesystem/paths.ts</title>
<path fill="none" stroke="#cfffac" d="M1668.33,-669C1668.33,-669 1520.67,-669 1520.67,-669 1516.83,-669 1513,-665.17 1513,-661.33 1513,-661.33 1513,-653.67 1513,-653.67 1513,-649.83 1516.83,-646 1520.67,-646 1520.67,-646 1668.33,-646 1668.33,-646 1672.17,-646 1676,-649.83 1676,-653.67 1676,-653.67 1676,-661.33 1676,-661.33 1676,-665.17 1672.17,-669 1668.33,-669"/>
<text text-anchor="middle" x="1594.5" y="-653.8" font-family="Arial" font-size="14.00" fill="#cfffac">utils/filesystem/paths.ts</text>
</g>
<!-- app.ts&#45;&gt;utils/filesystem/paths.ts -->
<g id="edge6" class="edge">
<title>app.ts&#45;&gt;utils/filesystem/paths.ts</title>
<path fill="none" stroke="#757575" d="M34.11,-547.48C42.9,-566.47 62.8,-603.12 92,-620.5 247.26,-712.9 313.83,-677.5 494.5,-677.5 494.5,-677.5 494.5,-677.5 1083,-677.5 1229.4,-677.5 1399.25,-669.19 1501.44,-663.28"/>
<polygon fill="#757575" stroke="#757575" points="1501.35,-666.79 1511.13,-662.71 1500.94,-659.8 1501.35,-666.79"/>
</g>
<!-- env/env.ts&#45;&gt;utils/filesystem/paths.ts -->
<g id="edge16" class="edge">
<title>env/env.ts&#45;&gt;utils/filesystem/paths.ts</title>
<path fill="none" stroke="#757575" d="M1397.83,-640.85C1426.13,-643.26 1465.51,-646.61 1501.52,-649.67"/>
<polygon fill="#757575" stroke="#757575" points="1500.8,-653.12 1511.06,-650.48 1501.4,-646.15 1500.8,-653.12"/>
</g>
<!-- types/middleware/IAuthRequest.ts -->
<g id="node15" class="node">
<title>types/middleware/IAuthRequest.ts</title>
<path fill="none" stroke="#c6c5fe" d="M1190.83,-244C1190.83,-244 973.17,-244 973.17,-244 969.33,-244 965.5,-240.17 965.5,-236.33 965.5,-236.33 965.5,-228.67 965.5,-228.67 965.5,-224.83 969.33,-221 973.17,-221 973.17,-221 1190.83,-221 1190.83,-221 1194.67,-221 1198.5,-224.83 1198.5,-228.67 1198.5,-228.67 1198.5,-236.33 1198.5,-236.33 1198.5,-240.17 1194.67,-244 1190.83,-244"/>
<text text-anchor="middle" x="1082" y="-228.8" font-family="Arial" font-size="14.00" fill="#c6c5fe">types/middleware/IAuthRequest.ts</text>
</g>
<!-- middleware/auth&#45;middleware.ts&#45;&gt;types/middleware/IAuthRequest.ts -->
<g id="edge18" class="edge">
<title>middleware/auth&#45;middleware.ts&#45;&gt;types/middleware/IAuthRequest.ts</title>
<path fill="none" stroke="#757575" d="M844.14,-422.56C872.28,-413.89 904.79,-399.35 926,-375.5 963.57,-333.25 919.84,-291.17 962,-253.5 963.1,-252.52 964.23,-251.57 965.39,-250.66"/>
<polygon fill="#757575" stroke="#757575" points="967.12,-253.72 973.48,-245.24 963.22,-247.9 967.12,-253.72"/>
</g>
<!-- services/auth/token&#45;service.ts -->
<g id="node20" class="node">
<title>services/auth/token&#45;service.ts</title>
<path fill="none" stroke="#c6c5fe" d="M1175.83,-447C1175.83,-447 988.17,-447 988.17,-447 984.33,-447 980.5,-443.17 980.5,-439.33 980.5,-439.33 980.5,-431.67 980.5,-431.67 980.5,-427.83 984.33,-424 988.17,-424 988.17,-424 1175.83,-424 1175.83,-424 1179.67,-424 1183.5,-427.83 1183.5,-431.67 1183.5,-431.67 1183.5,-439.33 1183.5,-439.33 1183.5,-443.17 1179.67,-447 1175.83,-447"/>
<text text-anchor="middle" x="1082" y="-431.8" font-family="Arial" font-size="14.00" fill="#c6c5fe">services/auth/token&#45;service.ts</text>
</g>
<!-- middleware/auth&#45;middleware.ts&#45;&gt;services/auth/token&#45;service.ts -->
<g id="edge17" class="edge">
<title>middleware/auth&#45;middleware.ts&#45;&gt;services/auth/token&#45;service.ts</title>
<path fill="none" stroke="#757575" d="M893.37,-434.86C917.98,-434.94 944.28,-435.03 969.16,-435.12"/>
<polygon fill="#757575" stroke="#757575" points="968.96,-438.62 978.97,-435.15 968.98,-431.62 968.96,-438.62"/>
</g>
<!-- utils/error/api&#45;error.ts -->
<g id="node21" class="node">
<title>utils/error/api&#45;error.ts</title>
<path fill="none" stroke="#cfffac" d="M1147.83,-406C1147.83,-406 1016.17,-406 1016.17,-406 1012.33,-406 1008.5,-402.17 1008.5,-398.33 1008.5,-398.33 1008.5,-390.67 1008.5,-390.67 1008.5,-386.83 1012.33,-383 1016.17,-383 1016.17,-383 1147.83,-383 1147.83,-383 1151.67,-383 1155.5,-386.83 1155.5,-390.67 1155.5,-390.67 1155.5,-398.33 1155.5,-398.33 1155.5,-402.17 1151.67,-406 1147.83,-406"/>
<text text-anchor="middle" x="1082" y="-390.8" font-family="Arial" font-size="14.00" fill="#cfffac">utils/error/api&#45;error.ts</text>
</g>
<!-- middleware/auth&#45;middleware.ts&#45;&gt;utils/error/api&#45;error.ts -->
<g id="edge19" class="edge">
<title>middleware/auth&#45;middleware.ts&#45;&gt;utils/error/api&#45;error.ts</title>
<path fill="none" stroke="#757575" d="M875.51,-422.55C914.04,-417.29 959.09,-411.14 997.18,-405.94"/>
<polygon fill="#757575" stroke="#757575" points="997.31,-409.46 1006.74,-404.64 996.36,-402.52 997.31,-409.46"/>
</g>
<!-- middleware/catchError&#45;middleware.ts&#45;&gt;utils/error/api&#45;error.ts -->
<g id="edge20" class="edge">
<title>middleware/catchError&#45;middleware.ts&#45;&gt;utils/error/api&#45;error.ts</title>
<path fill="none" stroke="#757575" d="M343.11,-560.98C533.89,-566.67 881.1,-572.02 926,-537.5 970.82,-503.05 919.84,-453.17 962,-415.5 971.96,-406.6 984.33,-400.83 997.29,-397.18"/>
<polygon fill="#757575" stroke="#757575" points="997.87,-400.64 1006.8,-394.94 996.27,-393.82 997.87,-400.64"/>
</g>
<!-- controllers/auth&#45;controller.ts -->
<g id="node8" class="node">
<title>controllers/auth&#45;controller.ts</title>
<path fill="none" stroke="#c6c5fe" d="M583.33,-528C583.33,-528 407.67,-528 407.67,-528 403.83,-528 400,-524.17 400,-520.33 400,-520.33 400,-512.67 400,-512.67 400,-508.83 403.83,-505 407.67,-505 407.67,-505 583.33,-505 583.33,-505 587.17,-505 591,-508.83 591,-512.67 591,-512.67 591,-520.33 591,-520.33 591,-524.17 587.17,-528 583.33,-528"/>
<text text-anchor="middle" x="495.5" y="-512.8" font-family="Arial" font-size="14.00" fill="#c6c5fe">controllers/auth&#45;controller.ts</text>
</g>
<!-- routers/auth&#45;router.ts&#45;&gt;controllers/auth&#45;controller.ts -->
<g id="edge29" class="edge">
<title>routers/auth&#45;router.ts&#45;&gt;controllers/auth&#45;controller.ts</title>
<path fill="none" stroke="#757575" d="M291.38,-515.76C321.02,-515.87 355.87,-516 388.25,-516.12"/>
<polygon fill="#757575" stroke="#757575" points="388.06,-519.61 398.07,-516.15 388.09,-512.61 388.06,-519.61"/>
</g>
<!-- middleware/validate&#45;middleware.ts -->
<g id="node22" class="node">
<title>middleware/validate&#45;middleware.ts</title>
<path fill="none" stroke="#c6c5fe" d="M604.33,-346C604.33,-346 386.67,-346 386.67,-346 382.83,-346 379,-342.17 379,-338.33 379,-338.33 379,-330.67 379,-330.67 379,-326.83 382.83,-323 386.67,-323 386.67,-323 604.33,-323 604.33,-323 608.17,-323 612,-326.83 612,-330.67 612,-330.67 612,-338.33 612,-338.33 612,-342.17 608.17,-346 604.33,-346"/>
<text text-anchor="middle" x="495.5" y="-330.8" font-family="Arial" font-size="14.00" fill="#c6c5fe">middleware/validate&#45;middleware.ts</text>
</g>
<!-- routers/auth&#45;router.ts&#45;&gt;middleware/validate&#45;middleware.ts -->
<g id="edge30" class="edge">
<title>routers/auth&#45;router.ts&#45;&gt;middleware/validate&#45;middleware.ts</title>
<path fill="none" stroke="#757575" d="M236.61,-503.62C283.79,-472.69 410.71,-389.45 466.98,-352.55"/>
<polygon fill="#757575" stroke="#757575" points="468.62,-355.66 475.06,-347.25 464.78,-349.81 468.62,-355.66"/>
</g>
<!-- controllers/todo&#45;controller.ts -->
<g id="node12" class="node">
<title>controllers/todo&#45;controller.ts</title>
<path fill="none" stroke="#c6c5fe" d="M584.33,-165C584.33,-165 406.67,-165 406.67,-165 402.83,-165 399,-161.17 399,-157.33 399,-157.33 399,-149.67 399,-149.67 399,-145.83 402.83,-142 406.67,-142 406.67,-142 584.33,-142 584.33,-142 588.17,-142 592,-145.83 592,-149.67 592,-149.67 592,-157.33 592,-157.33 592,-161.17 588.17,-165 584.33,-165"/>
<text text-anchor="middle" x="495.5" y="-149.8" font-family="Arial" font-size="14.00" fill="#c6c5fe">controllers/todo&#45;controller.ts</text>
</g>
<!-- routers/todo&#45;router.ts&#45;&gt;controllers/todo&#45;controller.ts -->
<g id="edge31" class="edge">
<title>routers/todo&#45;router.ts&#45;&gt;controllers/todo&#45;controller.ts</title>
<path fill="none" stroke="#757575" d="M236.61,-322.62C283.79,-291.69 410.71,-208.45 466.98,-171.55"/>
<polygon fill="#757575" stroke="#757575" points="468.62,-174.66 475.06,-166.25 464.78,-168.81 468.62,-174.66"/>
</g>
<!-- routers/todo&#45;router.ts&#45;&gt;middleware/validate&#45;middleware.ts -->
<g id="edge32" class="edge">
<title>routers/todo&#45;router.ts&#45;&gt;middleware/validate&#45;middleware.ts</title>
<path fill="none" stroke="#757575" d="M292.46,-334.5C315.55,-334.5 341.72,-334.5 367.37,-334.5"/>
<polygon fill="#757575" stroke="#757575" points="367.21,-338 377.21,-334.5 367.21,-331 367.21,-338"/>
</g>
<!-- services/auth/user&#45;service.ts -->
<g id="node9" class="node">
<title>services/auth/user&#45;service.ts</title>
<path fill="none" stroke="#c6c5fe" d="M877.83,-608C877.83,-608 696.17,-608 696.17,-608 692.33,-608 688.5,-604.17 688.5,-600.33 688.5,-600.33 688.5,-592.67 688.5,-592.67 688.5,-588.83 692.33,-585 696.17,-585 696.17,-585 877.83,-585 877.83,-585 881.67,-585 885.5,-588.83 885.5,-592.67 885.5,-592.67 885.5,-600.33 885.5,-600.33 885.5,-604.17 881.67,-608 877.83,-608"/>
<text text-anchor="middle" x="787" y="-592.8" font-family="Arial" font-size="14.00" fill="#c6c5fe">services/auth/user&#45;service.ts</text>
</g>
<!-- controllers/auth&#45;controller.ts&#45;&gt;services/auth/user&#45;service.ts -->
<g id="edge7" class="edge">
<title>controllers/auth&#45;controller.ts&#45;&gt;services/auth/user&#45;service.ts</title>
<path fill="none" stroke="#757575" d="M539.84,-528.48C591.05,-542.63 676.28,-566.18 731.8,-581.52"/>
<polygon fill="#757575" stroke="#757575" points="730.81,-584.88 741.38,-584.17 732.67,-578.13 730.81,-584.88"/>
</g>
<!-- types/controllers/ICookieRequest.ts -->
<g id="node10" class="node">
<title>types/controllers/ICookieRequest.ts</title>
<path fill="none" stroke="#cfffac" d="M900.83,-528C900.83,-528 673.17,-528 673.17,-528 669.33,-528 665.5,-524.17 665.5,-520.33 665.5,-520.33 665.5,-512.67 665.5,-512.67 665.5,-508.83 669.33,-505 673.17,-505 673.17,-505 900.83,-505 900.83,-505 904.67,-505 908.5,-508.83 908.5,-512.67 908.5,-512.67 908.5,-520.33 908.5,-520.33 908.5,-524.17 904.67,-528 900.83,-528"/>
<text text-anchor="middle" x="787" y="-512.8" font-family="Arial" font-size="14.00" fill="#cfffac">types/controllers/ICookieRequest.ts</text>
</g>
<!-- controllers/auth&#45;controller.ts&#45;&gt;types/controllers/ICookieRequest.ts -->
<g id="edge8" class="edge">
<title>controllers/auth&#45;controller.ts&#45;&gt;types/controllers/ICookieRequest.ts</title>
<path fill="none" stroke="#757575" d="M591.29,-516.5C611.28,-516.5 632.72,-516.5 653.8,-516.5"/>
<polygon fill="#757575" stroke="#757575" points="653.61,-520 663.61,-516.5 653.61,-513 653.61,-520"/>
</g>
<!-- types/controllers/IRegisterLogin.ts -->
<g id="node11" class="node">
<title>types/controllers/IRegisterLogin.ts</title>
<path fill="none" stroke="#cfffac" d="M895.83,-487C895.83,-487 678.17,-487 678.17,-487 674.33,-487 670.5,-483.17 670.5,-479.33 670.5,-479.33 670.5,-471.67 670.5,-471.67 670.5,-467.83 674.33,-464 678.17,-464 678.17,-464 895.83,-464 895.83,-464 899.67,-464 903.5,-467.83 903.5,-471.67 903.5,-471.67 903.5,-479.33 903.5,-479.33 903.5,-483.17 899.67,-487 895.83,-487"/>
<text text-anchor="middle" x="787" y="-471.8" font-family="Arial" font-size="14.00" fill="#cfffac">types/controllers/IRegisterLogin.ts</text>
</g>
<!-- controllers/auth&#45;controller.ts&#45;&gt;types/controllers/IRegisterLogin.ts -->
<g id="edge9" class="edge">
<title>controllers/auth&#45;controller.ts&#45;&gt;types/controllers/IRegisterLogin.ts</title>
<path fill="none" stroke="#757575" d="M581.01,-504.53C615.2,-499.69 654.84,-494.08 690.1,-489.08"/>
<polygon fill="#757575" stroke="#757575" points="690.47,-492.56 699.88,-487.7 689.49,-485.63 690.47,-492.56"/>
</g>
<!-- dto/user&#45;dto.ts -->
<g id="node19" class="node">
<title>dto/user&#45;dto.ts</title>
<path fill="none" stroke="#cfffac" d="M1128.33,-529C1128.33,-529 1035.67,-529 1035.67,-529 1031.83,-529 1028,-525.17 1028,-521.33 1028,-521.33 1028,-513.67 1028,-513.67 1028,-509.83 1031.83,-506 1035.67,-506 1035.67,-506 1128.33,-506 1128.33,-506 1132.17,-506 1136,-509.83 1136,-513.67 1136,-513.67 1136,-521.33 1136,-521.33 1136,-525.17 1132.17,-529 1128.33,-529"/>
<text text-anchor="middle" x="1082" y="-513.8" font-family="Arial" font-size="14.00" fill="#cfffac">dto/user&#45;dto.ts</text>
</g>
<!-- services/auth/user&#45;service.ts&#45;&gt;dto/user&#45;dto.ts -->
<g id="edge37" class="edge">
<title>services/auth/user&#45;service.ts&#45;&gt;dto/user&#45;dto.ts</title>
<path fill="none" stroke="#757575" d="M885.91,-584.9C899.77,-581.31 913.53,-576.62 926,-570.5 945.22,-561.06 942.73,-547.82 962,-538.5 978.73,-530.4 998.14,-525.4 1016.36,-522.31"/>
<polygon fill="#757575" stroke="#757575" points="1016.66,-525.8 1026.03,-520.85 1015.62,-518.88 1016.66,-525.8"/>
</g>
<!-- services/auth/user&#45;service.ts&#45;&gt;services/auth/token&#45;service.ts -->
<g id="edge39" class="edge">
<title>services/auth/user&#45;service.ts&#45;&gt;services/auth/token&#45;service.ts</title>
<path fill="none" stroke="#757575" d="M885.8,-591.72C900.54,-587.33 914.6,-580.61 926,-570.5 965.75,-535.24 922.05,-491.53 962,-456.5 964.55,-454.26 967.25,-452.23 970.08,-450.37"/>
<polygon fill="#757575" stroke="#757575" points="971.79,-453.42 978.8,-445.48 968.37,-447.32 971.79,-453.42"/>
</g>
<!-- services/auth/user&#45;service.ts&#45;&gt;utils/error/api&#45;error.ts -->
<g id="edge42" class="edge">
<title>services/auth/user&#45;service.ts&#45;&gt;utils/error/api&#45;error.ts</title>
<path fill="none" stroke="#757575" d="M885.79,-592.68C900.7,-588.21 914.83,-581.21 926,-570.5 977.05,-521.55 910.67,-464.15 962,-415.5 971.75,-406.25 984.08,-400.32 997.08,-396.62"/>
<polygon fill="#757575" stroke="#757575" points="997.71,-400.07 1006.64,-394.36 996.1,-393.26 997.71,-400.07"/>
</g>
<!-- models/UserModel.ts -->
<g id="node29" class="node">
<title>models/UserModel.ts</title>
<path fill="none" stroke="#cfffac" d="M1150.33,-488C1150.33,-488 1013.67,-488 1013.67,-488 1009.83,-488 1006,-484.17 1006,-480.33 1006,-480.33 1006,-472.67 1006,-472.67 1006,-468.83 1009.83,-465 1013.67,-465 1013.67,-465 1150.33,-465 1150.33,-465 1154.17,-465 1158,-468.83 1158,-472.67 1158,-472.67 1158,-480.33 1158,-480.33 1158,-484.17 1154.17,-488 1150.33,-488"/>
<text text-anchor="middle" x="1082" y="-472.8" font-family="Arial" font-size="14.00" fill="#cfffac">models/UserModel.ts</text>
</g>
<!-- services/auth/user&#45;service.ts&#45;&gt;models/UserModel.ts -->
<g id="edge38" class="edge">
<title>services/auth/user&#45;service.ts&#45;&gt;models/UserModel.ts</title>
<path fill="none" stroke="#757575" d="M885.97,-589.78C900.35,-585.58 914.25,-579.42 926,-570.5 954.81,-548.62 933.06,-519.21 962,-497.5 971.64,-490.27 982.94,-485.23 994.67,-481.75"/>
<polygon fill="#757575" stroke="#757575" points="995.24,-485.22 1004.06,-479.36 993.51,-478.44 995.24,-485.22"/>
</g>
<!-- types/services/IUserData.ts -->
<g id="node31" class="node">
<title>types/services/IUserData.ts</title>
<path fill="none" stroke="#cfffac" d="M1169.83,-611C1169.83,-611 994.17,-611 994.17,-611 990.33,-611 986.5,-607.17 986.5,-603.33 986.5,-603.33 986.5,-595.67 986.5,-595.67 986.5,-591.83 990.33,-588 994.17,-588 994.17,-588 1169.83,-588 1169.83,-588 1173.67,-588 1177.5,-591.83 1177.5,-595.67 1177.5,-595.67 1177.5,-603.33 1177.5,-603.33 1177.5,-607.17 1173.67,-611 1169.83,-611"/>
<text text-anchor="middle" x="1082" y="-595.8" font-family="Arial" font-size="14.00" fill="#cfffac">types/services/IUserData.ts</text>
</g>
<!-- services/auth/user&#45;service.ts&#45;&gt;types/services/IUserData.ts -->
<g id="edge40" class="edge">
<title>services/auth/user&#45;service.ts&#45;&gt;types/services/IUserData.ts</title>
<path fill="none" stroke="#757575" d="M885.97,-597.5C914.46,-597.79 945.72,-598.11 974.7,-598.41"/>
<polygon fill="#757575" stroke="#757575" points="974.55,-601.91 984.59,-598.51 974.63,-594.91 974.55,-601.91"/>
</g>
<!-- utils/crypto/hashing.ts -->
<g id="node32" class="node">
<title>utils/crypto/hashing.ts</title>
<path fill="none" stroke="#cfffac" d="M1150.33,-570C1150.33,-570 1013.67,-570 1013.67,-570 1009.83,-570 1006,-566.17 1006,-562.33 1006,-562.33 1006,-554.67 1006,-554.67 1006,-550.83 1009.83,-547 1013.67,-547 1013.67,-547 1150.33,-547 1150.33,-547 1154.17,-547 1158,-550.83 1158,-554.67 1158,-554.67 1158,-562.33 1158,-562.33 1158,-566.17 1154.17,-570 1150.33,-570"/>
<text text-anchor="middle" x="1082" y="-554.8" font-family="Arial" font-size="14.00" fill="#cfffac">utils/crypto/hashing.ts</text>
</g>
<!-- services/auth/user&#45;service.ts&#45;&gt;utils/crypto/hashing.ts -->
<g id="edge41" class="edge">
<title>services/auth/user&#45;service.ts&#45;&gt;utils/crypto/hashing.ts</title>
<path fill="none" stroke="#757575" d="M880.3,-584.53C916.94,-579.78 958.84,-574.34 994.85,-569.67"/>
<polygon fill="#757575" stroke="#757575" points="994.85,-573.2 1004.32,-568.45 993.95,-566.26 994.85,-573.2"/>
</g>
<!-- services/logic/todo&#45;service.ts -->
<g id="node13" class="node">
<title>services/logic/todo&#45;service.ts</title>
<path fill="none" stroke="#c6c5fe" d="M879.83,-85C879.83,-85 694.17,-85 694.17,-85 690.33,-85 686.5,-81.17 686.5,-77.33 686.5,-77.33 686.5,-69.67 686.5,-69.67 686.5,-65.83 690.33,-62 694.17,-62 694.17,-62 879.83,-62 879.83,-62 883.67,-62 887.5,-65.83 887.5,-69.67 887.5,-69.67 887.5,-77.33 887.5,-77.33 887.5,-81.17 883.67,-85 879.83,-85"/>
<text text-anchor="middle" x="787" y="-69.8" font-family="Arial" font-size="14.00" fill="#c6c5fe">services/logic/todo&#45;service.ts</text>
</g>
<!-- controllers/todo&#45;controller.ts&#45;&gt;services/logic/todo&#45;service.ts -->
<g id="edge10" class="edge">
<title>controllers/todo&#45;controller.ts&#45;&gt;services/logic/todo&#45;service.ts</title>
<path fill="none" stroke="#757575" d="M525.68,-141.56C555.87,-129.57 604.61,-111.24 648,-99.5 664.51,-95.03 682.33,-91.06 699.5,-87.65"/>
<polygon fill="#757575" stroke="#757575" points="700.03,-91.11 709.19,-85.78 698.7,-84.24 700.03,-91.11"/>
</g>
<!-- types/controllers/ICreateTodoRequest.ts -->
<g id="node14" class="node">
<title>types/controllers/ICreateTodoRequest.ts</title>
<path fill="none" stroke="#c6c5fe" d="M916.83,-165C916.83,-165 657.17,-165 657.17,-165 653.33,-165 649.5,-161.17 649.5,-157.33 649.5,-157.33 649.5,-149.67 649.5,-149.67 649.5,-145.83 653.33,-142 657.17,-142 657.17,-142 916.83,-142 916.83,-142 920.67,-142 924.5,-145.83 924.5,-149.67 924.5,-149.67 924.5,-157.33 924.5,-157.33 924.5,-161.17 920.67,-165 916.83,-165"/>
<text text-anchor="middle" x="787" y="-149.8" font-family="Arial" font-size="14.00" fill="#c6c5fe">types/controllers/ICreateTodoRequest.ts</text>
</g>
<!-- controllers/todo&#45;controller.ts&#45;&gt;types/controllers/ICreateTodoRequest.ts -->
<g id="edge11" class="edge">
<title>controllers/todo&#45;controller.ts&#45;&gt;types/controllers/ICreateTodoRequest.ts</title>
<path fill="none" stroke="#757575" d="M592.5,-153.5C607.13,-153.5 622.52,-153.5 637.96,-153.5"/>
<polygon fill="#757575" stroke="#757575" points="637.68,-157 647.68,-153.5 637.68,-150 637.68,-157"/>
</g>
<!-- controllers/todo&#45;controller.ts&#45;&gt;types/middleware/IAuthRequest.ts -->
<g id="edge12" class="edge">
<title>controllers/todo&#45;controller.ts&#45;&gt;types/middleware/IAuthRequest.ts</title>
<path fill="none" stroke="#757575" d="M582.22,-165.45C603.7,-168.43 626.69,-171.6 648,-174.5 761.39,-189.95 891.54,-207.34 979.3,-219.01"/>
<polygon fill="#757575" stroke="#757575" points="978.71,-222.46 989.09,-220.31 979.64,-215.52 978.71,-222.46"/>
</g>
<!-- types/middleware/IGetAllTodoRequest.ts -->
<g id="node16" class="node">
<title>types/middleware/IGetAllTodoRequest.ts</title>
<path fill="none" stroke="#c6c5fe" d="M918.33,-245C918.33,-245 655.67,-245 655.67,-245 651.83,-245 648,-241.17 648,-237.33 648,-237.33 648,-229.67 648,-229.67 648,-225.83 651.83,-222 655.67,-222 655.67,-222 918.33,-222 918.33,-222 922.17,-222 926,-225.83 926,-229.67 926,-229.67 926,-237.33 926,-237.33 926,-241.17 922.17,-245 918.33,-245"/>
<text text-anchor="middle" x="787" y="-229.8" font-family="Arial" font-size="14.00" fill="#c6c5fe">types/middleware/IGetAllTodoRequest.ts</text>
</g>
<!-- controllers/todo&#45;controller.ts&#45;&gt;types/middleware/IGetAllTodoRequest.ts -->
<g id="edge13" class="edge">
<title>controllers/todo&#45;controller.ts&#45;&gt;types/middleware/IGetAllTodoRequest.ts</title>
<path fill="none" stroke="#757575" d="M525.68,-165.44C555.87,-177.43 604.61,-195.76 648,-207.5 664.51,-211.97 682.33,-215.94 699.5,-219.35"/>
<polygon fill="#757575" stroke="#757575" points="698.7,-222.76 709.19,-221.22 700.03,-215.89 698.7,-222.76"/>
</g>
<!-- types/services/ITodoPayload.ts -->
<g id="node17" class="node">
<title>types/services/ITodoPayload.ts</title>
<path fill="none" stroke="#c6c5fe" d="M1182.33,-23C1182.33,-23 981.67,-23 981.67,-23 977.83,-23 974,-19.17 974,-15.33 974,-15.33 974,-7.67 974,-7.67 974,-3.83 977.83,0 981.67,0 981.67,0 1182.33,0 1182.33,0 1186.17,0 1190,-3.83 1190,-7.67 1190,-7.67 1190,-15.33 1190,-15.33 1190,-19.17 1186.17,-23 1182.33,-23"/>
<text text-anchor="middle" x="1082" y="-7.8" font-family="Arial" font-size="14.00" fill="#c6c5fe">types/services/ITodoPayload.ts</text>
</g>
<!-- controllers/todo&#45;controller.ts&#45;&gt;types/services/ITodoPayload.ts -->
<g id="edge14" class="edge">
<title>controllers/todo&#45;controller.ts&#45;&gt;types/services/ITodoPayload.ts</title>
<path fill="none" stroke="#757575" d="M509.48,-141.66C534.26,-119.84 590.96,-73.68 648,-53.5 749.98,-17.42 873.38,-8.57 962.31,-7.77"/>
<polygon fill="#757575" stroke="#757575" points="962.31,-11.27 972.29,-7.71 962.27,-4.27 962.31,-11.27"/>
</g>
<!-- types/services/IUserPayload.ts -->
<g id="node18" class="node">
<title>types/services/IUserPayload.ts</title>
<path fill="none" stroke="#cfffac" d="M1455.83,-244C1455.83,-244 1259.17,-244 1259.17,-244 1255.33,-244 1251.5,-240.17 1251.5,-236.33 1251.5,-236.33 1251.5,-228.67 1251.5,-228.67 1251.5,-224.83 1255.33,-221 1259.17,-221 1259.17,-221 1455.83,-221 1455.83,-221 1459.67,-221 1463.5,-224.83 1463.5,-228.67 1463.5,-228.67 1463.5,-236.33 1463.5,-236.33 1463.5,-240.17 1459.67,-244 1455.83,-244"/>
<text text-anchor="middle" x="1357.5" y="-228.8" font-family="Arial" font-size="14.00" fill="#cfffac">types/services/IUserPayload.ts</text>
</g>
<!-- controllers/todo&#45;controller.ts&#45;&gt;types/services/IUserPayload.ts -->
<g id="edge15" class="edge">
<title>controllers/todo&#45;controller.ts&#45;&gt;types/services/IUserPayload.ts</title>
<path fill="none" stroke="#757575" d="M572.21,-141.52C596.37,-138.23 623.25,-135.13 648,-133.5 771.29,-125.4 803.23,-119.57 926,-133.5 1066.64,-149.46 1228.26,-193.87 1307.5,-217.41"/>
<polygon fill="#757575" stroke="#757575" points="1306.09,-220.64 1316.68,-220.15 1308.1,-213.93 1306.09,-220.64"/>
</g>
<!-- services/logic/todo&#45;service.ts&#45;&gt;types/services/ITodoPayload.ts -->
<g id="edge45" class="edge">
<title>services/logic/todo&#45;service.ts&#45;&gt;types/services/ITodoPayload.ts</title>
<path fill="none" stroke="#757575" d="M863.88,-61.5C884.25,-57.51 906.14,-52.51 926,-46.5 942.59,-41.48 945.34,-36.3 962,-31.5 969.17,-29.43 976.64,-27.56 984.2,-25.85"/>
<polygon fill="#757575" stroke="#757575" points="984.79,-29.31 993.84,-23.8 983.32,-22.46 984.79,-29.31"/>
</g>
<!-- models/Todo/TodoModel.ts -->
<g id="node27" class="node">
<title>models/Todo/TodoModel.ts</title>
<path fill="none" stroke="#c6c5fe" d="M1170.83,-105C1170.83,-105 993.17,-105 993.17,-105 989.33,-105 985.5,-101.17 985.5,-97.33 985.5,-97.33 985.5,-89.67 985.5,-89.67 985.5,-85.83 989.33,-82 993.17,-82 993.17,-82 1170.83,-82 1170.83,-82 1174.67,-82 1178.5,-85.83 1178.5,-89.67 1178.5,-89.67 1178.5,-97.33 1178.5,-97.33 1178.5,-101.17 1174.67,-105 1170.83,-105"/>
<text text-anchor="middle" x="1082" y="-89.8" font-family="Arial" font-size="14.00" fill="#c6c5fe">models/Todo/TodoModel.ts</text>
</g>
<!-- services/logic/todo&#45;service.ts&#45;&gt;models/Todo/TodoModel.ts -->
<g id="edge43" class="edge">
<title>services/logic/todo&#45;service.ts&#45;&gt;models/Todo/TodoModel.ts</title>
<path fill="none" stroke="#757575" d="M887.61,-80.3C915.43,-82.2 945.78,-84.27 974.02,-86.2"/>
<polygon fill="#757575" stroke="#757575" points="973.41,-89.66 983.63,-86.85 973.89,-82.68 973.41,-89.66"/>
</g>
<!-- types/services/IGetTodoSettings.ts -->
<g id="node33" class="node">
<title>types/services/IGetTodoSettings.ts</title>
<path fill="none" stroke="#cfffac" d="M1194.33,-64C1194.33,-64 969.67,-64 969.67,-64 965.83,-64 962,-60.17 962,-56.33 962,-56.33 962,-48.67 962,-48.67 962,-44.83 965.83,-41 969.67,-41 969.67,-41 1194.33,-41 1194.33,-41 1198.17,-41 1202,-44.83 1202,-48.67 1202,-48.67 1202,-56.33 1202,-56.33 1202,-60.17 1198.17,-64 1194.33,-64"/>
<text text-anchor="middle" x="1082" y="-48.8" font-family="Arial" font-size="14.00" fill="#cfffac">types/services/IGetTodoSettings.ts</text>
</g>
<!-- services/logic/todo&#45;service.ts&#45;&gt;types/services/IGetTodoSettings.ts -->
<g id="edge44" class="edge">
<title>services/logic/todo&#45;service.ts&#45;&gt;types/services/IGetTodoSettings.ts</title>
<path fill="none" stroke="#757575" d="M887.61,-66.36C907.79,-64.91 929.29,-63.37 950.36,-61.86"/>
<polygon fill="#757575" stroke="#757575" points="950.43,-65.37 960.15,-61.16 949.93,-58.39 950.43,-65.37"/>
</g>
<!-- types/controllers/ICreateTodoRequest.ts&#45;&gt;types/middleware/IAuthRequest.ts -->
<g id="edge46" class="edge">
<title>types/controllers/ICreateTodoRequest.ts&#45;&gt;types/middleware/IAuthRequest.ts</title>
<path fill="none" stroke="#757575" d="M862.2,-165.46C882.98,-169.36 905.49,-174.09 926,-179.5 965.24,-189.85 1008.88,-205.12 1039.84,-216.62"/>
<polygon fill="#757575" stroke="#757575" points="1038.22,-219.75 1048.81,-219.98 1040.68,-213.2 1038.22,-219.75"/>
</g>
<!-- types/services/ITodoBody.ts -->
<g id="node34" class="node">
<title>types/services/ITodoBody.ts</title>
<path fill="none" stroke="#cfffac" d="M1448.83,-44C1448.83,-44 1266.17,-44 1266.17,-44 1262.33,-44 1258.5,-40.17 1258.5,-36.33 1258.5,-36.33 1258.5,-28.67 1258.5,-28.67 1258.5,-24.83 1262.33,-21 1266.17,-21 1266.17,-21 1448.83,-21 1448.83,-21 1452.67,-21 1456.5,-24.83 1456.5,-28.67 1456.5,-28.67 1456.5,-36.33 1456.5,-36.33 1456.5,-40.17 1452.67,-44 1448.83,-44"/>
<text text-anchor="middle" x="1357.5" y="-28.8" font-family="Arial" font-size="14.00" fill="#cfffac">types/services/ITodoBody.ts</text>
</g>
<!-- types/controllers/ICreateTodoRequest.ts&#45;&gt;types/services/ITodoBody.ts -->
<g id="edge47" class="edge">
<title>types/controllers/ICreateTodoRequest.ts&#45;&gt;types/services/ITodoBody.ts</title>
<path fill="none" stroke="#757575" d="M924.61,-165.4C1008.9,-166.92 1116.81,-158 1202,-114.5 1223.6,-103.47 1217.87,-87.03 1238,-73.5 1254.46,-62.44 1274.22,-54.05 1292.84,-47.85"/>
<polygon fill="#757575" stroke="#757575" points="1293.71,-51.24 1302.19,-44.89 1291.6,-44.57 1293.71,-51.24"/>
</g>
<!-- types/middleware/IAuthRequest.ts&#45;&gt;types/services/IUserPayload.ts -->
<g id="edge48" class="edge">
<title>types/middleware/IAuthRequest.ts&#45;&gt;types/services/IUserPayload.ts</title>
<path fill="none" stroke="#757575" d="M1198.99,-232.5C1212.52,-232.5 1226.34,-232.5 1239.88,-232.5"/>
<polygon fill="#757575" stroke="#757575" points="1239.67,-236 1249.67,-232.5 1239.67,-229 1239.67,-236"/>
</g>
<!-- types/middleware/IGetAllTodoRequest.ts&#45;&gt;types/middleware/IAuthRequest.ts -->
<g id="edge49" class="edge">
<title>types/middleware/IGetAllTodoRequest.ts&#45;&gt;types/middleware/IAuthRequest.ts</title>
<path fill="none" stroke="#757575" d="M926.35,-233.03C935.52,-233 944.73,-232.97 953.84,-232.93"/>
<polygon fill="#757575" stroke="#757575" points="953.81,-236.43 963.8,-232.9 953.78,-229.43 953.81,-236.43"/>
</g>
<!-- types/services/ITodoPayload.ts&#45;&gt;types/services/ITodoBody.ts -->
<g id="edge50" class="edge">
<title>types/services/ITodoPayload.ts&#45;&gt;types/services/ITodoBody.ts</title>
<path fill="none" stroke="#757575" d="M1190.31,-19.74C1208.99,-21.17 1228.43,-22.67 1247.16,-24.1"/>
<polygon fill="#757575" stroke="#757575" points="1246.66,-27.58 1256.9,-24.85 1247.2,-20.6 1246.66,-27.58"/>
</g>
<!-- services/auth/token&#45;service.ts&#45;&gt;env/env.ts -->
<g id="edge33" class="edge">
<title>services/auth/token&#45;service.ts&#45;&gt;env/env.ts</title>
<path fill="none" stroke="#757575" d="M1182.29,-447.5C1189.16,-449.99 1195.81,-452.96 1202,-456.5 1270.37,-495.6 1322.59,-576.83 1344.8,-615.77"/>
<polygon fill="#757575" stroke="#757575" points="1341.71,-617.42 1349.63,-624.45 1347.82,-614.01 1341.71,-617.42"/>
</g>
<!-- services/auth/token&#45;service.ts&#45;&gt;types/services/IUserPayload.ts -->
<g id="edge36" class="edge">
<title>services/auth/token&#45;service.ts&#45;&gt;types/services/IUserPayload.ts</title>
<path fill="none" stroke="#757575" d="M1183.81,-423.87C1190.14,-421.53 1196.27,-418.77 1202,-415.5 1271.01,-376.16 1323.06,-293.63 1345.03,-254.27"/>
<polygon fill="#757575" stroke="#757575" points="1347.98,-256.17 1349.7,-245.72 1341.84,-252.82 1347.98,-256.17"/>
</g>
<!-- models/TokenModel.ts -->
<g id="node28" class="node">
<title>models/TokenModel.ts</title>
<path fill="none" stroke="#cfffac" d="M1430.33,-427C1430.33,-427 1284.67,-427 1284.67,-427 1280.83,-427 1277,-423.17 1277,-419.33 1277,-419.33 1277,-411.67 1277,-411.67 1277,-407.83 1280.83,-404 1284.67,-404 1284.67,-404 1430.33,-404 1430.33,-404 1434.17,-404 1438,-407.83 1438,-411.67 1438,-411.67 1438,-419.33 1438,-419.33 1438,-423.17 1434.17,-427 1430.33,-427"/>
<text text-anchor="middle" x="1357.5" y="-411.8" font-family="Arial" font-size="14.00" fill="#cfffac">models/TokenModel.ts</text>
</g>
<!-- services/auth/token&#45;service.ts&#45;&gt;models/TokenModel.ts -->
<g id="edge34" class="edge">
<title>services/auth/token&#45;service.ts&#45;&gt;models/TokenModel.ts</title>
<path fill="none" stroke="#757575" d="M1183.68,-428.14C1210.34,-426.19 1238.98,-424.09 1265.13,-422.18"/>
<polygon fill="#757575" stroke="#757575" points="1265.33,-425.68 1275.05,-421.46 1264.82,-418.7 1265.33,-425.68"/>
</g>
<!-- types/jwt/payload.ts -->
<g id="node30" class="node">
<title>types/jwt/payload.ts</title>
<path fill="none" stroke="#cfffac" d="M1419.83,-468C1419.83,-468 1295.17,-468 1295.17,-468 1291.33,-468 1287.5,-464.17 1287.5,-460.33 1287.5,-460.33 1287.5,-452.67 1287.5,-452.67 1287.5,-448.83 1291.33,-445 1295.17,-445 1295.17,-445 1419.83,-445 1419.83,-445 1423.67,-445 1427.5,-448.83 1427.5,-452.67 1427.5,-452.67 1427.5,-460.33 1427.5,-460.33 1427.5,-464.17 1423.67,-468 1419.83,-468"/>
<text text-anchor="middle" x="1357.5" y="-452.8" font-family="Arial" font-size="14.00" fill="#cfffac">types/jwt/payload.ts</text>
</g>
<!-- services/auth/token&#45;service.ts&#45;&gt;types/jwt/payload.ts -->
<g id="edge35" class="edge">
<title>services/auth/token&#45;service.ts&#45;&gt;types/jwt/payload.ts</title>
<path fill="none" stroke="#757575" d="M1183.68,-443.23C1214.06,-445.56 1247.01,-448.09 1275.91,-450.31"/>
<polygon fill="#757575" stroke="#757575" points="1275.44,-453.79 1285.68,-451.06 1275.98,-446.81 1275.44,-453.79"/>
</g>
<!-- middleware/validate&#45;middleware.ts&#45;&gt;types/controllers/IRegisterLogin.ts -->
<g id="edge22" class="edge">
<title>middleware/validate&#45;middleware.ts&#45;&gt;types/controllers/IRegisterLogin.ts</title>
<path fill="none" stroke="#757575" d="M506.89,-346.24C529.66,-371.11 586.85,-429 648,-455.5 651.84,-457.16 655.78,-458.69 659.8,-460.1"/>
<polygon fill="#757575" stroke="#757575" points="658.58,-463.38 669.17,-463.08 660.71,-456.71 658.58,-463.38"/>
</g>
<!-- middleware/validate&#45;middleware.ts&#45;&gt;types/controllers/ICreateTodoRequest.ts -->
<g id="edge21" class="edge">
<title>middleware/validate&#45;middleware.ts&#45;&gt;types/controllers/ICreateTodoRequest.ts</title>
<path fill="none" stroke="#757575" d="M509.01,-322.57C533.9,-299.31 592.06,-247.19 648,-213.5 677.64,-195.65 713.54,-180.22 741.29,-169.47"/>
<polygon fill="#757575" stroke="#757575" points="742.36,-172.81 750.47,-165.98 739.87,-166.26 742.36,-172.81"/>
</g>
<!-- middleware/validate&#45;middleware.ts&#45;&gt;types/middleware/IGetAllTodoRequest.ts -->
<g id="edge23" class="edge">
<title>middleware/validate&#45;middleware.ts&#45;&gt;types/middleware/IGetAllTodoRequest.ts</title>
<path fill="none" stroke="#757575" d="M515.85,-322.75C543.96,-306.2 598.18,-276.17 648,-259.5 661.73,-254.91 676.51,-251.05 691.12,-247.82"/>
<polygon fill="#757575" stroke="#757575" points="691.69,-251.28 700.75,-245.8 690.25,-244.43 691.69,-251.28"/>
</g>
<!-- middleware/validate&#45;middleware.ts&#45;&gt;utils/error/api&#45;error.ts -->
<g id="edge24" class="edge">
<title>middleware/validate&#45;middleware.ts&#45;&gt;utils/error/api&#45;error.ts</title>
<path fill="none" stroke="#757575" d="M531.84,-346.44C562.24,-356.14 607.48,-369.21 648,-375.5 768.08,-394.15 908.98,-396.83 996.64,-396.27"/>
<polygon fill="#757575" stroke="#757575" points="996.63,-399.77 1006.61,-396.19 996.58,-392.77 996.63,-399.77"/>
</g>
<!-- utils/validation/customValidator.ts -->
<g id="node23" class="node">
<title>utils/validation/customValidator.ts</title>
<path fill="none" stroke="#cfffac" d="M1186.33,-285C1186.33,-285 977.67,-285 977.67,-285 973.83,-285 970,-281.17 970,-277.33 970,-277.33 970,-269.67 970,-269.67 970,-265.83 973.83,-262 977.67,-262 977.67,-262 1186.33,-262 1186.33,-262 1190.17,-262 1194,-265.83 1194,-269.67 1194,-269.67 1194,-277.33 1194,-277.33 1194,-281.17 1190.17,-285 1186.33,-285"/>
<text text-anchor="middle" x="1082" y="-269.8" font-family="Arial" font-size="14.00" fill="#cfffac">utils/validation/customValidator.ts</text>
</g>
<!-- middleware/validate&#45;middleware.ts&#45;&gt;utils/validation/customValidator.ts -->
<g id="edge25" class="edge">
<title>middleware/validate&#45;middleware.ts&#45;&gt;utils/validation/customValidator.ts</title>
<path fill="none" stroke="#757575" d="M531.84,-322.58C562.25,-312.9 607.48,-299.84 648,-293.5 751.81,-277.25 871.2,-272.78 958.28,-272.07"/>
<polygon fill="#757575" stroke="#757575" points="958.05,-275.57 968.03,-272.01 958,-268.57 958.05,-275.57"/>
</g>
<!-- utils/validation/validateLogin.ts -->
<g id="node24" class="node">
<title>utils/validation/validateLogin.ts</title>
<path fill="none" stroke="#c6c5fe" d="M882.33,-325C882.33,-325 691.67,-325 691.67,-325 687.83,-325 684,-321.17 684,-317.33 684,-317.33 684,-309.67 684,-309.67 684,-305.83 687.83,-302 691.67,-302 691.67,-302 882.33,-302 882.33,-302 886.17,-302 890,-305.83 890,-309.67 890,-309.67 890,-317.33 890,-317.33 890,-321.17 886.17,-325 882.33,-325"/>
<text text-anchor="middle" x="787" y="-309.8" font-family="Arial" font-size="14.00" fill="#c6c5fe">utils/validation/validateLogin.ts</text>
</g>
<!-- middleware/validate&#45;middleware.ts&#45;&gt;utils/validation/validateLogin.ts -->
<g id="edge26" class="edge">
<title>middleware/validate&#45;middleware.ts&#45;&gt;utils/validation/validateLogin.ts</title>
<path fill="none" stroke="#757575" d="M612.17,-326.11C632.01,-324.67 652.61,-323.18 672.39,-321.74"/>
<polygon fill="#757575" stroke="#757575" points="672.38,-325.25 682.1,-321.04 671.88,-318.27 672.38,-325.25"/>
</g>
<!-- utils/validation/validatePassword.ts -->
<g id="node25" class="node">
<title>utils/validation/validatePassword.ts</title>
<path fill="none" stroke="#c6c5fe" d="M895.83,-366C895.83,-366 678.17,-366 678.17,-366 674.33,-366 670.5,-362.17 670.5,-358.33 670.5,-358.33 670.5,-350.67 670.5,-350.67 670.5,-346.83 674.33,-343 678.17,-343 678.17,-343 895.83,-343 895.83,-343 899.67,-343 903.5,-346.83 903.5,-350.67 903.5,-350.67 903.5,-358.33 903.5,-358.33 903.5,-362.17 899.67,-366 895.83,-366"/>
<text text-anchor="middle" x="787" y="-350.8" font-family="Arial" font-size="14.00" fill="#c6c5fe">utils/validation/validatePassword.ts</text>
</g>
<!-- middleware/validate&#45;middleware.ts&#45;&gt;utils/validation/validatePassword.ts -->
<g id="edge27" class="edge">
<title>middleware/validate&#45;middleware.ts&#45;&gt;utils/validation/validatePassword.ts</title>
<path fill="none" stroke="#757575" d="M612.17,-342.49C627.5,-343.55 643.29,-344.64 658.81,-345.71"/>
<polygon fill="#757575" stroke="#757575" points="658.32,-349.19 668.54,-346.38 658.8,-342.2 658.32,-349.19"/>
</g>
<!-- utils/validation/validateLogin.ts&#45;&gt;utils/error/api&#45;error.ts -->
<g id="edge51" class="edge">
<title>utils/validation/validateLogin.ts&#45;&gt;utils/error/api&#45;error.ts</title>
<path fill="none" stroke="#757575" d="M884.69,-325.47C898.66,-327.99 912.77,-330.98 926,-334.5 967.9,-345.66 1014.03,-364.39 1044.97,-377.96"/>
<polygon fill="#757575" stroke="#757575" points="1043.31,-381.05 1053.87,-381.91 1046.15,-374.65 1043.31,-381.05"/>
</g>
<!-- utils/validation/validateLogin.ts&#45;&gt;utils/validation/customValidator.ts -->
<g id="edge52" class="edge">
<title>utils/validation/validateLogin.ts&#45;&gt;utils/validation/customValidator.ts</title>
<path fill="none" stroke="#757575" d="M875.51,-301.55C909.06,-296.97 947.57,-291.72 982.11,-287"/>
<polygon fill="#757575" stroke="#757575" points="982.24,-290.51 991.68,-285.69 981.3,-283.58 982.24,-290.51"/>
</g>
<!-- utils/validation/validatePassword.ts&#45;&gt;utils/error/api&#45;error.ts -->
<g id="edge53" class="edge">
<title>utils/validation/validatePassword.ts&#45;&gt;utils/error/api&#45;error.ts</title>
<path fill="none" stroke="#757575" d="M875.51,-366.45C914.04,-371.71 959.09,-377.86 997.18,-383.06"/>
<polygon fill="#757575" stroke="#757575" points="996.36,-386.48 1006.74,-384.36 997.31,-379.54 996.36,-386.48"/>
</g>
<!-- models/Todo/TodoElemSchema.ts -->
<g id="node26" class="node">
<title>models/Todo/TodoElemSchema.ts</title>
<path fill="none" stroke="#cfffac" d="M1469.33,-105C1469.33,-105 1245.67,-105 1245.67,-105 1241.83,-105 1238,-101.17 1238,-97.33 1238,-97.33 1238,-89.67 1238,-89.67 1238,-85.83 1241.83,-82 1245.67,-82 1245.67,-82 1469.33,-82 1469.33,-82 1473.17,-82 1477,-85.83 1477,-89.67 1477,-89.67 1477,-97.33 1477,-97.33 1477,-101.17 1473.17,-105 1469.33,-105"/>
<text text-anchor="middle" x="1357.5" y="-89.8" font-family="Arial" font-size="14.00" fill="#cfffac">models/Todo/TodoElemSchema.ts</text>
</g>
<!-- models/Todo/TodoModel.ts&#45;&gt;models/Todo/TodoElemSchema.ts -->
<g id="edge28" class="edge">
<title>models/Todo/TodoModel.ts&#45;&gt;models/Todo/TodoElemSchema.ts</title>
<path fill="none" stroke="#757575" d="M1178.66,-93.5C1194.18,-93.5 1210.47,-93.5 1226.64,-93.5"/>
<polygon fill="#757575" stroke="#757575" points="1226.29,-97 1236.29,-93.5 1226.29,-90 1226.29,-97"/>
</g>
</g>
</svg>
