<?xml version="1.0" encoding="UTF-8" standalone="no"?>
<!DOCTYPE svg PUBLIC "-//W3C//DTD SVG 1.1//EN"
 "http://www.w3.org/Graphics/SVG/1.1/DTD/svg11.dtd">
<!-- Generated by graphviz version 7.0.2 (20221119.0110)
 -->
<!-- Title: G Pages: 1 -->
<svg width="1724pt" height="835pt"
 viewBox="0.00 0.00 1724.20 835.05" xmlns="http://www.w3.org/2000/svg" xmlns:xlink="http://www.w3.org/1999/xlink">
<g id="graph0" class="graph" transform="scale(1 1) rotate(0) translate(21.6 813.45)">
<title>G</title>
<polygon fill="#111111" stroke="none" points="-21.6,21.6 -21.6,-813.45 1702.6,-813.45 1702.6,21.6 -21.6,21.6"/>
<!-- app.ts -->
<g id="node1" class="node">
<title>app.ts</title>
<path fill="none" stroke="#c6c5fe" d="M48.33,-601.37C48.33,-601.37 7.67,-601.37 7.67,-601.37 3.83,-601.37 0,-597.53 0,-593.7 0,-593.7 0,-586.03 0,-586.03 0,-582.2 3.83,-578.37 7.67,-578.37 7.67,-578.37 48.33,-578.37 48.33,-578.37 52.17,-578.37 56,-582.2 56,-586.03 56,-586.03 56,-593.7 56,-593.7 56,-597.53 52.17,-601.37 48.33,-601.37"/>
<text text-anchor="middle" x="28" y="-586.17" font-family="Arial" font-size="14.00" fill="#c6c5fe">app.ts</text>
</g>
<!-- env/env.ts -->
<g id="node2" class="node">
<title>env/env.ts</title>
<path fill="none" stroke="#c6c5fe" d="M1394.83,-621.37C1394.83,-621.37 1330.17,-621.37 1330.17,-621.37 1326.33,-621.37 1322.5,-617.53 1322.5,-613.7 1322.5,-613.7 1322.5,-606.03 1322.5,-606.03 1322.5,-602.2 1326.33,-598.37 1330.17,-598.37 1330.17,-598.37 1394.83,-598.37 1394.83,-598.37 1398.67,-598.37 1402.5,-602.2 1402.5,-606.03 1402.5,-606.03 1402.5,-613.7 1402.5,-613.7 1402.5,-617.53 1398.67,-621.37 1394.83,-621.37"/>
<text text-anchor="middle" x="1362.5" y="-606.17" font-family="Arial" font-size="14.00" fill="#c6c5fe">env/env.ts</text>
</g>
<!-- app.ts&#45;&gt;env/env.ts -->
<g id="edge1" class="edge">
<title>app.ts&#45;&gt;env/env.ts</title>
<path fill="none" stroke="#757575" d="M35.45,-601.75C45.33,-618.82 65.85,-650.06 92,-666.87 247.61,-766.89 309.51,-772.87 494.5,-772.87 494.5,-772.87 494.5,-772.87 790.5,-772.87 975.8,-772.87 1036.17,-825.67 1207,-753.87 1269.49,-727.6 1322.3,-664.17 1346.82,-630.95"/>
<polygon fill="#757575" stroke="#757575" points="1349.61,-633.08 1352.62,-622.92 1343.93,-628.98 1349.61,-633.08"/>
</g>
<!-- middleware/auth&#45;middleware.ts -->
<g id="node3" class="node">
<title>middleware/auth&#45;middleware.ts</title>
<path fill="none" stroke="#c6c5fe" d="M887.83,-662.37C887.83,-662.37 691.17,-662.37 691.17,-662.37 687.33,-662.37 683.5,-658.53 683.5,-654.7 683.5,-654.7 683.5,-647.03 683.5,-647.03 683.5,-643.2 687.33,-639.37 691.17,-639.37 691.17,-639.37 887.83,-639.37 887.83,-639.37 891.67,-639.37 895.5,-643.2 895.5,-647.03 895.5,-647.03 895.5,-654.7 895.5,-654.7 895.5,-658.53 891.67,-662.37 887.83,-662.37"/>
<text text-anchor="middle" x="789.5" y="-647.17" font-family="Arial" font-size="14.00" fill="#c6c5fe">middleware/auth&#45;middleware.ts</text>
</g>
<!-- app.ts&#45;&gt;middleware/auth&#45;middleware.ts -->
<g id="edge2" class="edge">
<title>app.ts&#45;&gt;middleware/auth&#45;middleware.ts</title>
<path fill="none" stroke="#757575" d="M41.85,-601.64C53.83,-611.78 72.71,-625.74 92,-631.87 299.73,-697.87 560.08,-680.37 696.08,-664.22"/>
<polygon fill="#757575" stroke="#757575" points="696.24,-667.73 705.74,-663.05 695.4,-660.78 696.24,-667.73"/>
</g>
<!-- middleware/catchError&#45;middleware.ts -->
<g id="node4" class="node">
<title>middleware/catchError&#45;middleware.ts</title>
<path fill="none" stroke="#c6c5fe" d="M335.33,-622.37C335.33,-622.37 99.67,-622.37 99.67,-622.37 95.83,-622.37 92,-618.53 92,-614.7 92,-614.7 92,-607.03 92,-607.03 92,-603.2 95.83,-599.37 99.67,-599.37 99.67,-599.37 335.33,-599.37 335.33,-599.37 339.17,-599.37 343,-603.2 343,-607.03 343,-607.03 343,-614.7 343,-614.7 343,-618.53 339.17,-622.37 335.33,-622.37"/>
<text text-anchor="middle" x="217.5" y="-607.17" font-family="Arial" font-size="14.00" fill="#c6c5fe">middleware/catchError&#45;middleware.ts</text>
</g>
<!-- app.ts&#45;&gt;middleware/catchError&#45;middleware.ts -->
<g id="edge3" class="edge">
<title>app.ts&#45;&gt;middleware/catchError&#45;middleware.ts</title>
<path fill="none" stroke="#757575" d="M56.26,-592.92C67.95,-594.23 82.48,-595.86 97.98,-597.59"/>
<polygon fill="#757575" stroke="#757575" points="97.58,-601.07 107.91,-598.71 98.36,-594.11 97.58,-601.07"/>
</g>
<!-- routers/auth&#45;router.ts -->
<g id="node5" class="node">
<title>routers/auth&#45;router.ts</title>
<path fill="none" stroke="#c6c5fe" d="M283.33,-581.37C283.33,-581.37 151.67,-581.37 151.67,-581.37 147.83,-581.37 144,-577.53 144,-573.7 144,-573.7 144,-566.03 144,-566.03 144,-562.2 147.83,-558.37 151.67,-558.37 151.67,-558.37 283.33,-558.37 283.33,-558.37 287.17,-558.37 291,-562.2 291,-566.03 291,-566.03 291,-573.7 291,-573.7 291,-577.53 287.17,-581.37 283.33,-581.37"/>
<text text-anchor="middle" x="217.5" y="-566.17" font-family="Arial" font-size="14.00" fill="#c6c5fe">routers/auth&#45;router.ts</text>
</g>
<!-- app.ts&#45;&gt;routers/auth&#45;router.ts -->
<g id="edge4" class="edge">
<title>app.ts&#45;&gt;routers/auth&#45;router.ts</title>
<path fill="none" stroke="#757575" d="M56.26,-586.96C76.44,-584.81 105.08,-581.75 132.57,-578.82"/>
<polygon fill="#757575" stroke="#757575" points="132.77,-582.32 142.35,-577.78 132.03,-575.36 132.77,-582.32"/>
</g>
<!-- routers/todo&#45;router.ts -->
<g id="node6" class="node">
<title>routers/todo&#45;router.ts</title>
<path fill="none" stroke="#c6c5fe" d="M284.33,-420.37C284.33,-420.37 150.67,-420.37 150.67,-420.37 146.83,-420.37 143,-416.53 143,-412.7 143,-412.7 143,-405.03 143,-405.03 143,-401.2 146.83,-397.37 150.67,-397.37 150.67,-397.37 284.33,-397.37 284.33,-397.37 288.17,-397.37 292,-401.2 292,-405.03 292,-405.03 292,-412.7 292,-412.7 292,-416.53 288.17,-420.37 284.33,-420.37"/>
<text text-anchor="middle" x="217.5" y="-405.17" font-family="Arial" font-size="14.00" fill="#c6c5fe">routers/todo&#45;router.ts</text>
</g>
<!-- app.ts&#45;&gt;routers/todo&#45;router.ts -->
<g id="edge5" class="edge">
<title>app.ts&#45;&gt;routers/todo&#45;router.ts</title>
<path fill="none" stroke="#757575" d="M41.3,-577.99C72.96,-547.43 157.49,-465.83 196.39,-428.28"/>
<polygon fill="#757575" stroke="#757575" points="198.54,-431.07 203.31,-421.6 193.68,-426.03 198.54,-431.07"/>
</g>
<!-- utils/filesystem/paths.ts -->
<g id="node7" class="node">
<title>utils/filesystem/paths.ts</title>
<path fill="none" stroke="#cfffac" d="M1673.33,-321.37C1673.33,-321.37 1525.67,-321.37 1525.67,-321.37 1521.83,-321.37 1518,-317.53 1518,-313.7 1518,-313.7 1518,-306.03 1518,-306.03 1518,-302.2 1521.83,-298.37 1525.67,-298.37 1525.67,-298.37 1673.33,-298.37 1673.33,-298.37 1677.17,-298.37 1681,-302.2 1681,-306.03 1681,-306.03 1681,-313.7 1681,-313.7 1681,-317.53 1677.17,-321.37 1673.33,-321.37"/>
<text text-anchor="middle" x="1599.5" y="-306.17" font-family="Arial" font-size="14.00" fill="#cfffac">utils/filesystem/paths.ts</text>
</g>
<!-- app.ts&#45;&gt;utils/filesystem/paths.ts -->
<g id="edge6" class="edge">
<title>app.ts&#45;&gt;utils/filesystem/paths.ts</title>
<path fill="none" stroke="#757575" d="M30.56,-578.12C35.27,-545.73 51.62,-453.33 92,-388.87 222.44,-180.63 248.79,-9.87 494.5,-9.87 494.5,-9.87 494.5,-9.87 1088,-9.87 1265.13,-9.87 1339.4,35.2 1482,-69.87 1555.75,-124.21 1585.08,-237.84 1594.61,-286.71"/>
<polygon fill="#757575" stroke="#757575" points="1591.14,-287.22 1596.39,-296.43 1598.03,-285.96 1591.14,-287.22"/>
</g>
<!-- env/env.ts&#45;&gt;utils/filesystem/paths.ts -->
<g id="edge17" class="edge">
<title>env/env.ts&#45;&gt;utils/filesystem/paths.ts</title>
<path fill="none" stroke="#757575" d="M1402.84,-612.44C1427.97,-612.04 1459.87,-607.46 1482,-589.87 1565.34,-523.59 1589.71,-387.27 1596.27,-332.95"/>
<polygon fill="#757575" stroke="#757575" points="1599.72,-333.65 1597.33,-323.33 1592.76,-332.88 1599.72,-333.65"/>
</g>
<!-- types/middleware/IAuthRequest.ts -->
<g id="node16" class="node">
<title>types/middleware/IAuthRequest.ts</title>
<path fill="none" stroke="#c6c5fe" d="M1195.83,-299.37C1195.83,-299.37 978.17,-299.37 978.17,-299.37 974.33,-299.37 970.5,-295.53 970.5,-291.7 970.5,-291.7 970.5,-284.03 970.5,-284.03 970.5,-280.2 974.33,-276.37 978.17,-276.37 978.17,-276.37 1195.83,-276.37 1195.83,-276.37 1199.67,-276.37 1203.5,-280.2 1203.5,-284.03 1203.5,-284.03 1203.5,-291.7 1203.5,-291.7 1203.5,-295.53 1199.67,-299.37 1195.83,-299.37"/>
<text text-anchor="middle" x="1087" y="-284.17" font-family="Arial" font-size="14.00" fill="#c6c5fe">types/middleware/IAuthRequest.ts</text>
</g>
<!-- middleware/auth&#45;middleware.ts&#45;&gt;types/middleware/IAuthRequest.ts -->
<g id="edge19" class="edge">
<title>middleware/auth&#45;middleware.ts&#45;&gt;types/middleware/IAuthRequest.ts</title>
<path fill="none" stroke="#757575" d="M853.57,-638.87C881.4,-630.36 912.02,-615.99 931,-591.87 993.08,-512.97 913.11,-453.57 967,-368.87 985.65,-339.55 1019.15,-318.18 1045.86,-304.78"/>
<polygon fill="#757575" stroke="#757575" points="1047.23,-308.01 1054.72,-300.52 1044.2,-301.7 1047.23,-308.01"/>
</g>
<!-- services/auth/token&#45;service.ts -->
<g id="node21" class="node">
<title>services/auth/token&#45;service.ts</title>
<path fill="none" stroke="#c6c5fe" d="M1180.83,-580.37C1180.83,-580.37 993.17,-580.37 993.17,-580.37 989.33,-580.37 985.5,-576.53 985.5,-572.7 985.5,-572.7 985.5,-565.03 985.5,-565.03 985.5,-561.2 989.33,-557.37 993.17,-557.37 993.17,-557.37 1180.83,-557.37 1180.83,-557.37 1184.67,-557.37 1188.5,-561.2 1188.5,-565.03 1188.5,-565.03 1188.5,-572.7 1188.5,-572.7 1188.5,-576.53 1184.67,-580.37 1180.83,-580.37"/>
<text text-anchor="middle" x="1087" y="-565.17" font-family="Arial" font-size="14.00" fill="#c6c5fe">services/auth/token&#45;service.ts</text>
</g>
<!-- middleware/auth&#45;middleware.ts&#45;&gt;services/auth/token&#45;service.ts -->
<g id="edge18" class="edge">
<title>middleware/auth&#45;middleware.ts&#45;&gt;services/auth/token&#45;service.ts</title>
<path fill="none" stroke="#757575" d="M894.14,-638.94C906.94,-635.38 919.54,-630.79 931,-624.87 950.82,-614.62 947.13,-600.03 967,-589.87 970.72,-587.96 974.58,-586.23 978.54,-584.65"/>
<polygon fill="#757575" stroke="#757575" points="979.56,-588 987.79,-581.33 977.2,-581.41 979.56,-588"/>
</g>
<!-- utils/error/api&#45;error.ts -->
<g id="node22" class="node">
<title>utils/error/api&#45;error.ts</title>
<path fill="none" stroke="#cfffac" d="M1152.83,-520.37C1152.83,-520.37 1021.17,-520.37 1021.17,-520.37 1017.33,-520.37 1013.5,-516.53 1013.5,-512.7 1013.5,-512.7 1013.5,-505.03 1013.5,-505.03 1013.5,-501.2 1017.33,-497.37 1021.17,-497.37 1021.17,-497.37 1152.83,-497.37 1152.83,-497.37 1156.67,-497.37 1160.5,-501.2 1160.5,-505.03 1160.5,-505.03 1160.5,-512.7 1160.5,-512.7 1160.5,-516.53 1156.67,-520.37 1152.83,-520.37"/>
<text text-anchor="middle" x="1087" y="-505.17" font-family="Arial" font-size="14.00" fill="#cfffac">utils/error/api&#45;error.ts</text>
</g>
<!-- middleware/auth&#45;middleware.ts&#45;&gt;utils/error/api&#45;error.ts -->
<g id="edge20" class="edge">
<title>middleware/auth&#45;middleware.ts&#45;&gt;utils/error/api&#45;error.ts</title>
<path fill="none" stroke="#757575" d="M895.77,-642.87C908.45,-638.7 920.58,-632.88 931,-624.87 960.62,-602.08 939.06,-573.69 967,-548.87 979.11,-538.11 994.23,-530.22 1009.58,-524.45"/>
<polygon fill="#757575" stroke="#757575" points="1010.47,-527.85 1018.78,-521.28 1008.18,-521.23 1010.47,-527.85"/>
</g>
<!-- middleware/catchError&#45;middleware.ts&#45;&gt;utils/error/api&#45;error.ts -->
<g id="edge21" class="edge">
<title>middleware/catchError&#45;middleware.ts&#45;&gt;utils/error/api&#45;error.ts</title>
<path fill="none" stroke="#757575" d="M343.46,-619.67C519.65,-630.05 830.8,-640.3 931,-591.87 953.44,-581.02 946.42,-562.92 967,-548.87 982.58,-538.23 1001.22,-530.22 1019.08,-524.27"/>
<polygon fill="#757575" stroke="#757575" points="1020.12,-527.61 1028.62,-521.27 1018.03,-520.93 1020.12,-527.61"/>
</g>
<!-- controllers/auth&#45;controller.ts -->
<g id="node8" class="node">
<title>controllers/auth&#45;controller.ts</title>
<path fill="none" stroke="#c6c5fe" d="M583.33,-581.37C583.33,-581.37 407.67,-581.37 407.67,-581.37 403.83,-581.37 400,-577.53 400,-573.7 400,-573.7 400,-566.03 400,-566.03 400,-562.2 403.83,-558.37 407.67,-558.37 407.67,-558.37 583.33,-558.37 583.33,-558.37 587.17,-558.37 591,-562.2 591,-566.03 591,-566.03 591,-573.7 591,-573.7 591,-577.53 587.17,-581.37 583.33,-581.37"/>
<text text-anchor="middle" x="495.5" y="-566.17" font-family="Arial" font-size="14.00" fill="#c6c5fe">controllers/auth&#45;controller.ts</text>
</g>
<!-- routers/auth&#45;router.ts&#45;&gt;controllers/auth&#45;controller.ts -->
<g id="edge31" class="edge">
<title>routers/auth&#45;router.ts&#45;&gt;controllers/auth&#45;controller.ts</title>
<path fill="none" stroke="#757575" d="M291.38,-569.87C321.02,-569.87 355.87,-569.87 388.25,-569.87"/>
<polygon fill="#757575" stroke="#757575" points="388.07,-573.37 398.07,-569.87 388.07,-566.37 388.07,-573.37"/>
</g>
<!-- middleware/validate&#45;middleware.ts -->
<g id="node23" class="node">
<title>middleware/validate&#45;middleware.ts</title>
<path fill="none" stroke="#c6c5fe" d="M604.33,-420.37C604.33,-420.37 386.67,-420.37 386.67,-420.37 382.83,-420.37 379,-416.53 379,-412.7 379,-412.7 379,-405.03 379,-405.03 379,-401.2 382.83,-397.37 386.67,-397.37 386.67,-397.37 604.33,-397.37 604.33,-397.37 608.17,-397.37 612,-401.2 612,-405.03 612,-405.03 612,-412.7 612,-412.7 612,-416.53 608.17,-420.37 604.33,-420.37"/>
<text text-anchor="middle" x="495.5" y="-405.17" font-family="Arial" font-size="14.00" fill="#c6c5fe">middleware/validate&#45;middleware.ts</text>
</g>
<!-- routers/auth&#45;router.ts&#45;&gt;middleware/validate&#45;middleware.ts -->
<g id="edge32" class="edge">
<title>routers/auth&#45;router.ts&#45;&gt;middleware/validate&#45;middleware.ts</title>
<path fill="none" stroke="#757575" d="M238.79,-558.03C286.85,-530 407.77,-459.46 464.38,-426.44"/>
<polygon fill="#757575" stroke="#757575" points="465.99,-429.55 472.87,-421.49 462.47,-423.5 465.99,-429.55"/>
</g>
<!-- controllers/todo&#45;controller.ts -->
<g id="node12" class="node">
<title>controllers/todo&#45;controller.ts</title>
<path fill="none" stroke="#c6c5fe" d="M584.33,-238.37C584.33,-238.37 406.67,-238.37 406.67,-238.37 402.83,-238.37 399,-234.53 399,-230.7 399,-230.7 399,-223.03 399,-223.03 399,-219.2 402.83,-215.37 406.67,-215.37 406.67,-215.37 584.33,-215.37 584.33,-215.37 588.17,-215.37 592,-219.2 592,-223.03 592,-223.03 592,-230.7 592,-230.7 592,-234.53 588.17,-238.37 584.33,-238.37"/>
<text text-anchor="middle" x="495.5" y="-223.17" font-family="Arial" font-size="14.00" fill="#c6c5fe">controllers/todo&#45;controller.ts</text>
</g>
<!-- routers/todo&#45;router.ts&#45;&gt;controllers/todo&#45;controller.ts -->
<g id="edge33" class="edge">
<title>routers/todo&#45;router.ts&#45;&gt;controllers/todo&#45;controller.ts</title>
<path fill="none" stroke="#757575" d="M236.61,-396.93C283.79,-365.82 410.71,-282.12 466.98,-245.01"/>
<polygon fill="#757575" stroke="#757575" points="468.64,-248.11 475.06,-239.69 464.79,-242.27 468.64,-248.11"/>
</g>
<!-- routers/todo&#45;router.ts&#45;&gt;middleware/validate&#45;middleware.ts -->
<g id="edge34" class="edge">
<title>routers/todo&#45;router.ts&#45;&gt;middleware/validate&#45;middleware.ts</title>
<path fill="none" stroke="#757575" d="M292.46,-408.87C315.55,-408.87 341.72,-408.87 367.37,-408.87"/>
<polygon fill="#757575" stroke="#757575" points="367.21,-412.37 377.21,-408.87 367.21,-405.37 367.21,-412.37"/>
</g>
<!-- services/auth/user&#45;service.ts -->
<g id="node9" class="node">
<title>services/auth/user&#45;service.ts</title>
<path fill="none" stroke="#c6c5fe" d="M880.33,-703.37C880.33,-703.37 698.67,-703.37 698.67,-703.37 694.83,-703.37 691,-699.53 691,-695.7 691,-695.7 691,-688.03 691,-688.03 691,-684.2 694.83,-680.37 698.67,-680.37 698.67,-680.37 880.33,-680.37 880.33,-680.37 884.17,-680.37 888,-684.2 888,-688.03 888,-688.03 888,-695.7 888,-695.7 888,-699.53 884.17,-703.37 880.33,-703.37"/>
<text text-anchor="middle" x="789.5" y="-688.17" font-family="Arial" font-size="14.00" fill="#c6c5fe">services/auth/user&#45;service.ts</text>
</g>
<!-- controllers/auth&#45;controller.ts&#45;&gt;services/auth/user&#45;service.ts -->
<g id="edge7" class="edge">
<title>controllers/auth&#45;controller.ts&#45;&gt;services/auth/user&#45;service.ts</title>
<path fill="none" stroke="#757575" d="M509.52,-581.71C534.37,-603.57 591.17,-650.02 648,-671.87 658.09,-675.75 668.85,-678.88 679.75,-681.42"/>
<polygon fill="#757575" stroke="#757575" points="678.69,-684.77 689.2,-683.44 680.15,-677.93 678.69,-684.77"/>
</g>
<!-- types/controllers/ICookieRequest.ts -->
<g id="node10" class="node">
<title>types/controllers/ICookieRequest.ts</title>
<path fill="none" stroke="#cfffac" d="M903.33,-582.37C903.33,-582.37 675.67,-582.37 675.67,-582.37 671.83,-582.37 668,-578.53 668,-574.7 668,-574.7 668,-567.03 668,-567.03 668,-563.2 671.83,-559.37 675.67,-559.37 675.67,-559.37 903.33,-559.37 903.33,-559.37 907.17,-559.37 911,-563.2 911,-567.03 911,-567.03 911,-574.7 911,-574.7 911,-578.53 907.17,-582.37 903.33,-582.37"/>
<text text-anchor="middle" x="789.5" y="-567.17" font-family="Arial" font-size="14.00" fill="#cfffac">types/controllers/ICookieRequest.ts</text>
</g>
<!-- controllers/auth&#45;controller.ts&#45;&gt;types/controllers/ICookieRequest.ts -->
<g id="edge8" class="edge">
<title>controllers/auth&#45;controller.ts&#45;&gt;types/controllers/ICookieRequest.ts</title>
<path fill="none" stroke="#757575" d="M591.3,-570.19C612.01,-570.26 634.28,-570.34 656.15,-570.41"/>
<polygon fill="#757575" stroke="#757575" points="656.01,-573.91 666.02,-570.45 656.03,-566.91 656.01,-573.91"/>
</g>
<!-- types/controllers/IRegisterLogin.ts -->
<g id="node11" class="node">
<title>types/controllers/IRegisterLogin.ts</title>
<path fill="none" stroke="#cfffac" d="M898.33,-541.37C898.33,-541.37 680.67,-541.37 680.67,-541.37 676.83,-541.37 673,-537.53 673,-533.7 673,-533.7 673,-526.03 673,-526.03 673,-522.2 676.83,-518.37 680.67,-518.37 680.67,-518.37 898.33,-518.37 898.33,-518.37 902.17,-518.37 906,-522.2 906,-526.03 906,-526.03 906,-533.7 906,-533.7 906,-537.53 902.17,-541.37 898.33,-541.37"/>
<text text-anchor="middle" x="789.5" y="-526.17" font-family="Arial" font-size="14.00" fill="#cfffac">types/controllers/IRegisterLogin.ts</text>
</g>
<!-- controllers/auth&#45;controller.ts&#45;&gt;types/controllers/IRegisterLogin.ts -->
<g id="edge9" class="edge">
<title>controllers/auth&#45;controller.ts&#45;&gt;types/controllers/IRegisterLogin.ts</title>
<path fill="none" stroke="#757575" d="M583.71,-557.92C617.15,-553.34 655.53,-548.08 689.95,-543.37"/>
<polygon fill="#757575" stroke="#757575" points="690.05,-546.89 699.48,-542.06 689.1,-539.95 690.05,-546.89"/>
</g>
<!-- dto/user&#45;dto.ts -->
<g id="node20" class="node">
<title>dto/user&#45;dto.ts</title>
<path fill="none" stroke="#cfffac" d="M1133.33,-744.37C1133.33,-744.37 1040.67,-744.37 1040.67,-744.37 1036.83,-744.37 1033,-740.53 1033,-736.7 1033,-736.7 1033,-729.03 1033,-729.03 1033,-725.2 1036.83,-721.37 1040.67,-721.37 1040.67,-721.37 1133.33,-721.37 1133.33,-721.37 1137.17,-721.37 1141,-725.2 1141,-729.03 1141,-729.03 1141,-736.7 1141,-736.7 1141,-740.53 1137.17,-744.37 1133.33,-744.37"/>
<text text-anchor="middle" x="1087" y="-729.17" font-family="Arial" font-size="14.00" fill="#cfffac">dto/user&#45;dto.ts</text>
</g>
<!-- services/auth/user&#45;service.ts&#45;&gt;dto/user&#45;dto.ts -->
<g id="edge39" class="edge">
<title>services/auth/user&#45;service.ts&#45;&gt;dto/user&#45;dto.ts</title>
<path fill="none" stroke="#757575" d="M876.77,-703.84C922.95,-710.25 978.9,-718.01 1021.32,-723.89"/>
<polygon fill="#757575" stroke="#757575" points="1020.74,-727.35 1031.13,-725.25 1021.7,-720.41 1020.74,-727.35"/>
</g>
<!-- services/auth/user&#45;service.ts&#45;&gt;services/auth/token&#45;service.ts -->
<g id="edge41" class="edge">
<title>services/auth/user&#45;service.ts&#45;&gt;services/auth/token&#45;service.ts</title>
<path fill="none" stroke="#757575" d="M888.22,-690.99C903.61,-687.32 918.54,-681.33 931,-671.87 962.7,-647.8 935.7,-614.46 967,-589.87 969.59,-587.83 972.31,-585.97 975.14,-584.26"/>
<polygon fill="#757575" stroke="#757575" points="976.53,-587.48 983.76,-579.75 973.28,-581.28 976.53,-587.48"/>
</g>
<!-- services/auth/user&#45;service.ts&#45;&gt;utils/error/api&#45;error.ts -->
<g id="edge44" class="edge">
<title>services/auth/user&#45;service.ts&#45;&gt;utils/error/api&#45;error.ts</title>
<path fill="none" stroke="#757575" d="M888.21,-692.59C903.88,-688.8 918.89,-682.35 931,-671.87 974.06,-634.58 927.53,-589.93 967,-548.87 977.17,-538.29 990.22,-530.5 1003.94,-524.78"/>
<polygon fill="#757575" stroke="#757575" points="1004.98,-528.13 1013.1,-521.33 1002.51,-521.58 1004.98,-528.13"/>
</g>
<!-- models/UserModel.ts -->
<g id="node30" class="node">
<title>models/UserModel.ts</title>
<path fill="none" stroke="#cfffac" d="M1155.33,-703.37C1155.33,-703.37 1018.67,-703.37 1018.67,-703.37 1014.83,-703.37 1011,-699.53 1011,-695.7 1011,-695.7 1011,-688.03 1011,-688.03 1011,-684.2 1014.83,-680.37 1018.67,-680.37 1018.67,-680.37 1155.33,-680.37 1155.33,-680.37 1159.17,-680.37 1163,-684.2 1163,-688.03 1163,-688.03 1163,-695.7 1163,-695.7 1163,-699.53 1159.17,-703.37 1155.33,-703.37"/>
<text text-anchor="middle" x="1087" y="-688.17" font-family="Arial" font-size="14.00" fill="#cfffac">models/UserModel.ts</text>
</g>
<!-- services/auth/user&#45;service.ts&#45;&gt;models/UserModel.ts -->
<g id="edge40" class="edge">
<title>services/auth/user&#45;service.ts&#45;&gt;models/UserModel.ts</title>
<path fill="none" stroke="#757575" d="M888.49,-691.87C924.42,-691.87 964.79,-691.87 999.63,-691.87"/>
<polygon fill="#757575" stroke="#757575" points="999.22,-695.37 1009.22,-691.87 999.22,-688.37 999.22,-695.37"/>
</g>
<!-- types/services/IUserData.ts -->
<g id="node32" class="node">
<title>types/services/IUserData.ts</title>
<path fill="none" stroke="#cfffac" d="M1174.83,-662.37C1174.83,-662.37 999.17,-662.37 999.17,-662.37 995.33,-662.37 991.5,-658.53 991.5,-654.7 991.5,-654.7 991.5,-647.03 991.5,-647.03 991.5,-643.2 995.33,-639.37 999.17,-639.37 999.17,-639.37 1174.83,-639.37 1174.83,-639.37 1178.67,-639.37 1182.5,-643.2 1182.5,-647.03 1182.5,-647.03 1182.5,-654.7 1182.5,-654.7 1182.5,-658.53 1178.67,-662.37 1174.83,-662.37"/>
<text text-anchor="middle" x="1087" y="-647.17" font-family="Arial" font-size="14.00" fill="#cfffac">types/services/IUserData.ts</text>
</g>
<!-- services/auth/user&#45;service.ts&#45;&gt;types/services/IUserData.ts -->
<g id="edge42" class="edge">
<title>services/auth/user&#45;service.ts&#45;&gt;types/services/IUserData.ts</title>
<path fill="none" stroke="#757575" d="M876.77,-679.9C911.81,-675.04 952.47,-669.39 988.58,-664.38"/>
<polygon fill="#757575" stroke="#757575" points="988.7,-667.9 998.13,-663.06 987.74,-660.97 988.7,-667.9"/>
</g>
<!-- utils/crypto/hashing.ts -->
<g id="node33" class="node">
<title>utils/crypto/hashing.ts</title>
<path fill="none" stroke="#cfffac" d="M1155.33,-621.37C1155.33,-621.37 1018.67,-621.37 1018.67,-621.37 1014.83,-621.37 1011,-617.53 1011,-613.7 1011,-613.7 1011,-606.03 1011,-606.03 1011,-602.2 1014.83,-598.37 1018.67,-598.37 1018.67,-598.37 1155.33,-598.37 1155.33,-598.37 1159.17,-598.37 1163,-602.2 1163,-606.03 1163,-606.03 1163,-613.7 1163,-613.7 1163,-617.53 1159.17,-621.37 1155.33,-621.37"/>
<text text-anchor="middle" x="1087" y="-606.17" font-family="Arial" font-size="14.00" fill="#cfffac">utils/crypto/hashing.ts</text>
</g>
<!-- services/auth/user&#45;service.ts&#45;&gt;utils/crypto/hashing.ts -->
<g id="edge43" class="edge">
<title>services/auth/user&#45;service.ts&#45;&gt;utils/crypto/hashing.ts</title>
<path fill="none" stroke="#757575" d="M888.23,-687.1C903.13,-683.82 917.89,-678.96 931,-671.87 952.33,-660.33 945.87,-642.76 967,-630.87 977.05,-625.22 988.26,-621.02 999.68,-617.92"/>
<polygon fill="#757575" stroke="#757575" points="1000.29,-621.38 1009.19,-615.63 998.65,-614.57 1000.29,-621.38"/>
</g>
<!-- services/logic/todo&#45;service.ts -->
<g id="node13" class="node">
<title>services/logic/todo&#45;service.ts</title>
<path fill="none" stroke="#c6c5fe" d="M882.33,-102.37C882.33,-102.37 696.67,-102.37 696.67,-102.37 692.83,-102.37 689,-98.53 689,-94.7 689,-94.7 689,-87.03 689,-87.03 689,-83.2 692.83,-79.37 696.67,-79.37 696.67,-79.37 882.33,-79.37 882.33,-79.37 886.17,-79.37 890,-83.2 890,-87.03 890,-87.03 890,-94.7 890,-94.7 890,-98.53 886.17,-102.37 882.33,-102.37"/>
<text text-anchor="middle" x="789.5" y="-87.17" font-family="Arial" font-size="14.00" fill="#c6c5fe">services/logic/todo&#45;service.ts</text>
</g>
<!-- controllers/todo&#45;controller.ts&#45;&gt;services/logic/todo&#45;service.ts -->
<g id="edge10" class="edge">
<title>controllers/todo&#45;controller.ts&#45;&gt;services/logic/todo&#45;service.ts</title>
<path fill="none" stroke="#757575" d="M508.66,-215.01C532.93,-192.09 590.06,-141.74 648,-116.87 658.45,-112.38 669.66,-108.67 681.03,-105.59"/>
<polygon fill="#757575" stroke="#757575" points="681.65,-109.05 690.49,-103.21 679.94,-102.26 681.65,-109.05"/>
</g>
<!-- types/controllers/IIdParamsRequest.ts -->
<g id="node14" class="node">
<title>types/controllers/IIdParamsRequest.ts</title>
<path fill="none" stroke="#c6c5fe" d="M911.83,-299.37C911.83,-299.37 667.17,-299.37 667.17,-299.37 663.33,-299.37 659.5,-295.53 659.5,-291.7 659.5,-291.7 659.5,-284.03 659.5,-284.03 659.5,-280.2 663.33,-276.37 667.17,-276.37 667.17,-276.37 911.83,-276.37 911.83,-276.37 915.67,-276.37 919.5,-280.2 919.5,-284.03 919.5,-284.03 919.5,-291.7 919.5,-291.7 919.5,-295.53 915.67,-299.37 911.83,-299.37"/>
<text text-anchor="middle" x="789.5" y="-284.17" font-family="Arial" font-size="14.00" fill="#c6c5fe">types/controllers/IIdParamsRequest.ts</text>
</g>
<!-- controllers/todo&#45;controller.ts&#45;&gt;types/controllers/IIdParamsRequest.ts -->
<g id="edge11" class="edge">
<title>controllers/todo&#45;controller.ts&#45;&gt;types/controllers/IIdParamsRequest.ts</title>
<path fill="none" stroke="#757575" d="M535.42,-238.82C565.84,-247.81 609.3,-259.91 648,-267.87 658.97,-270.12 670.48,-272.21 681.99,-274.12"/>
<polygon fill="#757575" stroke="#757575" points="681.08,-277.51 691.51,-275.65 682.19,-270.6 681.08,-277.51"/>
</g>
<!-- types/controllers/ITodoPayloadRequest.ts -->
<g id="node15" class="node">
<title>types/controllers/ITodoPayloadRequest.ts</title>
<path fill="none" stroke="#c6c5fe" d="M923.33,-258.37C923.33,-258.37 655.67,-258.37 655.67,-258.37 651.83,-258.37 648,-254.53 648,-250.7 648,-250.7 648,-243.03 648,-243.03 648,-239.2 651.83,-235.37 655.67,-235.37 655.67,-235.37 923.33,-235.37 923.33,-235.37 927.17,-235.37 931,-239.2 931,-243.03 931,-243.03 931,-250.7 931,-250.7 931,-254.53 927.17,-258.37 923.33,-258.37"/>
<text text-anchor="middle" x="789.5" y="-243.17" font-family="Arial" font-size="14.00" fill="#c6c5fe">types/controllers/ITodoPayloadRequest.ts</text>
</g>
<!-- controllers/todo&#45;controller.ts&#45;&gt;types/controllers/ITodoPayloadRequest.ts -->
<g id="edge12" class="edge">
<title>controllers/todo&#45;controller.ts&#45;&gt;types/controllers/ITodoPayloadRequest.ts</title>
<path fill="none" stroke="#757575" d="M592.11,-233.42C606.29,-234.39 621.2,-235.41 636.19,-236.44"/>
<polygon fill="#757575" stroke="#757575" points="635.94,-239.93 646.16,-237.12 636.42,-232.94 635.94,-239.93"/>
</g>
<!-- controllers/todo&#45;controller.ts&#45;&gt;types/middleware/IAuthRequest.ts -->
<g id="edge13" class="edge">
<title>controllers/todo&#45;controller.ts&#45;&gt;types/middleware/IAuthRequest.ts</title>
<path fill="none" stroke="#757575" d="M592.39,-216.69C681.07,-209.67 816.13,-205.08 931,-226.87 975.22,-235.26 1022.97,-255.99 1053.61,-270.96"/>
<polygon fill="#757575" stroke="#757575" points="1051.83,-273.99 1062.34,-275.31 1054.95,-267.72 1051.83,-273.99"/>
</g>
<!-- types/middleware/IGetAllTodoRequest.ts -->
<g id="node17" class="node">
<title>types/middleware/IGetAllTodoRequest.ts</title>
<path fill="none" stroke="#c6c5fe" d="M920.83,-340.37C920.83,-340.37 658.17,-340.37 658.17,-340.37 654.33,-340.37 650.5,-336.53 650.5,-332.7 650.5,-332.7 650.5,-325.03 650.5,-325.03 650.5,-321.2 654.33,-317.37 658.17,-317.37 658.17,-317.37 920.83,-317.37 920.83,-317.37 924.67,-317.37 928.5,-321.2 928.5,-325.03 928.5,-325.03 928.5,-332.7 928.5,-332.7 928.5,-336.53 924.67,-340.37 920.83,-340.37"/>
<text text-anchor="middle" x="789.5" y="-325.17" font-family="Arial" font-size="14.00" fill="#c6c5fe">types/middleware/IGetAllTodoRequest.ts</text>
</g>
<!-- controllers/todo&#45;controller.ts&#45;&gt;types/middleware/IGetAllTodoRequest.ts -->
<g id="edge14" class="edge">
<title>controllers/todo&#45;controller.ts&#45;&gt;types/middleware/IGetAllTodoRequest.ts</title>
<path fill="none" stroke="#757575" d="M513.31,-238.59C540.34,-256.81 595.74,-291.62 648,-308.87 654.15,-310.9 660.51,-312.72 666.98,-314.36"/>
<polygon fill="#757575" stroke="#757575" points="665.95,-317.71 676.48,-316.59 667.55,-310.89 665.95,-317.71"/>
</g>
<!-- types/services/ITodoPayload.ts -->
<g id="node18" class="node">
<title>types/services/ITodoPayload.ts</title>
<path fill="none" stroke="#c6c5fe" d="M1187.33,-143.37C1187.33,-143.37 986.67,-143.37 986.67,-143.37 982.83,-143.37 979,-139.53 979,-135.7 979,-135.7 979,-128.03 979,-128.03 979,-124.2 982.83,-120.37 986.67,-120.37 986.67,-120.37 1187.33,-120.37 1187.33,-120.37 1191.17,-120.37 1195,-124.2 1195,-128.03 1195,-128.03 1195,-135.7 1195,-135.7 1195,-139.53 1191.17,-143.37 1187.33,-143.37"/>
<text text-anchor="middle" x="1087" y="-128.17" font-family="Arial" font-size="14.00" fill="#c6c5fe">types/services/ITodoPayload.ts</text>
</g>
<!-- controllers/todo&#45;controller.ts&#45;&gt;types/services/ITodoPayload.ts -->
<g id="edge15" class="edge">
<title>controllers/todo&#45;controller.ts&#45;&gt;types/services/ITodoPayload.ts</title>
<path fill="none" stroke="#757575" d="M515.19,-215C542.93,-198.1 597.19,-167.74 648,-154.87 753.65,-128.11 878.08,-124.08 967.26,-125.73"/>
<polygon fill="#757575" stroke="#757575" points="966.92,-129.23 976.99,-125.94 967.07,-122.23 966.92,-129.23"/>
</g>
<!-- types/services/IUserPayload.ts -->
<g id="node19" class="node">
<title>types/services/IUserPayload.ts</title>
<path fill="none" stroke="#cfffac" d="M1460.83,-299.37C1460.83,-299.37 1264.17,-299.37 1264.17,-299.37 1260.33,-299.37 1256.5,-295.53 1256.5,-291.7 1256.5,-291.7 1256.5,-284.03 1256.5,-284.03 1256.5,-280.2 1260.33,-276.37 1264.17,-276.37 1264.17,-276.37 1460.83,-276.37 1460.83,-276.37 1464.67,-276.37 1468.5,-280.2 1468.5,-284.03 1468.5,-284.03 1468.5,-291.7 1468.5,-291.7 1468.5,-295.53 1464.67,-299.37 1460.83,-299.37"/>
<text text-anchor="middle" x="1362.5" y="-284.17" font-family="Arial" font-size="14.00" fill="#cfffac">types/services/IUserPayload.ts</text>
</g>
<!-- controllers/todo&#45;controller.ts&#45;&gt;types/services/IUserPayload.ts -->
<g id="edge16" class="edge">
<title>controllers/todo&#45;controller.ts&#45;&gt;types/services/IUserPayload.ts</title>
<path fill="none" stroke="#757575" d="M572.21,-214.89C596.37,-211.6 623.25,-208.49 648,-206.87 773.51,-198.62 805.77,-195.19 931,-206.87 1065.34,-219.4 1220.23,-253.46 1302.67,-273.19"/>
<polygon fill="#757575" stroke="#757575" points="1301.8,-276.58 1312.34,-275.53 1303.44,-269.78 1301.8,-276.58"/>
</g>
<!-- services/logic/todo&#45;service.ts&#45;&gt;types/services/ITodoPayload.ts -->
<g id="edge47" class="edge">
<title>services/logic/todo&#45;service.ts&#45;&gt;types/services/ITodoPayload.ts</title>
<path fill="none" stroke="#757575" d="M876.77,-102.84C911.81,-107.7 952.47,-113.34 988.58,-118.35"/>
<polygon fill="#757575" stroke="#757575" points="987.74,-121.77 998.13,-119.68 988.7,-114.83 987.74,-121.77"/>
</g>
<!-- models/Todo/TodoModel.ts -->
<g id="node28" class="node">
<title>models/Todo/TodoModel.ts</title>
<path fill="none" stroke="#c6c5fe" d="M1175.83,-102.37C1175.83,-102.37 998.17,-102.37 998.17,-102.37 994.33,-102.37 990.5,-98.53 990.5,-94.7 990.5,-94.7 990.5,-87.03 990.5,-87.03 990.5,-83.2 994.33,-79.37 998.17,-79.37 998.17,-79.37 1175.83,-79.37 1175.83,-79.37 1179.67,-79.37 1183.5,-83.2 1183.5,-87.03 1183.5,-87.03 1183.5,-94.7 1183.5,-94.7 1183.5,-98.53 1179.67,-102.37 1175.83,-102.37"/>
<text text-anchor="middle" x="1087" y="-87.17" font-family="Arial" font-size="14.00" fill="#c6c5fe">models/Todo/TodoModel.ts</text>
</g>
<!-- services/logic/todo&#45;service.ts&#45;&gt;models/Todo/TodoModel.ts -->
<g id="edge45" class="edge">
<title>services/logic/todo&#45;service.ts&#45;&gt;models/Todo/TodoModel.ts</title>
<path fill="none" stroke="#757575" d="M890.13,-90.87C918.68,-90.87 949.92,-90.87 978.89,-90.87"/>
<polygon fill="#757575" stroke="#757575" points="978.79,-94.37 988.79,-90.87 978.79,-87.37 978.79,-94.37"/>
</g>
<!-- types/services/IGetTodoSettings.ts -->
<g id="node34" class="node">
<title>types/services/IGetTodoSettings.ts</title>
<path fill="none" stroke="#cfffac" d="M1199.33,-61.37C1199.33,-61.37 974.67,-61.37 974.67,-61.37 970.83,-61.37 967,-57.53 967,-53.7 967,-53.7 967,-46.03 967,-46.03 967,-42.2 970.83,-38.37 974.67,-38.37 974.67,-38.37 1199.33,-38.37 1199.33,-38.37 1203.17,-38.37 1207,-42.2 1207,-46.03 1207,-46.03 1207,-53.7 1207,-53.7 1207,-57.53 1203.17,-61.37 1199.33,-61.37"/>
<text text-anchor="middle" x="1087" y="-46.17" font-family="Arial" font-size="14.00" fill="#cfffac">types/services/IGetTodoSettings.ts</text>
</g>
<!-- services/logic/todo&#45;service.ts&#45;&gt;types/services/IGetTodoSettings.ts -->
<g id="edge46" class="edge">
<title>services/logic/todo&#45;service.ts&#45;&gt;types/services/IGetTodoSettings.ts</title>
<path fill="none" stroke="#757575" d="M876.77,-78.9C911.81,-74.04 952.47,-68.39 988.58,-63.38"/>
<polygon fill="#757575" stroke="#757575" points="988.7,-66.9 998.13,-62.06 987.74,-59.97 988.7,-66.9"/>
</g>
<!-- types/controllers/IIdParamsRequest.ts&#45;&gt;types/middleware/IAuthRequest.ts -->
<g id="edge48" class="edge">
<title>types/controllers/IIdParamsRequest.ts&#45;&gt;types/middleware/IAuthRequest.ts</title>
<path fill="none" stroke="#757575" d="M919.68,-287.87C932.65,-287.87 945.82,-287.87 958.77,-287.87"/>
<polygon fill="#757575" stroke="#757575" points="958.57,-291.37 968.57,-287.87 958.57,-284.37 958.57,-291.37"/>
</g>
<!-- types/controllers/ITodoPayloadRequest.ts&#45;&gt;types/middleware/IAuthRequest.ts -->
<g id="edge49" class="edge">
<title>types/controllers/ITodoPayloadRequest.ts&#45;&gt;types/middleware/IAuthRequest.ts</title>
<path fill="none" stroke="#757575" d="M876.77,-258.84C911.81,-263.7 952.47,-269.34 988.58,-274.35"/>
<polygon fill="#757575" stroke="#757575" points="987.74,-277.77 998.13,-275.68 988.7,-270.83 987.74,-277.77"/>
</g>
<!-- types/services/ITodoBody.ts -->
<g id="node35" class="node">
<title>types/services/ITodoBody.ts</title>
<path fill="none" stroke="#cfffac" d="M1453.83,-191.37C1453.83,-191.37 1271.17,-191.37 1271.17,-191.37 1267.33,-191.37 1263.5,-187.53 1263.5,-183.7 1263.5,-183.7 1263.5,-176.03 1263.5,-176.03 1263.5,-172.2 1267.33,-168.37 1271.17,-168.37 1271.17,-168.37 1453.83,-168.37 1453.83,-168.37 1457.67,-168.37 1461.5,-172.2 1461.5,-176.03 1461.5,-176.03 1461.5,-183.7 1461.5,-183.7 1461.5,-187.53 1457.67,-191.37 1453.83,-191.37"/>
<text text-anchor="middle" x="1362.5" y="-176.17" font-family="Arial" font-size="14.00" fill="#cfffac">types/services/ITodoBody.ts</text>
</g>
<!-- types/controllers/ITodoPayloadRequest.ts&#45;&gt;types/services/ITodoBody.ts -->
<g id="edge50" class="edge">
<title>types/controllers/ITodoPayloadRequest.ts&#45;&gt;types/services/ITodoBody.ts</title>
<path fill="none" stroke="#757575" d="M892.58,-234.89C993.79,-223.01 1148.33,-204.88 1252.03,-192.71"/>
<polygon fill="#757575" stroke="#757575" points="1252.14,-196.22 1261.66,-191.58 1251.32,-189.27 1252.14,-196.22"/>
</g>
<!-- types/middleware/IAuthRequest.ts&#45;&gt;types/services/IUserPayload.ts -->
<g id="edge51" class="edge">
<title>types/middleware/IAuthRequest.ts&#45;&gt;types/services/IUserPayload.ts</title>
<path fill="none" stroke="#757575" d="M1203.99,-287.87C1217.52,-287.87 1231.34,-287.87 1244.88,-287.87"/>
<polygon fill="#757575" stroke="#757575" points="1244.67,-291.37 1254.67,-287.87 1244.67,-284.37 1244.67,-291.37"/>
</g>
<!-- types/middleware/IGetAllTodoRequest.ts&#45;&gt;types/middleware/IAuthRequest.ts -->
<g id="edge52" class="edge">
<title>types/middleware/IGetAllTodoRequest.ts&#45;&gt;types/middleware/IAuthRequest.ts</title>
<path fill="none" stroke="#757575" d="M876.77,-316.9C911.81,-312.04 952.47,-306.39 988.58,-301.38"/>
<polygon fill="#757575" stroke="#757575" points="988.7,-304.9 998.13,-300.06 987.74,-297.97 988.7,-304.9"/>
</g>
<!-- types/services/ITodoPayload.ts&#45;&gt;types/services/ITodoBody.ts -->
<g id="edge53" class="edge">
<title>types/services/ITodoPayload.ts&#45;&gt;types/services/ITodoBody.ts</title>
<path fill="none" stroke="#757575" d="M1156.31,-143.86C1194.55,-150.57 1242.42,-158.97 1282.3,-165.97"/>
<polygon fill="#757575" stroke="#757575" points="1281.64,-169.41 1292.1,-167.69 1282.85,-162.51 1281.64,-169.41"/>
</g>
<!-- services/auth/token&#45;service.ts&#45;&gt;env/env.ts -->
<g id="edge35" class="edge">
<title>services/auth/token&#45;service.ts&#45;&gt;env/env.ts</title>
<path fill="none" stroke="#757575" d="M1167.84,-580.84C1214.05,-587.76 1270.81,-596.27 1310.9,-602.28"/>
<polygon fill="#757575" stroke="#757575" points="1310.36,-605.74 1320.77,-603.76 1311.39,-598.82 1310.36,-605.74"/>
</g>
<!-- services/auth/token&#45;service.ts&#45;&gt;types/services/IUserPayload.ts -->
<g id="edge38" class="edge">
<title>services/auth/token&#45;service.ts&#45;&gt;types/services/IUserPayload.ts</title>
<path fill="none" stroke="#757575" d="M1150.94,-556.92C1170.3,-551.07 1190.77,-542.46 1207,-529.87 1284.89,-469.46 1334.63,-357.99 1353.24,-310.38"/>
<polygon fill="#757575" stroke="#757575" points="1356.47,-311.72 1356.76,-301.13 1349.93,-309.23 1356.47,-311.72"/>
</g>
<!-- models/TokenModel.ts -->
<g id="node29" class="node">
<title>models/TokenModel.ts</title>
<path fill="none" stroke="#cfffac" d="M1435.33,-580.37C1435.33,-580.37 1289.67,-580.37 1289.67,-580.37 1285.83,-580.37 1282,-576.53 1282,-572.7 1282,-572.7 1282,-565.03 1282,-565.03 1282,-561.2 1285.83,-557.37 1289.67,-557.37 1289.67,-557.37 1435.33,-557.37 1435.33,-557.37 1439.17,-557.37 1443,-561.2 1443,-565.03 1443,-565.03 1443,-572.7 1443,-572.7 1443,-576.53 1439.17,-580.37 1435.33,-580.37"/>
<text text-anchor="middle" x="1362.5" y="-565.17" font-family="Arial" font-size="14.00" fill="#cfffac">models/TokenModel.ts</text>
</g>
<!-- services/auth/token&#45;service.ts&#45;&gt;models/TokenModel.ts -->
<g id="edge36" class="edge">
<title>services/auth/token&#45;service.ts&#45;&gt;models/TokenModel.ts</title>
<path fill="none" stroke="#757575" d="M1188.68,-568.87C1215.34,-568.87 1243.98,-568.87 1270.13,-568.87"/>
<polygon fill="#757575" stroke="#757575" points="1270.04,-572.37 1280.04,-568.87 1270.04,-565.37 1270.04,-572.37"/>
</g>
<!-- types/jwt/payload.ts -->
<g id="node31" class="node">
<title>types/jwt/payload.ts</title>
<path fill="none" stroke="#cfffac" d="M1424.83,-539.37C1424.83,-539.37 1300.17,-539.37 1300.17,-539.37 1296.33,-539.37 1292.5,-535.53 1292.5,-531.7 1292.5,-531.7 1292.5,-524.03 1292.5,-524.03 1292.5,-520.2 1296.33,-516.37 1300.17,-516.37 1300.17,-516.37 1424.83,-516.37 1424.83,-516.37 1428.67,-516.37 1432.5,-520.2 1432.5,-524.03 1432.5,-524.03 1432.5,-531.7 1432.5,-531.7 1432.5,-535.53 1428.67,-539.37 1424.83,-539.37"/>
<text text-anchor="middle" x="1362.5" y="-524.17" font-family="Arial" font-size="14.00" fill="#cfffac">types/jwt/payload.ts</text>
</g>
<!-- services/auth/token&#45;service.ts&#45;&gt;types/jwt/payload.ts -->
<g id="edge37" class="edge">
<title>services/auth/token&#45;service.ts&#45;&gt;types/jwt/payload.ts</title>
<path fill="none" stroke="#757575" d="M1167.84,-556.9C1203.41,-551.57 1245.23,-545.3 1280.89,-539.95"/>
<polygon fill="#757575" stroke="#757575" points="1281.37,-543.42 1290.74,-538.48 1280.33,-536.5 1281.37,-543.42"/>
</g>
<!-- middleware/validate&#45;middleware.ts&#45;&gt;types/controllers/IRegisterLogin.ts -->
<g id="edge23" class="edge">
<title>middleware/validate&#45;middleware.ts&#45;&gt;types/controllers/IRegisterLogin.ts</title>
<path fill="none" stroke="#757575" d="M510.97,-420.61C536.81,-440.94 593.33,-482.57 648,-503.87 659.71,-508.43 672.29,-512.21 684.93,-515.33"/>
<polygon fill="#757575" stroke="#757575" points="684.03,-518.71 694.56,-517.56 685.61,-511.89 684.03,-518.71"/>
</g>
<!-- middleware/validate&#45;middleware.ts&#45;&gt;types/controllers/IIdParamsRequest.ts -->
<g id="edge22" class="edge">
<title>middleware/validate&#45;middleware.ts&#45;&gt;types/controllers/IIdParamsRequest.ts</title>
<path fill="none" stroke="#757575" d="M509.97,-396.97C535.12,-375.47 591.79,-330.4 648,-308.87 653.98,-306.58 660.18,-304.54 666.51,-302.72"/>
<polygon fill="#757575" stroke="#757575" points="667.04,-306.2 675.8,-300.25 665.24,-299.43 667.04,-306.2"/>
</g>
<!-- middleware/validate&#45;middleware.ts&#45;&gt;types/controllers/ITodoPayloadRequest.ts -->
<g id="edge24" class="edge">
<title>middleware/validate&#45;middleware.ts&#45;&gt;types/controllers/ITodoPayloadRequest.ts</title>
<path fill="none" stroke="#757575" d="M505.15,-396.9C526.09,-368.95 582.61,-299.37 648,-267.87 652.07,-265.91 656.28,-264.12 660.58,-262.49"/>
<polygon fill="#757575" stroke="#757575" points="661.7,-265.81 670.03,-259.25 659.43,-259.18 661.7,-265.81"/>
</g>
<!-- middleware/validate&#45;middleware.ts&#45;&gt;types/middleware/IGetAllTodoRequest.ts -->
<g id="edge25" class="edge">
<title>middleware/validate&#45;middleware.ts&#45;&gt;types/middleware/IGetAllTodoRequest.ts</title>
<path fill="none" stroke="#757575" d="M525.67,-396.9C555.86,-384.89 604.59,-366.54 648,-354.87 664.86,-350.33 683.07,-346.33 700.62,-342.9"/>
<polygon fill="#757575" stroke="#757575" points="700.78,-346.43 709.95,-341.13 699.47,-339.56 700.78,-346.43"/>
</g>
<!-- middleware/validate&#45;middleware.ts&#45;&gt;utils/error/api&#45;error.ts -->
<g id="edge26" class="edge">
<title>middleware/validate&#45;middleware.ts&#45;&gt;utils/error/api&#45;error.ts</title>
<path fill="none" stroke="#757575" d="M519.38,-420.8C548.43,-435.33 600.49,-459.37 648,-470.87 768.64,-500.07 912.76,-507.51 1001.84,-509.04"/>
<polygon fill="#757575" stroke="#757575" points="1001.67,-512.54 1011.72,-509.19 1001.77,-505.54 1001.67,-512.54"/>
</g>
<!-- utils/validation/customValidator.ts -->
<g id="node24" class="node">
<title>utils/validation/customValidator.ts</title>
<path fill="none" stroke="#cfffac" d="M1191.33,-400.37C1191.33,-400.37 982.67,-400.37 982.67,-400.37 978.83,-400.37 975,-396.53 975,-392.7 975,-392.7 975,-385.03 975,-385.03 975,-381.2 978.83,-377.37 982.67,-377.37 982.67,-377.37 1191.33,-377.37 1191.33,-377.37 1195.17,-377.37 1199,-381.2 1199,-385.03 1199,-385.03 1199,-392.7 1199,-392.7 1199,-396.53 1195.17,-400.37 1191.33,-400.37"/>
<text text-anchor="middle" x="1087" y="-385.17" font-family="Arial" font-size="14.00" fill="#cfffac">utils/validation/customValidator.ts</text>
</g>
<!-- middleware/validate&#45;middleware.ts&#45;&gt;utils/validation/customValidator.ts -->
<g id="edge27" class="edge">
<title>middleware/validate&#45;middleware.ts&#45;&gt;utils/validation/customValidator.ts</title>
<path fill="none" stroke="#757575" d="M572.21,-396.89C596.37,-393.6 623.25,-390.49 648,-388.87 754.31,-381.88 875.45,-382.54 963.34,-384.57"/>
<polygon fill="#757575" stroke="#757575" points="963.11,-388.07 973.19,-384.81 963.28,-381.07 963.11,-388.07"/>
</g>
<!-- utils/validation/validateLogin.ts -->
<g id="node25" class="node">
<title>utils/validation/validateLogin.ts</title>
<path fill="none" stroke="#c6c5fe" d="M884.83,-420.37C884.83,-420.37 694.17,-420.37 694.17,-420.37 690.33,-420.37 686.5,-416.53 686.5,-412.7 686.5,-412.7 686.5,-405.03 686.5,-405.03 686.5,-401.2 690.33,-397.37 694.17,-397.37 694.17,-397.37 884.83,-397.37 884.83,-397.37 888.67,-397.37 892.5,-401.2 892.5,-405.03 892.5,-405.03 892.5,-412.7 892.5,-412.7 892.5,-416.53 888.67,-420.37 884.83,-420.37"/>
<text text-anchor="middle" x="789.5" y="-405.17" font-family="Arial" font-size="14.00" fill="#c6c5fe">utils/validation/validateLogin.ts</text>
</g>
<!-- middleware/validate&#45;middleware.ts&#45;&gt;utils/validation/validateLogin.ts -->
<g id="edge28" class="edge">
<title>middleware/validate&#45;middleware.ts&#45;&gt;utils/validation/validateLogin.ts</title>
<path fill="none" stroke="#757575" d="M612.33,-408.87C632.88,-408.87 654.27,-408.87 674.77,-408.87"/>
<polygon fill="#757575" stroke="#757575" points="674.54,-412.37 684.54,-408.87 674.54,-405.37 674.54,-412.37"/>
</g>
<!-- utils/validation/validatePassword.ts -->
<g id="node26" class="node">
<title>utils/validation/validatePassword.ts</title>
<path fill="none" stroke="#c6c5fe" d="M898.33,-461.37C898.33,-461.37 680.67,-461.37 680.67,-461.37 676.83,-461.37 673,-457.53 673,-453.7 673,-453.7 673,-446.03 673,-446.03 673,-442.2 676.83,-438.37 680.67,-438.37 680.67,-438.37 898.33,-438.37 898.33,-438.37 902.17,-438.37 906,-442.2 906,-446.03 906,-446.03 906,-453.7 906,-453.7 906,-457.53 902.17,-461.37 898.33,-461.37"/>
<text text-anchor="middle" x="789.5" y="-446.17" font-family="Arial" font-size="14.00" fill="#c6c5fe">utils/validation/validatePassword.ts</text>
</g>
<!-- middleware/validate&#45;middleware.ts&#45;&gt;utils/validation/validatePassword.ts -->
<g id="edge29" class="edge">
<title>middleware/validate&#45;middleware.ts&#45;&gt;utils/validation/validatePassword.ts</title>
<path fill="none" stroke="#757575" d="M581.74,-420.84C616.22,-425.68 656.21,-431.29 691.77,-436.29"/>
<polygon fill="#757575" stroke="#757575" points="691.26,-439.75 701.65,-437.67 692.24,-432.82 691.26,-439.75"/>
</g>
<!-- utils/validation/validateLogin.ts&#45;&gt;utils/error/api&#45;error.ts -->
<g id="edge54" class="edge">
<title>utils/validation/validateLogin.ts&#45;&gt;utils/error/api&#45;error.ts</title>
<path fill="none" stroke="#757575" d="M892.7,-420.17C905.74,-422.77 918.79,-425.96 931,-429.87 978.04,-444.93 1028.22,-472.98 1058.34,-491.28"/>
<polygon fill="#757575" stroke="#757575" points="1056.12,-494.02 1066.47,-496.29 1059.79,-488.06 1056.12,-494.02"/>
</g>
<!-- utils/validation/validateLogin.ts&#45;&gt;utils/validation/customValidator.ts -->
<g id="edge55" class="edge">
<title>utils/validation/validateLogin.ts&#45;&gt;utils/validation/customValidator.ts</title>
<path fill="none" stroke="#757575" d="M892.61,-401.96C915.33,-400.42 939.65,-398.77 963.11,-397.19"/>
<polygon fill="#757575" stroke="#757575" points="963.3,-400.68 973.04,-396.51 962.82,-393.7 963.3,-400.68"/>
</g>
<!-- utils/validation/validatePassword.ts&#45;&gt;utils/error/api&#45;error.ts -->
<g id="edge56" class="edge">
<title>utils/validation/validatePassword.ts&#45;&gt;utils/error/api&#45;error.ts</title>
<path fill="none" stroke="#757575" d="M857.04,-461.8C880.44,-466.1 906.91,-471.08 931,-475.87 960.41,-481.72 992.87,-488.57 1020.45,-494.51"/>
<polygon fill="#757575" stroke="#757575" points="1019.56,-497.89 1030.08,-496.58 1021.04,-491.05 1019.56,-497.89"/>
</g>
<!-- models/Todo/TodoElemSchema.ts -->
<g id="node27" class="node">
<title>models/Todo/TodoElemSchema.ts</title>
<path fill="none" stroke="#cfffac" d="M1474.33,-102.37C1474.33,-102.37 1250.67,-102.37 1250.67,-102.37 1246.83,-102.37 1243,-98.53 1243,-94.7 1243,-94.7 1243,-87.03 1243,-87.03 1243,-83.2 1246.83,-79.37 1250.67,-79.37 1250.67,-79.37 1474.33,-79.37 1474.33,-79.37 1478.17,-79.37 1482,-83.2 1482,-87.03 1482,-87.03 1482,-94.7 1482,-94.7 1482,-98.53 1478.17,-102.37 1474.33,-102.37"/>
<text text-anchor="middle" x="1362.5" y="-87.17" font-family="Arial" font-size="14.00" fill="#cfffac">models/Todo/TodoElemSchema.ts</text>
</g>
<!-- models/Todo/TodoModel.ts&#45;&gt;models/Todo/TodoElemSchema.ts -->
<g id="edge30" class="edge">
<title>models/Todo/TodoModel.ts&#45;&gt;models/Todo/TodoElemSchema.ts</title>
<path fill="none" stroke="#757575" d="M1183.66,-90.87C1199.18,-90.87 1215.47,-90.87 1231.64,-90.87"/>
<polygon fill="#757575" stroke="#757575" points="1231.29,-94.37 1241.29,-90.87 1231.29,-87.37 1231.29,-94.37"/>
</g>
</g>
</svg>
