<?xml version="1.0" encoding="UTF-8" standalone="no"?>
<!DOCTYPE svg PUBLIC "-//W3C//DTD SVG 1.1//EN"
 "http://www.w3.org/Graphics/SVG/1.1/DTD/svg11.dtd">
<!-- Generated by graphviz version 7.0.2 (20221119.0110)
 -->
<!-- Title: G Pages: 1 -->
<svg width="1658pt" height="423pt"
 viewBox="0.00 0.00 1658.20 423.26" xmlns="http://www.w3.org/2000/svg" xmlns:xlink="http://www.w3.org/1999/xlink">
<g id="graph0" class="graph" transform="scale(1 1) rotate(0) translate(21.6 401.66)">
<title>G</title>
<polygon fill="#111111" stroke="none" points="-21.6,21.6 -21.6,-401.66 1636.6,-401.66 1636.6,21.6 -21.6,21.6"/>
<!-- app.ts -->
<g id="node1" class="node">
<title>app.ts</title>
<path fill="none" stroke="#c6c5fe" d="M48.33,-283C48.33,-283 7.67,-283 7.67,-283 3.83,-283 0,-279.17 0,-275.33 0,-275.33 0,-267.67 0,-267.67 0,-263.83 3.83,-260 7.67,-260 7.67,-260 48.33,-260 48.33,-260 52.17,-260 56,-263.83 56,-267.67 56,-267.67 56,-275.33 56,-275.33 56,-279.17 52.17,-283 48.33,-283"/>
<text text-anchor="middle" x="28" y="-267.8" font-family="Arial" font-size="14.00" fill="#c6c5fe">app.ts</text>
</g>
<!-- env/env.ts -->
<g id="node2" class="node">
<title>env/env.ts</title>
<path fill="none" stroke="#c6c5fe" d="M1328.83,-347C1328.83,-347 1264.17,-347 1264.17,-347 1260.33,-347 1256.5,-343.17 1256.5,-339.33 1256.5,-339.33 1256.5,-331.67 1256.5,-331.67 1256.5,-327.83 1260.33,-324 1264.17,-324 1264.17,-324 1328.83,-324 1328.83,-324 1332.67,-324 1336.5,-327.83 1336.5,-331.67 1336.5,-331.67 1336.5,-339.33 1336.5,-339.33 1336.5,-343.17 1332.67,-347 1328.83,-347"/>
<text text-anchor="middle" x="1296.5" y="-331.8" font-family="Arial" font-size="14.00" fill="#c6c5fe">env/env.ts</text>
</g>
<!-- app.ts&#45;&gt;env/env.ts -->
<g id="edge1" class="edge">
<title>app.ts&#45;&gt;env/env.ts</title>
<path fill="none" stroke="#757575" d="M56.29,-281.45C67.26,-285.11 80.1,-288.97 92,-291.5 268.07,-328.91 314.5,-336.5 494.5,-336.5 494.5,-336.5 494.5,-336.5 765.5,-336.5 941.54,-336.5 1150.47,-335.94 1244.81,-335.66"/>
<polygon fill="#757575" stroke="#757575" points="1244.77,-339.16 1254.76,-335.63 1244.75,-332.16 1244.77,-339.16"/>
</g>
<!-- middleware/auth&#45;middleware.ts -->
<g id="node3" class="node">
<title>middleware/auth&#45;middleware.ts</title>
<path fill="none" stroke="#c6c5fe" d="M862.83,-303C862.83,-303 666.17,-303 666.17,-303 662.33,-303 658.5,-299.17 658.5,-295.33 658.5,-295.33 658.5,-287.67 658.5,-287.67 658.5,-283.83 662.33,-280 666.17,-280 666.17,-280 862.83,-280 862.83,-280 866.67,-280 870.5,-283.83 870.5,-287.67 870.5,-287.67 870.5,-295.33 870.5,-295.33 870.5,-299.17 866.67,-303 862.83,-303"/>
<text text-anchor="middle" x="764.5" y="-287.8" font-family="Arial" font-size="14.00" fill="#c6c5fe">middleware/auth&#45;middleware.ts</text>
</g>
<!-- app.ts&#45;&gt;middleware/auth&#45;middleware.ts -->
<g id="edge2" class="edge">
<title>app.ts&#45;&gt;middleware/auth&#45;middleware.ts</title>
<path fill="none" stroke="#757575" d="M56.45,-272.25C151.76,-274.84 472.05,-283.56 647.01,-288.33"/>
<polygon fill="#757575" stroke="#757575" points="646.72,-291.82 656.81,-288.59 646.91,-284.82 646.72,-291.82"/>
</g>
<!-- middleware/catchError&#45;middleware.ts -->
<g id="node4" class="node">
<title>middleware/catchError&#45;middleware.ts</title>
<path fill="none" stroke="#c6c5fe" d="M335.33,-222C335.33,-222 99.67,-222 99.67,-222 95.83,-222 92,-218.17 92,-214.33 92,-214.33 92,-206.67 92,-206.67 92,-202.83 95.83,-199 99.67,-199 99.67,-199 335.33,-199 335.33,-199 339.17,-199 343,-202.83 343,-206.67 343,-206.67 343,-214.33 343,-214.33 343,-218.17 339.17,-222 335.33,-222"/>
<text text-anchor="middle" x="217.5" y="-206.8" font-family="Arial" font-size="14.00" fill="#c6c5fe">middleware/catchError&#45;middleware.ts</text>
</g>
<!-- app.ts&#45;&gt;middleware/catchError&#45;middleware.ts -->
<g id="edge3" class="edge">
<title>app.ts&#45;&gt;middleware/catchError&#45;middleware.ts</title>
<path fill="none" stroke="#757575" d="M43.07,-259.86C55.25,-250.41 73.74,-237.54 92,-230.5 96.72,-228.68 101.61,-227.02 106.59,-225.52"/>
<polygon fill="#757575" stroke="#757575" points="107.46,-228.91 116.16,-222.86 105.59,-222.16 107.46,-228.91"/>
</g>
<!-- routers/auth&#45;router.ts -->
<g id="node5" class="node">
<title>routers/auth&#45;router.ts</title>
<path fill="none" stroke="#c6c5fe" d="M283.33,-263C283.33,-263 151.67,-263 151.67,-263 147.83,-263 144,-259.17 144,-255.33 144,-255.33 144,-247.67 144,-247.67 144,-243.83 147.83,-240 151.67,-240 151.67,-240 283.33,-240 283.33,-240 287.17,-240 291,-243.83 291,-247.67 291,-247.67 291,-255.33 291,-255.33 291,-259.17 287.17,-263 283.33,-263"/>
<text text-anchor="middle" x="217.5" y="-247.8" font-family="Arial" font-size="14.00" fill="#c6c5fe">routers/auth&#45;router.ts</text>
</g>
<!-- app.ts&#45;&gt;routers/auth&#45;router.ts -->
<g id="edge4" class="edge">
<title>app.ts&#45;&gt;routers/auth&#45;router.ts</title>
<path fill="none" stroke="#757575" d="M56.26,-268.59C76.44,-266.44 105.08,-263.39 132.57,-260.45"/>
<polygon fill="#757575" stroke="#757575" points="132.77,-263.95 142.35,-259.41 132.03,-256.99 132.77,-263.95"/>
</g>
<!-- routers/todo&#45;router.ts -->
<g id="node6" class="node">
<title>routers/todo&#45;router.ts</title>
<path fill="none" stroke="#c6c5fe" d="M284.33,-144C284.33,-144 150.67,-144 150.67,-144 146.83,-144 143,-140.17 143,-136.33 143,-136.33 143,-128.67 143,-128.67 143,-124.83 146.83,-121 150.67,-121 150.67,-121 284.33,-121 284.33,-121 288.17,-121 292,-124.83 292,-128.67 292,-128.67 292,-136.33 292,-136.33 292,-140.17 288.17,-144 284.33,-144"/>
<text text-anchor="middle" x="217.5" y="-128.8" font-family="Arial" font-size="14.00" fill="#c6c5fe">routers/todo&#45;router.ts</text>
</g>
<!-- app.ts&#45;&gt;routers/todo&#45;router.ts -->
<g id="edge5" class="edge">
<title>app.ts&#45;&gt;routers/todo&#45;router.ts</title>
<path fill="none" stroke="#757575" d="M35.51,-259.72C45.61,-242.35 66.58,-209.74 92,-189.5 114.52,-171.57 143.58,-157.85 167.97,-148.37"/>
<polygon fill="#757575" stroke="#757575" points="168.9,-151.76 177.03,-144.97 166.44,-145.2 168.9,-151.76"/>
</g>
<!-- utils/filesystem/paths.ts -->
<g id="node7" class="node">
<title>utils/filesystem/paths.ts</title>
<path fill="none" stroke="#cfffac" d="M1607.33,-367C1607.33,-367 1459.67,-367 1459.67,-367 1455.83,-367 1452,-363.17 1452,-359.33 1452,-359.33 1452,-351.67 1452,-351.67 1452,-347.83 1455.83,-344 1459.67,-344 1459.67,-344 1607.33,-344 1607.33,-344 1611.17,-344 1615,-347.83 1615,-351.67 1615,-351.67 1615,-359.33 1615,-359.33 1615,-363.17 1611.17,-367 1607.33,-367"/>
<text text-anchor="middle" x="1533.5" y="-351.8" font-family="Arial" font-size="14.00" fill="#cfffac">utils/filesystem/paths.ts</text>
</g>
<!-- app.ts&#45;&gt;utils/filesystem/paths.ts -->
<g id="edge6" class="edge">
<title>app.ts&#45;&gt;utils/filesystem/paths.ts</title>
<path fill="none" stroke="#757575" d="M38.72,-283.47C50.03,-296.47 69.99,-316.68 92,-326.5 256.59,-399.89 314.29,-375.5 494.5,-375.5 494.5,-375.5 494.5,-375.5 1030,-375.5 1173.34,-375.5 1339.49,-367.27 1440.25,-361.37"/>
<polygon fill="#757575" stroke="#757575" points="1440.31,-364.88 1450.09,-360.79 1439.9,-357.89 1440.31,-364.88"/>
</g>
<!-- env/env.ts&#45;&gt;utils/filesystem/paths.ts -->
<g id="edge9" class="edge">
<title>env/env.ts&#45;&gt;utils/filesystem/paths.ts</title>
<path fill="none" stroke="#757575" d="M1336.83,-338.85C1365.13,-341.26 1404.51,-344.61 1440.52,-347.67"/>
<polygon fill="#757575" stroke="#757575" points="1439.8,-351.12 1450.06,-348.48 1440.4,-344.15 1439.8,-351.12"/>
</g>
<!-- services/auth/token&#45;service.ts -->
<g id="node13" class="node">
<title>services/auth/token&#45;service.ts</title>
<path fill="none" stroke="#c6c5fe" d="M1122.83,-308C1122.83,-308 935.17,-308 935.17,-308 931.33,-308 927.5,-304.17 927.5,-300.33 927.5,-300.33 927.5,-292.67 927.5,-292.67 927.5,-288.83 931.33,-285 935.17,-285 935.17,-285 1122.83,-285 1122.83,-285 1126.67,-285 1130.5,-288.83 1130.5,-292.67 1130.5,-292.67 1130.5,-300.33 1130.5,-300.33 1130.5,-304.17 1126.67,-308 1122.83,-308"/>
<text text-anchor="middle" x="1029" y="-292.8" font-family="Arial" font-size="14.00" fill="#c6c5fe">services/auth/token&#45;service.ts</text>
</g>
<!-- middleware/auth&#45;middleware.ts&#45;&gt;services/auth/token&#45;service.ts -->
<g id="edge10" class="edge">
<title>middleware/auth&#45;middleware.ts&#45;&gt;services/auth/token&#45;service.ts</title>
<path fill="none" stroke="#757575" d="M870.76,-293.5C885.65,-293.79 901,-294.08 916.01,-294.37"/>
<polygon fill="#757575" stroke="#757575" points="915.83,-297.86 925.9,-294.56 915.97,-290.87 915.83,-297.86"/>
</g>
<!-- utils/error/api&#45;error.ts -->
<g id="node14" class="node">
<title>utils/error/api&#45;error.ts</title>
<path fill="none" stroke="#cfffac" d="M1094.83,-144C1094.83,-144 963.17,-144 963.17,-144 959.33,-144 955.5,-140.17 955.5,-136.33 955.5,-136.33 955.5,-128.67 955.5,-128.67 955.5,-124.83 959.33,-121 963.17,-121 963.17,-121 1094.83,-121 1094.83,-121 1098.67,-121 1102.5,-124.83 1102.5,-128.67 1102.5,-128.67 1102.5,-136.33 1102.5,-136.33 1102.5,-140.17 1098.67,-144 1094.83,-144"/>
<text text-anchor="middle" x="1029" y="-128.8" font-family="Arial" font-size="14.00" fill="#cfffac">utils/error/api&#45;error.ts</text>
</g>
<!-- middleware/auth&#45;middleware.ts&#45;&gt;utils/error/api&#45;error.ts -->
<g id="edge11" class="edge">
<title>middleware/auth&#45;middleware.ts&#45;&gt;utils/error/api&#45;error.ts</title>
<path fill="none" stroke="#757575" d="M868.08,-279.64C872.7,-277.05 877.04,-274.02 881,-270.5 921.96,-234.05 876.01,-188.92 917,-152.5 924.79,-145.58 934.15,-140.67 944.07,-137.23"/>
<polygon fill="#757575" stroke="#757575" points="944.94,-140.63 953.57,-134.48 942.99,-133.9 944.94,-140.63"/>
</g>
<!-- middleware/catchError&#45;middleware.ts&#45;&gt;utils/error/api&#45;error.ts -->
<g id="edge12" class="edge">
<title>middleware/catchError&#45;middleware.ts&#45;&gt;utils/error/api&#45;error.ts</title>
<path fill="none" stroke="#757575" d="M343.38,-216.66C478.22,-220.12 698.23,-216.46 881,-169.5 898.14,-165.1 900.15,-157.89 917,-152.5 925.62,-149.74 934.74,-147.33 943.91,-145.22"/>
<polygon fill="#757575" stroke="#757575" points="944.56,-148.66 953.6,-143.13 943.08,-141.82 944.56,-148.66"/>
</g>
<!-- controllers/auth&#45;controller.ts -->
<g id="node8" class="node">
<title>controllers/auth&#45;controller.ts</title>
<path fill="none" stroke="#c6c5fe" d="M583.33,-263C583.33,-263 407.67,-263 407.67,-263 403.83,-263 400,-259.17 400,-255.33 400,-255.33 400,-247.67 400,-247.67 400,-243.83 403.83,-240 407.67,-240 407.67,-240 583.33,-240 583.33,-240 587.17,-240 591,-243.83 591,-247.67 591,-247.67 591,-255.33 591,-255.33 591,-259.17 587.17,-263 583.33,-263"/>
<text text-anchor="middle" x="495.5" y="-247.8" font-family="Arial" font-size="14.00" fill="#c6c5fe">controllers/auth&#45;controller.ts</text>
</g>
<!-- routers/auth&#45;router.ts&#45;&gt;controllers/auth&#45;controller.ts -->
<g id="edge18" class="edge">
<title>routers/auth&#45;router.ts&#45;&gt;controllers/auth&#45;controller.ts</title>
<path fill="none" stroke="#757575" d="M291.38,-251.5C321.02,-251.5 355.87,-251.5 388.25,-251.5"/>
<polygon fill="#757575" stroke="#757575" points="388.07,-255 398.07,-251.5 388.07,-248 388.07,-255"/>
</g>
<!-- middleware/validate&#45;middleware.ts -->
<g id="node15" class="node">
<title>middleware/validate&#45;middleware.ts</title>
<path fill="none" stroke="#c6c5fe" d="M604.33,-144C604.33,-144 386.67,-144 386.67,-144 382.83,-144 379,-140.17 379,-136.33 379,-136.33 379,-128.67 379,-128.67 379,-124.83 382.83,-121 386.67,-121 386.67,-121 604.33,-121 604.33,-121 608.17,-121 612,-124.83 612,-128.67 612,-128.67 612,-136.33 612,-136.33 612,-140.17 608.17,-144 604.33,-144"/>
<text text-anchor="middle" x="495.5" y="-128.8" font-family="Arial" font-size="14.00" fill="#c6c5fe">middleware/validate&#45;middleware.ts</text>
</g>
<!-- routers/auth&#45;router.ts&#45;&gt;middleware/validate&#45;middleware.ts -->
<g id="edge19" class="edge">
<title>routers/auth&#45;router.ts&#45;&gt;middleware/validate&#45;middleware.ts</title>
<path fill="none" stroke="#757575" d="M291.27,-244.32C308.6,-241.23 326.76,-236.81 343,-230.5 392.84,-211.13 443.58,-174.02 471.85,-151.44"/>
<polygon fill="#757575" stroke="#757575" points="473.81,-154.36 479.37,-145.34 469.4,-148.92 473.81,-154.36"/>
</g>
<!-- controllers/todo&#45;controller.ts -->
<g id="node10" class="node">
<title>controllers/todo&#45;controller.ts</title>
<path fill="none" stroke="#c6c5fe" d="M584.33,-63C584.33,-63 406.67,-63 406.67,-63 402.83,-63 399,-59.17 399,-55.33 399,-55.33 399,-47.67 399,-47.67 399,-43.83 402.83,-40 406.67,-40 406.67,-40 584.33,-40 584.33,-40 588.17,-40 592,-43.83 592,-47.67 592,-47.67 592,-55.33 592,-55.33 592,-59.17 588.17,-63 584.33,-63"/>
<text text-anchor="middle" x="495.5" y="-47.8" font-family="Arial" font-size="14.00" fill="#c6c5fe">controllers/todo&#45;controller.ts</text>
</g>
<!-- routers/todo&#45;router.ts&#45;&gt;controllers/todo&#45;controller.ts -->
<g id="edge20" class="edge">
<title>routers/todo&#45;router.ts&#45;&gt;controllers/todo&#45;controller.ts</title>
<path fill="none" stroke="#757575" d="M259.22,-120.55C308.08,-106.21 390.04,-82.16 443.18,-66.56"/>
<polygon fill="#757575" stroke="#757575" points="444,-69.97 452.61,-63.8 442.02,-63.25 444,-69.97"/>
</g>
<!-- routers/todo&#45;router.ts&#45;&gt;middleware/validate&#45;middleware.ts -->
<g id="edge21" class="edge">
<title>routers/todo&#45;router.ts&#45;&gt;middleware/validate&#45;middleware.ts</title>
<path fill="none" stroke="#757575" d="M292.46,-132.5C315.55,-132.5 341.72,-132.5 367.37,-132.5"/>
<polygon fill="#757575" stroke="#757575" points="367.21,-136 377.21,-132.5 367.21,-129 367.21,-136"/>
</g>
<!-- services/auth/user&#45;service.ts -->
<g id="node9" class="node">
<title>services/auth/user&#45;service.ts</title>
<path fill="none" stroke="#c6c5fe" d="M855.33,-262C855.33,-262 673.67,-262 673.67,-262 669.83,-262 666,-258.17 666,-254.33 666,-254.33 666,-246.67 666,-246.67 666,-242.83 669.83,-239 673.67,-239 673.67,-239 855.33,-239 855.33,-239 859.17,-239 863,-242.83 863,-246.67 863,-246.67 863,-254.33 863,-254.33 863,-258.17 859.17,-262 855.33,-262"/>
<text text-anchor="middle" x="764.5" y="-246.8" font-family="Arial" font-size="14.00" fill="#c6c5fe">services/auth/user&#45;service.ts</text>
</g>
<!-- controllers/auth&#45;controller.ts&#45;&gt;services/auth/user&#45;service.ts -->
<g id="edge7" class="edge">
<title>controllers/auth&#45;controller.ts&#45;&gt;services/auth/user&#45;service.ts</title>
<path fill="none" stroke="#757575" d="M591.39,-251.14C611.75,-251.07 633.42,-250.99 654.28,-250.91"/>
<polygon fill="#757575" stroke="#757575" points="654.26,-254.41 664.25,-250.87 654.24,-247.41 654.26,-254.41"/>
</g>
<!-- dto/user&#45;dto.ts -->
<g id="node12" class="node">
<title>dto/user&#45;dto.ts</title>
<path fill="none" stroke="#cfffac" d="M1075.33,-267C1075.33,-267 982.67,-267 982.67,-267 978.83,-267 975,-263.17 975,-259.33 975,-259.33 975,-251.67 975,-251.67 975,-247.83 978.83,-244 982.67,-244 982.67,-244 1075.33,-244 1075.33,-244 1079.17,-244 1083,-247.83 1083,-251.67 1083,-251.67 1083,-259.33 1083,-259.33 1083,-263.17 1079.17,-267 1075.33,-267"/>
<text text-anchor="middle" x="1029" y="-251.8" font-family="Arial" font-size="14.00" fill="#cfffac">dto/user&#45;dto.ts</text>
</g>
<!-- services/auth/user&#45;service.ts&#45;&gt;dto/user&#45;dto.ts -->
<g id="edge24" class="edge">
<title>services/auth/user&#45;service.ts&#45;&gt;dto/user&#45;dto.ts</title>
<path fill="none" stroke="#757575" d="M863.25,-252.36C896.72,-253 933.32,-253.7 963.49,-254.27"/>
<polygon fill="#757575" stroke="#757575" points="963.15,-257.77 973.21,-254.46 963.28,-250.77 963.15,-257.77"/>
</g>
<!-- services/auth/user&#45;service.ts&#45;&gt;services/auth/token&#45;service.ts -->
<g id="edge26" class="edge">
<title>services/auth/user&#45;service.ts&#45;&gt;services/auth/token&#45;service.ts</title>
<path fill="none" stroke="#757575" d="M834.83,-262.46C850.04,-265.1 866.07,-267.89 881,-270.5 903.28,-274.4 927.44,-278.66 949.63,-282.58"/>
<polygon fill="#757575" stroke="#757575" points="948.74,-285.98 959.19,-284.28 949.96,-279.09 948.74,-285.98"/>
</g>
<!-- services/auth/user&#45;service.ts&#45;&gt;utils/error/api&#45;error.ts -->
<g id="edge28" class="edge">
<title>services/auth/user&#45;service.ts&#45;&gt;utils/error/api&#45;error.ts</title>
<path fill="none" stroke="#757575" d="M855.83,-238.6C864.87,-235 873.47,-230.39 881,-224.5 909.17,-202.44 888.36,-173.94 917,-152.5 925.03,-146.49 934.29,-142.08 943.97,-138.88"/>
<polygon fill="#757575" stroke="#757575" points="944.9,-142.25 953.57,-136.16 942.99,-135.52 944.9,-142.25"/>
</g>
<!-- models/UserModel.ts -->
<g id="node22" class="node">
<title>models/UserModel.ts</title>
<path fill="none" stroke="#cfffac" d="M1097.33,-226C1097.33,-226 960.67,-226 960.67,-226 956.83,-226 953,-222.17 953,-218.33 953,-218.33 953,-210.67 953,-210.67 953,-206.83 956.83,-203 960.67,-203 960.67,-203 1097.33,-203 1097.33,-203 1101.17,-203 1105,-206.83 1105,-210.67 1105,-210.67 1105,-218.33 1105,-218.33 1105,-222.17 1101.17,-226 1097.33,-226"/>
<text text-anchor="middle" x="1029" y="-210.8" font-family="Arial" font-size="14.00" fill="#cfffac">models/UserModel.ts</text>
</g>
<!-- services/auth/user&#45;service.ts&#45;&gt;models/UserModel.ts -->
<g id="edge25" class="edge">
<title>services/auth/user&#45;service.ts&#45;&gt;models/UserModel.ts</title>
<path fill="none" stroke="#757575" d="M852.91,-238.51C881.48,-234.59 913.18,-230.25 941.67,-226.34"/>
<polygon fill="#757575" stroke="#757575" points="941.9,-229.84 951.34,-225.01 940.95,-222.91 941.9,-229.84"/>
</g>
<!-- utils/crypto/hashing.ts -->
<g id="node23" class="node">
<title>utils/crypto/hashing.ts</title>
<path fill="none" stroke="#cfffac" d="M1097.33,-185C1097.33,-185 960.67,-185 960.67,-185 956.83,-185 953,-181.17 953,-177.33 953,-177.33 953,-169.67 953,-169.67 953,-165.83 956.83,-162 960.67,-162 960.67,-162 1097.33,-162 1097.33,-162 1101.17,-162 1105,-165.83 1105,-169.67 1105,-169.67 1105,-177.33 1105,-177.33 1105,-181.17 1101.17,-185 1097.33,-185"/>
<text text-anchor="middle" x="1029" y="-169.8" font-family="Arial" font-size="14.00" fill="#cfffac">utils/crypto/hashing.ts</text>
</g>
<!-- services/auth/user&#45;service.ts&#45;&gt;utils/crypto/hashing.ts -->
<g id="edge27" class="edge">
<title>services/auth/user&#45;service.ts&#45;&gt;utils/crypto/hashing.ts</title>
<path fill="none" stroke="#757575" d="M843.12,-238.54C856.15,-234.99 869.25,-230.41 881,-224.5 899.86,-215.01 897.94,-202.58 917,-193.5 924.77,-189.8 933.14,-186.78 941.68,-184.32"/>
<polygon fill="#757575" stroke="#757575" points="942.29,-187.77 951.09,-181.87 940.53,-181 942.29,-187.77"/>
</g>
<!-- services/logic/todo&#45;service.ts -->
<g id="node11" class="node">
<title>services/logic/todo&#45;service.ts</title>
<path fill="none" stroke="#c6c5fe" d="M857.33,-23C857.33,-23 671.67,-23 671.67,-23 667.83,-23 664,-19.17 664,-15.33 664,-15.33 664,-7.67 664,-7.67 664,-3.83 667.83,0 671.67,0 671.67,0 857.33,0 857.33,0 861.17,0 865,-3.83 865,-7.67 865,-7.67 865,-15.33 865,-15.33 865,-19.17 861.17,-23 857.33,-23"/>
<text text-anchor="middle" x="764.5" y="-7.8" font-family="Arial" font-size="14.00" fill="#c6c5fe">services/logic/todo&#45;service.ts</text>
</g>
<!-- controllers/todo&#45;controller.ts&#45;&gt;services/logic/todo&#45;service.ts -->
<g id="edge8" class="edge">
<title>controllers/todo&#45;controller.ts&#45;&gt;services/logic/todo&#45;service.ts</title>
<path fill="none" stroke="#757575" d="M576.25,-39.55C606.49,-35.02 641.16,-29.83 672.37,-25.15"/>
<polygon fill="#757575" stroke="#757575" points="672.83,-28.62 682.21,-23.68 671.8,-21.7 672.83,-28.62"/>
</g>
<!-- models/Todo/TodoModel.ts -->
<g id="node20" class="node">
<title>models/Todo/TodoModel.ts</title>
<path fill="none" stroke="#c6c5fe" d="M1117.83,-23C1117.83,-23 940.17,-23 940.17,-23 936.33,-23 932.5,-19.17 932.5,-15.33 932.5,-15.33 932.5,-7.67 932.5,-7.67 932.5,-3.83 936.33,0 940.17,0 940.17,0 1117.83,0 1117.83,0 1121.67,0 1125.5,-3.83 1125.5,-7.67 1125.5,-7.67 1125.5,-15.33 1125.5,-15.33 1125.5,-19.17 1121.67,-23 1117.83,-23"/>
<text text-anchor="middle" x="1029" y="-7.8" font-family="Arial" font-size="14.00" fill="#c6c5fe">models/Todo/TodoModel.ts</text>
</g>
<!-- services/logic/todo&#45;service.ts&#45;&gt;models/Todo/TodoModel.ts -->
<g id="edge29" class="edge">
<title>services/logic/todo&#45;service.ts&#45;&gt;models/Todo/TodoModel.ts</title>
<path fill="none" stroke="#757575" d="M865.49,-11.5C883.61,-11.5 902.57,-11.5 920.88,-11.5"/>
<polygon fill="#757575" stroke="#757575" points="920.67,-15 930.67,-11.5 920.67,-8 920.67,-15"/>
</g>
<!-- services/auth/token&#45;service.ts&#45;&gt;env/env.ts -->
<g id="edge22" class="edge">
<title>services/auth/token&#45;service.ts&#45;&gt;env/env.ts</title>
<path fill="none" stroke="#757575" d="M1111.46,-308.47C1154.98,-314.86 1207.18,-322.53 1244.85,-328.06"/>
<polygon fill="#757575" stroke="#757575" points="1244.15,-331.5 1254.56,-329.49 1245.17,-324.57 1244.15,-331.5"/>
</g>
<!-- models/TokenModel.ts -->
<g id="node21" class="node">
<title>models/TokenModel.ts</title>
<path fill="none" stroke="#cfffac" d="M1369.33,-306C1369.33,-306 1223.67,-306 1223.67,-306 1219.83,-306 1216,-302.17 1216,-298.33 1216,-298.33 1216,-290.67 1216,-290.67 1216,-286.83 1219.83,-283 1223.67,-283 1223.67,-283 1369.33,-283 1369.33,-283 1373.17,-283 1377,-286.83 1377,-290.67 1377,-290.67 1377,-298.33 1377,-298.33 1377,-302.17 1373.17,-306 1369.33,-306"/>
<text text-anchor="middle" x="1296.5" y="-290.8" font-family="Arial" font-size="14.00" fill="#cfffac">models/TokenModel.ts</text>
</g>
<!-- services/auth/token&#45;service.ts&#45;&gt;models/TokenModel.ts -->
<g id="edge23" class="edge">
<title>services/auth/token&#45;service.ts&#45;&gt;models/TokenModel.ts</title>
<path fill="none" stroke="#757575" d="M1130.75,-295.74C1154.96,-295.56 1180.67,-295.36 1204.41,-295.19"/>
<polygon fill="#757575" stroke="#757575" points="1204.4,-298.69 1214.37,-295.11 1204.35,-291.69 1204.4,-298.69"/>
</g>
<!-- middleware/validate&#45;middleware.ts&#45;&gt;utils/error/api&#45;error.ts -->
<g id="edge13" class="edge">
<title>middleware/validate&#45;middleware.ts&#45;&gt;utils/error/api&#45;error.ts</title>
<path fill="none" stroke="#757575" d="M572.21,-144.48C596.37,-147.77 623.25,-150.87 648,-152.5 751.33,-159.29 777.68,-159.5 881,-152.5 901.49,-151.11 923.48,-148.65 944.04,-145.91"/>
<polygon fill="#757575" stroke="#757575" points="944.37,-149.4 953.8,-144.58 943.42,-142.47 944.37,-149.4"/>
</g>
<!-- utils/validation/customValidator.ts -->
<g id="node16" class="node">
<title>utils/validation/customValidator.ts</title>
<path fill="none" stroke="#cfffac" d="M1133.33,-84C1133.33,-84 924.67,-84 924.67,-84 920.83,-84 917,-80.17 917,-76.33 917,-76.33 917,-68.67 917,-68.67 917,-64.83 920.83,-61 924.67,-61 924.67,-61 1133.33,-61 1133.33,-61 1137.17,-61 1141,-64.83 1141,-68.67 1141,-68.67 1141,-76.33 1141,-76.33 1141,-80.17 1137.17,-84 1133.33,-84"/>
<text text-anchor="middle" x="1029" y="-68.8" font-family="Arial" font-size="14.00" fill="#cfffac">utils/validation/customValidator.ts</text>
</g>
<!-- middleware/validate&#45;middleware.ts&#45;&gt;utils/validation/customValidator.ts -->
<g id="edge14" class="edge">
<title>middleware/validate&#45;middleware.ts&#45;&gt;utils/validation/customValidator.ts</title>
<path fill="none" stroke="#757575" d="M517.75,-120.69C546.32,-105.55 599.2,-80.1 648,-70.5 733.43,-53.7 831.77,-54.75 907,-59.71"/>
<polygon fill="#757575" stroke="#757575" points="906.67,-63.2 916.89,-60.4 907.16,-56.22 906.67,-63.2"/>
</g>
<!-- utils/validation/validateLogin.ts -->
<g id="node17" class="node">
<title>utils/validation/validateLogin.ts</title>
<path fill="none" stroke="#c6c5fe" d="M859.83,-103C859.83,-103 669.17,-103 669.17,-103 665.33,-103 661.5,-99.17 661.5,-95.33 661.5,-95.33 661.5,-87.67 661.5,-87.67 661.5,-83.83 665.33,-80 669.17,-80 669.17,-80 859.83,-80 859.83,-80 863.67,-80 867.5,-83.83 867.5,-87.67 867.5,-87.67 867.5,-95.33 867.5,-95.33 867.5,-99.17 863.67,-103 859.83,-103"/>
<text text-anchor="middle" x="764.5" y="-87.8" font-family="Arial" font-size="14.00" fill="#c6c5fe">utils/validation/validateLogin.ts</text>
</g>
<!-- middleware/validate&#45;middleware.ts&#45;&gt;utils/validation/validateLogin.ts -->
<g id="edge15" class="edge">
<title>middleware/validate&#45;middleware.ts&#45;&gt;utils/validation/validateLogin.ts</title>
<path fill="none" stroke="#757575" d="M574.45,-120.53C605.7,-115.73 641.9,-110.17 674.21,-105.21"/>
<polygon fill="#757575" stroke="#757575" points="674.61,-108.69 683.96,-103.71 673.55,-101.77 674.61,-108.69"/>
</g>
<!-- utils/validation/validatePassword.ts -->
<g id="node18" class="node">
<title>utils/validation/validatePassword.ts</title>
<path fill="none" stroke="#c6c5fe" d="M873.33,-144C873.33,-144 655.67,-144 655.67,-144 651.83,-144 648,-140.17 648,-136.33 648,-136.33 648,-128.67 648,-128.67 648,-124.83 651.83,-121 655.67,-121 655.67,-121 873.33,-121 873.33,-121 877.17,-121 881,-124.83 881,-128.67 881,-128.67 881,-136.33 881,-136.33 881,-140.17 877.17,-144 873.33,-144"/>
<text text-anchor="middle" x="764.5" y="-128.8" font-family="Arial" font-size="14.00" fill="#c6c5fe">utils/validation/validatePassword.ts</text>
</g>
<!-- middleware/validate&#45;middleware.ts&#45;&gt;utils/validation/validatePassword.ts -->
<g id="edge16" class="edge">
<title>middleware/validate&#45;middleware.ts&#45;&gt;utils/validation/validatePassword.ts</title>
<path fill="none" stroke="#757575" d="M612.45,-132.5C620.38,-132.5 628.41,-132.5 636.4,-132.5"/>
<polygon fill="#757575" stroke="#757575" points="636.16,-136 646.16,-132.5 636.16,-129 636.16,-136"/>
</g>
<!-- utils/validation/validateLogin.ts&#45;&gt;utils/error/api&#45;error.ts -->
<g id="edge30" class="edge">
<title>utils/validation/validateLogin.ts&#45;&gt;utils/error/api&#45;error.ts</title>
<path fill="none" stroke="#757575" d="M842.13,-103.47C874.08,-108.46 911.28,-114.27 943.97,-119.38"/>
<polygon fill="#757575" stroke="#757575" points="943.42,-122.83 953.84,-120.92 944.5,-115.91 943.42,-122.83"/>
</g>
<!-- utils/validation/validateLogin.ts&#45;&gt;utils/validation/customValidator.ts -->
<g id="edge31" class="edge">
<title>utils/validation/validateLogin.ts&#45;&gt;utils/validation/customValidator.ts</title>
<path fill="none" stroke="#757575" d="M867.74,-84.1C880.21,-83.2 893.05,-82.27 905.77,-81.35"/>
<polygon fill="#757575" stroke="#757575" points="905.68,-84.86 915.4,-80.65 905.18,-77.88 905.68,-84.86"/>
</g>
<!-- utils/validation/validatePassword.ts&#45;&gt;utils/error/api&#45;error.ts -->
<g id="edge32" class="edge">
<title>utils/validation/validatePassword.ts&#45;&gt;utils/error/api&#45;error.ts</title>
<path fill="none" stroke="#757575" d="M881.4,-132.5C902.41,-132.5 923.95,-132.5 943.83,-132.5"/>
<polygon fill="#757575" stroke="#757575" points="943.82,-136 953.82,-132.5 943.82,-129 943.82,-136"/>
</g>
<!-- models/Todo/TodoElemSchema.ts -->
<g id="node19" class="node">
<title>models/Todo/TodoElemSchema.ts</title>
<path fill="none" stroke="#cfffac" d="M1408.33,-23C1408.33,-23 1184.67,-23 1184.67,-23 1180.83,-23 1177,-19.17 1177,-15.33 1177,-15.33 1177,-7.67 1177,-7.67 1177,-3.83 1180.83,0 1184.67,0 1184.67,0 1408.33,0 1408.33,0 1412.17,0 1416,-3.83 1416,-7.67 1416,-7.67 1416,-15.33 1416,-15.33 1416,-19.17 1412.17,-23 1408.33,-23"/>
<text text-anchor="middle" x="1296.5" y="-7.8" font-family="Arial" font-size="14.00" fill="#cfffac">models/Todo/TodoElemSchema.ts</text>
</g>
<!-- models/Todo/TodoModel.ts&#45;&gt;models/Todo/TodoElemSchema.ts -->
<g id="edge17" class="edge">
<title>models/Todo/TodoModel.ts&#45;&gt;models/Todo/TodoElemSchema.ts</title>
<path fill="none" stroke="#757575" d="M1125.85,-11.5C1138.73,-11.5 1152.12,-11.5 1165.46,-11.5"/>
<polygon fill="#757575" stroke="#757575" points="1165.14,-15 1175.14,-11.5 1165.14,-8 1165.14,-15"/>
</g>
</g>
</svg>
